%TF.GenerationSoftware,KiCad,Pcbnew,(6.0.5)*%
%TF.CreationDate,2024-02-02T14:17:11-06:00*%
%TF.ProjectId,exercise4_vbn3_ryfu2,65786572-6369-4736-9534-5f76626e335f,rev?*%
%TF.SameCoordinates,Original*%
%TF.FileFunction,Soldermask,Top*%
%TF.FilePolarity,Negative*%
%FSLAX46Y46*%
G04 Gerber Fmt 4.6, Leading zero omitted, Abs format (unit mm)*
G04 Created by KiCad (PCBNEW (6.0.5)) date 2024-02-02 14:17:11*
%MOMM*%
%LPD*%
G01*
G04 APERTURE LIST*
G04 Aperture macros list*
%AMRoundRect*
0 Rectangle with rounded corners*
0 $1 Rounding radius*
0 $2 $3 $4 $5 $6 $7 $8 $9 X,Y pos of 4 corners*
0 Add a 4 corners polygon primitive as box body*
4,1,4,$2,$3,$4,$5,$6,$7,$8,$9,$2,$3,0*
0 Add four circle primitives for the rounded corners*
1,1,$1+$1,$2,$3*
1,1,$1+$1,$4,$5*
1,1,$1+$1,$6,$7*
1,1,$1+$1,$8,$9*
0 Add four rect primitives between the rounded corners*
20,1,$1+$1,$2,$3,$4,$5,0*
20,1,$1+$1,$4,$5,$6,$7,0*
20,1,$1+$1,$6,$7,$8,$9,0*
20,1,$1+$1,$8,$9,$2,$3,0*%
G04 Aperture macros list end*
%ADD10C,0.700000*%
%ADD11O,0.900000X1.700000*%
%ADD12O,0.900000X2.400000*%
%ADD13RoundRect,0.250000X-0.350000X-0.450000X0.350000X-0.450000X0.350000X0.450000X-0.350000X0.450000X0*%
%ADD14R,1.700000X1.700000*%
%ADD15O,1.700000X1.700000*%
%ADD16RoundRect,0.125000X-0.625000X-0.125000X0.625000X-0.125000X0.625000X0.125000X-0.625000X0.125000X0*%
%ADD17RoundRect,0.125000X-0.125000X-0.625000X0.125000X-0.625000X0.125000X0.625000X-0.125000X0.625000X0*%
%ADD18R,2.000000X1.500000*%
%ADD19R,2.000000X3.800000*%
%ADD20C,2.800000*%
%ADD21C,2.000000*%
%ADD22RoundRect,0.250000X-0.325000X-0.450000X0.325000X-0.450000X0.325000X0.450000X-0.325000X0.450000X0*%
%ADD23RoundRect,0.250000X-0.337500X-0.475000X0.337500X-0.475000X0.337500X0.475000X-0.337500X0.475000X0*%
G04 APERTURE END LIST*
D10*
%TO.C,J1*%
X154505000Y-51855000D03*
X155355000Y-51855000D03*
X156205000Y-51855000D03*
X157055000Y-51855000D03*
X157905000Y-51855000D03*
X158755000Y-51855000D03*
X159605000Y-51855000D03*
X160455000Y-51855000D03*
X160455000Y-53205000D03*
X159605000Y-53205000D03*
X158755000Y-53205000D03*
X157905000Y-53205000D03*
X157055000Y-53205000D03*
X156205000Y-53205000D03*
X155355000Y-53205000D03*
X154505000Y-53205000D03*
D11*
X161805000Y-56215000D03*
X153155000Y-56215000D03*
D12*
X161805000Y-52835000D03*
X153155000Y-52835000D03*
%TD*%
D13*
%TO.C,R5*%
X159020000Y-48260000D03*
X161020000Y-48260000D03*
%TD*%
%TO.C,R4*%
X153940000Y-48260000D03*
X155940000Y-48260000D03*
%TD*%
D14*
%TO.C,J4*%
X139700000Y-53340000D03*
D15*
X139700000Y-55880000D03*
X139700000Y-58420000D03*
X139700000Y-60960000D03*
X139700000Y-63500000D03*
X139700000Y-66040000D03*
%TD*%
D14*
%TO.C,J3*%
X177800000Y-50800000D03*
D15*
X177800000Y-53340000D03*
X177800000Y-55880000D03*
%TD*%
D14*
%TO.C,J2*%
X144780000Y-53340000D03*
D15*
X147320000Y-53340000D03*
X144780000Y-55880000D03*
X147320000Y-55880000D03*
X144780000Y-58420000D03*
X147320000Y-58420000D03*
X144780000Y-60960000D03*
X147320000Y-60960000D03*
X144780000Y-63500000D03*
X147320000Y-63500000D03*
%TD*%
D16*
%TO.C,U2*%
X152165000Y-65390000D03*
X152165000Y-66190000D03*
X152165000Y-66990000D03*
X152165000Y-67790000D03*
X152165000Y-68590000D03*
X152165000Y-69390000D03*
X152165000Y-70190000D03*
X152165000Y-70990000D03*
D17*
X153540000Y-72365000D03*
X154340000Y-72365000D03*
X155140000Y-72365000D03*
X155940000Y-72365000D03*
X156740000Y-72365000D03*
X157540000Y-72365000D03*
X158340000Y-72365000D03*
X159140000Y-72365000D03*
D16*
X160515000Y-70990000D03*
X160515000Y-70190000D03*
X160515000Y-69390000D03*
X160515000Y-68590000D03*
X160515000Y-67790000D03*
X160515000Y-66990000D03*
X160515000Y-66190000D03*
X160515000Y-65390000D03*
D17*
X159140000Y-64015000D03*
X158340000Y-64015000D03*
X157540000Y-64015000D03*
X156740000Y-64015000D03*
X155940000Y-64015000D03*
X155140000Y-64015000D03*
X154340000Y-64015000D03*
X153540000Y-64015000D03*
%TD*%
D18*
%TO.C,U1*%
X167030000Y-51040000D03*
D19*
X173330000Y-53340000D03*
D18*
X167030000Y-53340000D03*
X167030000Y-55640000D03*
%TD*%
D20*
%TO.C,TP1*%
X149860000Y-73660000D03*
%TD*%
D21*
%TO.C,SW1*%
X145490000Y-71120000D03*
X138990000Y-71120000D03*
X138990000Y-75620000D03*
X145490000Y-75620000D03*
%TD*%
D13*
%TO.C,R3*%
X171180000Y-76200000D03*
X169180000Y-76200000D03*
%TD*%
%TO.C,R2*%
X155480000Y-76200000D03*
X157480000Y-76200000D03*
%TD*%
%TO.C,R1*%
X180880000Y-60960000D03*
X182880000Y-60960000D03*
%TD*%
D22*
%TO.C,D2*%
X163050000Y-73660000D03*
X165100000Y-73660000D03*
%TD*%
%TO.C,D1*%
X181855000Y-55880000D03*
X183905000Y-55880000D03*
%TD*%
D23*
%TO.C,C5*%
X181842500Y-50800000D03*
X183917500Y-50800000D03*
%TD*%
%TO.C,C4*%
X148822500Y-48260000D03*
X150897500Y-48260000D03*
%TD*%
%TO.C,C3*%
X169142500Y-60960000D03*
X171217500Y-60960000D03*
%TD*%
%TO.C,C2*%
X181842500Y-66040000D03*
X183917500Y-66040000D03*
%TD*%
%TO.C,C1*%
X164062500Y-66040000D03*
X166137500Y-66040000D03*
%TD*%
M02*
