%TF.GenerationSoftware,KiCad,Pcbnew,(6.0.5)*%
%TF.CreationDate,2024-02-02T14:17:11-06:00*%
%TF.ProjectId,exercise4_vbn3_ryfu2,65786572-6369-4736-9534-5f76626e335f,rev?*%
%TF.SameCoordinates,Original*%
%TF.FileFunction,Copper,L2,Bot*%
%TF.FilePolarity,Positive*%
%FSLAX46Y46*%
G04 Gerber Fmt 4.6, Leading zero omitted, Abs format (unit mm)*
G04 Created by KiCad (PCBNEW (6.0.5)) date 2024-02-02 14:17:11*
%MOMM*%
%LPD*%
G01*
G04 APERTURE LIST*
%TA.AperFunction,ComponentPad*%
%ADD10C,0.700000*%
%TD*%
%TA.AperFunction,ComponentPad*%
%ADD11O,0.900000X1.700000*%
%TD*%
%TA.AperFunction,ComponentPad*%
%ADD12O,0.900000X2.400000*%
%TD*%
%TA.AperFunction,ComponentPad*%
%ADD13R,1.700000X1.700000*%
%TD*%
%TA.AperFunction,ComponentPad*%
%ADD14O,1.700000X1.700000*%
%TD*%
%TA.AperFunction,ComponentPad*%
%ADD15C,2.800000*%
%TD*%
%TA.AperFunction,ComponentPad*%
%ADD16C,2.000000*%
%TD*%
%TA.AperFunction,Conductor*%
%ADD17C,0.250000*%
%TD*%
G04 APERTURE END LIST*
D10*
%TO.P,J1,A1,GND*%
%TO.N,GND*%
X154505000Y-51855000D03*
%TO.P,J1,A4,VBUS*%
%TO.N,+5V*%
X155355000Y-51855000D03*
%TO.P,J1,A5,CC1*%
%TO.N,Net-(J1-PadA5)*%
X156205000Y-51855000D03*
%TO.P,J1,A6,D+*%
%TO.N,unconnected-(J1-PadA6)*%
X157055000Y-51855000D03*
%TO.P,J1,A7,D-*%
%TO.N,unconnected-(J1-PadA7)*%
X157905000Y-51855000D03*
%TO.P,J1,A8,SBU1*%
%TO.N,unconnected-(J1-PadA8)*%
X158755000Y-51855000D03*
%TO.P,J1,A9,VBUS*%
%TO.N,+5V*%
X159605000Y-51855000D03*
%TO.P,J1,A12,GND*%
%TO.N,GND*%
X160455000Y-51855000D03*
%TO.P,J1,B1,GND*%
X160455000Y-53205000D03*
%TO.P,J1,B4,VBUS*%
%TO.N,+5V*%
X159605000Y-53205000D03*
%TO.P,J1,B5,CC2*%
%TO.N,Net-(J1-PadB5)*%
X158755000Y-53205000D03*
%TO.P,J1,B6,D+*%
%TO.N,unconnected-(J1-PadB6)*%
X157905000Y-53205000D03*
%TO.P,J1,B7,D-*%
%TO.N,unconnected-(J1-PadB7)*%
X157055000Y-53205000D03*
%TO.P,J1,B8,SBU2*%
%TO.N,unconnected-(J1-PadB8)*%
X156205000Y-53205000D03*
%TO.P,J1,B9,VBUS*%
%TO.N,+5V*%
X155355000Y-53205000D03*
%TO.P,J1,B12,GND*%
%TO.N,GND*%
X154505000Y-53205000D03*
D11*
%TO.P,J1,S1,SHIELD*%
X161805000Y-56215000D03*
X153155000Y-56215000D03*
D12*
X161805000Y-52835000D03*
X153155000Y-52835000D03*
%TD*%
D13*
%TO.P,J4,1,Pin_1*%
%TO.N,GND*%
X139700000Y-53340000D03*
D14*
%TO.P,J4,2,Pin_2*%
%TO.N,/CTS*%
X139700000Y-55880000D03*
%TO.P,J4,3,Pin_3*%
%TO.N,unconnected-(J4-Pad3)*%
X139700000Y-58420000D03*
%TO.P,J4,4,Pin_4*%
%TO.N,/TX*%
X139700000Y-60960000D03*
%TO.P,J4,5,Pin_5*%
%TO.N,/RX*%
X139700000Y-63500000D03*
%TO.P,J4,6,Pin_6*%
%TO.N,/DTR*%
X139700000Y-66040000D03*
%TD*%
D13*
%TO.P,J3,1,Pin_1*%
%TO.N,/SCK*%
X177800000Y-50800000D03*
D14*
%TO.P,J3,2,Pin_2*%
%TO.N,/SDA*%
X177800000Y-53340000D03*
%TO.P,J3,3,Pin_3*%
%TO.N,GND*%
X177800000Y-55880000D03*
%TD*%
D13*
%TO.P,J2,1,Pin_1*%
%TO.N,/RST*%
X144780000Y-53340000D03*
D14*
%TO.P,J2,2,Pin_2*%
%TO.N,/SWCLK*%
X147320000Y-53340000D03*
%TO.P,J2,3,Pin_3*%
%TO.N,/SWIM*%
X144780000Y-55880000D03*
%TO.P,J2,4,Pin_4*%
%TO.N,/SWDIO*%
X147320000Y-55880000D03*
%TO.P,J2,5,Pin_5*%
%TO.N,GND*%
X144780000Y-58420000D03*
%TO.P,J2,6,Pin_6*%
X147320000Y-58420000D03*
%TO.P,J2,7,Pin_7*%
%TO.N,unconnected-(J2-Pad7)*%
X144780000Y-60960000D03*
%TO.P,J2,8,Pin_8*%
%TO.N,unconnected-(J2-Pad8)*%
X147320000Y-60960000D03*
%TO.P,J2,9,Pin_9*%
%TO.N,unconnected-(J2-Pad9)*%
X144780000Y-63500000D03*
%TO.P,J2,10,Pin_10*%
%TO.N,unconnected-(J2-Pad10)*%
X147320000Y-63500000D03*
%TD*%
D15*
%TO.P,TP1,1,1*%
%TO.N,Net-(U2-Pad6)*%
X149860000Y-73660000D03*
%TD*%
D16*
%TO.P,SW1,1,1*%
%TO.N,GND*%
X145490000Y-71120000D03*
X138990000Y-71120000D03*
%TO.P,SW1,2,2*%
%TO.N,Net-(R3-Pad2)*%
X138990000Y-75620000D03*
X145490000Y-75620000D03*
%TD*%
D17*
%TO.N,GND*%
X160229511Y-53340000D02*
X160320000Y-53340000D01*
X160455000Y-53114511D02*
X160229511Y-53340000D01*
X160455000Y-51855000D02*
X160455000Y-53114511D01*
X160320000Y-53340000D02*
X160455000Y-53205000D01*
X154505000Y-51855000D02*
X154505000Y-53205000D01*
%TD*%
M02*
