M48
; DRILL file {KiCad (6.0.5)} date Tue Feb  6 15:30:30 2024
; FORMAT={-:-/ absolute / inch / decimal}
; #@! TF.CreationDate,2024-02-06T15:30:30-06:00
; #@! TF.GenerationSoftware,Kicad,Pcbnew,(6.0.5)
; #@! TF.FileFunction,Plated,1,2,PTH
FMAT,2
INCH
; #@! TA.AperFunction,Plated,PTH,ViaDrill
T1C0.0157
; #@! TA.AperFunction,Plated,PTH,ComponentDrill
T2C0.0157
; #@! TA.AperFunction,Plated,PTH,ComponentDrill
T3C0.0236
; #@! TA.AperFunction,Plated,PTH,ComponentDrill
T4C0.0394
; #@! TA.AperFunction,Plated,PTH,ComponentDrill
T5C0.0433
; #@! TA.AperFunction,Plated,PTH,ComponentDrill
T6C0.0630
%
G90
G05
T1
X6.7Y-2.7
X6.8Y-2.5
T2
X6.0829Y-2.0415
X6.0829Y-2.0947
X6.1163Y-2.0415
X6.1163Y-2.0947
X6.1498Y-2.0415
X6.1498Y-2.0947
X6.1833Y-2.0415
X6.1833Y-2.0947
X6.2167Y-2.0415
X6.2167Y-2.0947
X6.2502Y-2.0415
X6.2502Y-2.0947
X6.2837Y-2.0415
X6.2837Y-2.0947
X6.3171Y-2.0415
X6.3171Y-2.0947
T4
X5.5Y-2.1
X5.5Y-2.2
X5.5Y-2.3
X5.5Y-2.4
X5.5Y-2.5
X5.5Y-2.6
X5.7Y-2.1
X5.7Y-2.2
X5.7Y-2.3
X5.7Y-2.4
X5.7Y-2.5
X5.8Y-2.1
X5.8Y-2.2
X5.8Y-2.3
X5.8Y-2.4
X5.8Y-2.5
X7.0Y-2.0
X7.0Y-2.1
X7.0Y-2.2
T5
X5.472Y-2.8
X5.472Y-2.9772
X5.728Y-2.8
X5.728Y-2.9772
T6
X5.9Y-2.9
T3
G00X6.0297Y-2.0506
M15
G01X6.0297Y-2.1096
M16
G05
G00X6.0297Y-2.1974
M15
G01X6.0297Y-2.2289
M16
G05
G00X6.3703Y-2.0506
M15
G01X6.3703Y-2.1096
M16
G05
G00X6.3703Y-2.1974
M15
G01X6.3703Y-2.2289
M16
G05
T0
M30
