%TF.GenerationSoftware,KiCad,Pcbnew,(6.0.5)*%
%TF.CreationDate,2024-02-02T14:17:11-06:00*%
%TF.ProjectId,exercise4_vbn3_ryfu2,65786572-6369-4736-9534-5f76626e335f,rev?*%
%TF.SameCoordinates,Original*%
%TF.FileFunction,Copper,L1,Top*%
%TF.FilePolarity,Positive*%
%FSLAX46Y46*%
G04 Gerber Fmt 4.6, Leading zero omitted, Abs format (unit mm)*
G04 Created by KiCad (PCBNEW (6.0.5)) date 2024-02-02 14:17:11*
%MOMM*%
%LPD*%
G01*
G04 APERTURE LIST*
G04 Aperture macros list*
%AMRoundRect*
0 Rectangle with rounded corners*
0 $1 Rounding radius*
0 $2 $3 $4 $5 $6 $7 $8 $9 X,Y pos of 4 corners*
0 Add a 4 corners polygon primitive as box body*
4,1,4,$2,$3,$4,$5,$6,$7,$8,$9,$2,$3,0*
0 Add four circle primitives for the rounded corners*
1,1,$1+$1,$2,$3*
1,1,$1+$1,$4,$5*
1,1,$1+$1,$6,$7*
1,1,$1+$1,$8,$9*
0 Add four rect primitives between the rounded corners*
20,1,$1+$1,$2,$3,$4,$5,0*
20,1,$1+$1,$4,$5,$6,$7,0*
20,1,$1+$1,$6,$7,$8,$9,0*
20,1,$1+$1,$8,$9,$2,$3,0*%
G04 Aperture macros list end*
%TA.AperFunction,ComponentPad*%
%ADD10C,0.700000*%
%TD*%
%TA.AperFunction,ComponentPad*%
%ADD11O,0.900000X1.700000*%
%TD*%
%TA.AperFunction,ComponentPad*%
%ADD12O,0.900000X2.400000*%
%TD*%
%TA.AperFunction,SMDPad,CuDef*%
%ADD13RoundRect,0.250000X-0.350000X-0.450000X0.350000X-0.450000X0.350000X0.450000X-0.350000X0.450000X0*%
%TD*%
%TA.AperFunction,ComponentPad*%
%ADD14R,1.700000X1.700000*%
%TD*%
%TA.AperFunction,ComponentPad*%
%ADD15O,1.700000X1.700000*%
%TD*%
%TA.AperFunction,SMDPad,CuDef*%
%ADD16RoundRect,0.125000X-0.625000X-0.125000X0.625000X-0.125000X0.625000X0.125000X-0.625000X0.125000X0*%
%TD*%
%TA.AperFunction,SMDPad,CuDef*%
%ADD17RoundRect,0.125000X-0.125000X-0.625000X0.125000X-0.625000X0.125000X0.625000X-0.125000X0.625000X0*%
%TD*%
%TA.AperFunction,SMDPad,CuDef*%
%ADD18R,2.000000X1.500000*%
%TD*%
%TA.AperFunction,SMDPad,CuDef*%
%ADD19R,2.000000X3.800000*%
%TD*%
%TA.AperFunction,ComponentPad*%
%ADD20C,2.800000*%
%TD*%
%TA.AperFunction,ComponentPad*%
%ADD21C,2.000000*%
%TD*%
%TA.AperFunction,SMDPad,CuDef*%
%ADD22RoundRect,0.250000X-0.325000X-0.450000X0.325000X-0.450000X0.325000X0.450000X-0.325000X0.450000X0*%
%TD*%
%TA.AperFunction,SMDPad,CuDef*%
%ADD23RoundRect,0.250000X-0.337500X-0.475000X0.337500X-0.475000X0.337500X0.475000X-0.337500X0.475000X0*%
%TD*%
%TA.AperFunction,Conductor*%
%ADD24C,0.250000*%
%TD*%
%TA.AperFunction,Conductor*%
%ADD25C,0.200000*%
%TD*%
G04 APERTURE END LIST*
D10*
%TO.P,J1,A1,GND*%
%TO.N,GND*%
X154505000Y-51855000D03*
%TO.P,J1,A4,VBUS*%
%TO.N,+5V*%
X155355000Y-51855000D03*
%TO.P,J1,A5,CC1*%
%TO.N,Net-(J1-PadA5)*%
X156205000Y-51855000D03*
%TO.P,J1,A6,D+*%
%TO.N,unconnected-(J1-PadA6)*%
X157055000Y-51855000D03*
%TO.P,J1,A7,D-*%
%TO.N,unconnected-(J1-PadA7)*%
X157905000Y-51855000D03*
%TO.P,J1,A8,SBU1*%
%TO.N,unconnected-(J1-PadA8)*%
X158755000Y-51855000D03*
%TO.P,J1,A9,VBUS*%
%TO.N,+5V*%
X159605000Y-51855000D03*
%TO.P,J1,A12,GND*%
%TO.N,GND*%
X160455000Y-51855000D03*
%TO.P,J1,B1,GND*%
X160455000Y-53205000D03*
%TO.P,J1,B4,VBUS*%
%TO.N,+5V*%
X159605000Y-53205000D03*
%TO.P,J1,B5,CC2*%
%TO.N,Net-(J1-PadB5)*%
X158755000Y-53205000D03*
%TO.P,J1,B6,D+*%
%TO.N,unconnected-(J1-PadB6)*%
X157905000Y-53205000D03*
%TO.P,J1,B7,D-*%
%TO.N,unconnected-(J1-PadB7)*%
X157055000Y-53205000D03*
%TO.P,J1,B8,SBU2*%
%TO.N,unconnected-(J1-PadB8)*%
X156205000Y-53205000D03*
%TO.P,J1,B9,VBUS*%
%TO.N,+5V*%
X155355000Y-53205000D03*
%TO.P,J1,B12,GND*%
%TO.N,GND*%
X154505000Y-53205000D03*
D11*
%TO.P,J1,S1,SHIELD*%
X161805000Y-56215000D03*
X153155000Y-56215000D03*
D12*
X161805000Y-52835000D03*
X153155000Y-52835000D03*
%TD*%
D13*
%TO.P,R5,1*%
%TO.N,Net-(J1-PadB5)*%
X159020000Y-48260000D03*
%TO.P,R5,2*%
%TO.N,GND*%
X161020000Y-48260000D03*
%TD*%
%TO.P,R4,1*%
%TO.N,Net-(J1-PadA5)*%
X153940000Y-48260000D03*
%TO.P,R4,2*%
%TO.N,GND*%
X155940000Y-48260000D03*
%TD*%
D14*
%TO.P,J4,1,Pin_1*%
%TO.N,GND*%
X139700000Y-53340000D03*
D15*
%TO.P,J4,2,Pin_2*%
%TO.N,/CTS*%
X139700000Y-55880000D03*
%TO.P,J4,3,Pin_3*%
%TO.N,unconnected-(J4-Pad3)*%
X139700000Y-58420000D03*
%TO.P,J4,4,Pin_4*%
%TO.N,/TX*%
X139700000Y-60960000D03*
%TO.P,J4,5,Pin_5*%
%TO.N,/RX*%
X139700000Y-63500000D03*
%TO.P,J4,6,Pin_6*%
%TO.N,/DTR*%
X139700000Y-66040000D03*
%TD*%
D14*
%TO.P,J3,1,Pin_1*%
%TO.N,/SCK*%
X177800000Y-50800000D03*
D15*
%TO.P,J3,2,Pin_2*%
%TO.N,/SDA*%
X177800000Y-53340000D03*
%TO.P,J3,3,Pin_3*%
%TO.N,GND*%
X177800000Y-55880000D03*
%TD*%
D14*
%TO.P,J2,1,Pin_1*%
%TO.N,/RST*%
X144780000Y-53340000D03*
D15*
%TO.P,J2,2,Pin_2*%
%TO.N,/SWCLK*%
X147320000Y-53340000D03*
%TO.P,J2,3,Pin_3*%
%TO.N,/SWIM*%
X144780000Y-55880000D03*
%TO.P,J2,4,Pin_4*%
%TO.N,/SWDIO*%
X147320000Y-55880000D03*
%TO.P,J2,5,Pin_5*%
%TO.N,GND*%
X144780000Y-58420000D03*
%TO.P,J2,6,Pin_6*%
X147320000Y-58420000D03*
%TO.P,J2,7,Pin_7*%
%TO.N,unconnected-(J2-Pad7)*%
X144780000Y-60960000D03*
%TO.P,J2,8,Pin_8*%
%TO.N,unconnected-(J2-Pad8)*%
X147320000Y-60960000D03*
%TO.P,J2,9,Pin_9*%
%TO.N,unconnected-(J2-Pad9)*%
X144780000Y-63500000D03*
%TO.P,J2,10,Pin_10*%
%TO.N,unconnected-(J2-Pad10)*%
X147320000Y-63500000D03*
%TD*%
D16*
%TO.P,U2,1,VDD*%
%TO.N,+3V3*%
X152165000Y-65390000D03*
%TO.P,U2,2,PC14*%
%TO.N,unconnected-(U2-Pad2)*%
X152165000Y-66190000D03*
%TO.P,U2,3,PC15*%
%TO.N,unconnected-(U2-Pad3)*%
X152165000Y-66990000D03*
%TO.P,U2,4,NRST*%
%TO.N,Net-(R3-Pad2)*%
X152165000Y-67790000D03*
%TO.P,U2,5,VDDA*%
%TO.N,+3V3*%
X152165000Y-68590000D03*
%TO.P,U2,6,PA0*%
%TO.N,Net-(U2-Pad6)*%
X152165000Y-69390000D03*
%TO.P,U2,7,PA1*%
%TO.N,unconnected-(U2-Pad7)*%
X152165000Y-70190000D03*
%TO.P,U2,8,PA2*%
%TO.N,unconnected-(U2-Pad8)*%
X152165000Y-70990000D03*
D17*
%TO.P,U2,9,PA3*%
%TO.N,unconnected-(U2-Pad9)*%
X153540000Y-72365000D03*
%TO.P,U2,10,PA4*%
%TO.N,unconnected-(U2-Pad10)*%
X154340000Y-72365000D03*
%TO.P,U2,11,PA5*%
%TO.N,unconnected-(U2-Pad11)*%
X155140000Y-72365000D03*
%TO.P,U2,12,PA6*%
%TO.N,unconnected-(U2-Pad12)*%
X155940000Y-72365000D03*
%TO.P,U2,13,PA7*%
%TO.N,unconnected-(U2-Pad13)*%
X156740000Y-72365000D03*
%TO.P,U2,14,PB0*%
%TO.N,Net-(R2-Pad1)*%
X157540000Y-72365000D03*
%TO.P,U2,15,PB1*%
%TO.N,unconnected-(U2-Pad15)*%
X158340000Y-72365000D03*
%TO.P,U2,16,VSS*%
%TO.N,GND*%
X159140000Y-72365000D03*
D16*
%TO.P,U2,17,VDD*%
%TO.N,+3V3*%
X160515000Y-70990000D03*
%TO.P,U2,18,PA8*%
%TO.N,unconnected-(U2-Pad18)*%
X160515000Y-70190000D03*
%TO.P,U2,19,PA9*%
%TO.N,unconnected-(U2-Pad19)*%
X160515000Y-69390000D03*
%TO.P,U2,20,PA10*%
%TO.N,unconnected-(U2-Pad20)*%
X160515000Y-68590000D03*
%TO.P,U2,21,PA11*%
%TO.N,unconnected-(U2-Pad21)*%
X160515000Y-67790000D03*
%TO.P,U2,22,PA12*%
%TO.N,unconnected-(U2-Pad22)*%
X160515000Y-66990000D03*
%TO.P,U2,23,PA13*%
%TO.N,/SWDIO*%
X160515000Y-66190000D03*
%TO.P,U2,24,PA14*%
%TO.N,/SWCLK*%
X160515000Y-65390000D03*
D17*
%TO.P,U2,25,PA15*%
%TO.N,unconnected-(U2-Pad25)*%
X159140000Y-64015000D03*
%TO.P,U2,26,PB3*%
%TO.N,unconnected-(U2-Pad26)*%
X158340000Y-64015000D03*
%TO.P,U2,27,PB4*%
%TO.N,unconnected-(U2-Pad27)*%
X157540000Y-64015000D03*
%TO.P,U2,28,PB5*%
%TO.N,unconnected-(U2-Pad28)*%
X156740000Y-64015000D03*
%TO.P,U2,29,PB6*%
%TO.N,unconnected-(U2-Pad29)*%
X155940000Y-64015000D03*
%TO.P,U2,30,PB7*%
%TO.N,unconnected-(U2-Pad30)*%
X155140000Y-64015000D03*
%TO.P,U2,31,BOOT0*%
%TO.N,GND*%
X154340000Y-64015000D03*
%TO.P,U2,32,VSS*%
X153540000Y-64015000D03*
%TD*%
D18*
%TO.P,U1,1,VI*%
%TO.N,+5V*%
X167030000Y-51040000D03*
D19*
%TO.P,U1,2,GND*%
%TO.N,GND*%
X173330000Y-53340000D03*
D18*
X167030000Y-53340000D03*
%TO.P,U1,3,VO*%
%TO.N,+3V3*%
X167030000Y-55640000D03*
%TD*%
D20*
%TO.P,TP1,1,1*%
%TO.N,Net-(U2-Pad6)*%
X149860000Y-73660000D03*
%TD*%
D21*
%TO.P,SW1,1,1*%
%TO.N,GND*%
X145490000Y-71120000D03*
X138990000Y-71120000D03*
%TO.P,SW1,2,2*%
%TO.N,Net-(R3-Pad2)*%
X138990000Y-75620000D03*
X145490000Y-75620000D03*
%TD*%
D13*
%TO.P,R3,2*%
%TO.N,Net-(R3-Pad2)*%
X171180000Y-76200000D03*
%TO.P,R3,1*%
%TO.N,+3V3*%
X169180000Y-76200000D03*
%TD*%
%TO.P,R2,1*%
%TO.N,Net-(R2-Pad1)*%
X155480000Y-76200000D03*
%TO.P,R2,2*%
%TO.N,Net-(R2-Pad2)*%
X157480000Y-76200000D03*
%TD*%
%TO.P,R1,1*%
%TO.N,Net-(D1-Pad1)*%
X180880000Y-60960000D03*
%TO.P,R1,2*%
%TO.N,GND*%
X182880000Y-60960000D03*
%TD*%
D22*
%TO.P,D2,1,K*%
%TO.N,GND*%
X163050000Y-73660000D03*
%TO.P,D2,2,A*%
%TO.N,Net-(R2-Pad2)*%
X165100000Y-73660000D03*
%TD*%
%TO.P,D1,1,K*%
%TO.N,Net-(D1-Pad1)*%
X181855000Y-55880000D03*
%TO.P,D1,2,A*%
%TO.N,+3V3*%
X183905000Y-55880000D03*
%TD*%
D23*
%TO.P,C5,1*%
%TO.N,+3V3*%
X181842500Y-50800000D03*
%TO.P,C5,2*%
%TO.N,GND*%
X183917500Y-50800000D03*
%TD*%
%TO.P,C4,1*%
%TO.N,+5V*%
X148822500Y-48260000D03*
%TO.P,C4,2*%
%TO.N,GND*%
X150897500Y-48260000D03*
%TD*%
%TO.P,C3,1*%
%TO.N,+3V3*%
X169142500Y-60960000D03*
%TO.P,C3,2*%
%TO.N,GND*%
X171217500Y-60960000D03*
%TD*%
%TO.P,C2,1*%
%TO.N,GND*%
X181842500Y-66040000D03*
%TO.P,C2,2*%
%TO.N,+3V3*%
X183917500Y-66040000D03*
%TD*%
%TO.P,C1,1*%
%TO.N,GND*%
X164062500Y-66040000D03*
%TO.P,C1,2*%
%TO.N,+3V3*%
X166137500Y-66040000D03*
%TD*%
D24*
%TO.N,GND*%
X166100000Y-53340000D02*
X167030000Y-53340000D01*
X161435000Y-53205000D02*
X161805000Y-52835000D01*
X160455000Y-53205000D02*
X161435000Y-53205000D01*
X153525000Y-53205000D02*
X153155000Y-52835000D01*
X154505000Y-53205000D02*
X153525000Y-53205000D01*
%TO.N,+3V3*%
X169180000Y-76152507D02*
X164147493Y-71120000D01*
X164147493Y-71120000D02*
X164100000Y-71120000D01*
X169180000Y-76200000D02*
X169180000Y-76152507D01*
%TO.N,Net-(R3-Pad2)*%
X170155480Y-77224520D02*
X171180000Y-76200000D01*
X168592027Y-77224520D02*
X170155480Y-77224520D01*
X167640000Y-76272493D02*
X168592027Y-77224520D01*
X163195717Y-76200000D02*
X167640000Y-76200000D01*
X150344520Y-77224520D02*
X162171197Y-77224520D01*
X167640000Y-76200000D02*
X167640000Y-76272493D01*
X148740000Y-75620000D02*
X150344520Y-77224520D01*
X162171197Y-77224520D02*
X163195717Y-76200000D01*
X145490000Y-75620000D02*
X148740000Y-75620000D01*
%TO.N,Net-(R2-Pad2)*%
X162560000Y-76200000D02*
X157480000Y-76200000D01*
X165100000Y-73660000D02*
X162560000Y-76200000D01*
%TO.N,GND*%
X160435000Y-73660000D02*
X159140000Y-72365000D01*
X163050000Y-73660000D02*
X160435000Y-73660000D01*
%TO.N,Net-(R3-Pad2)*%
X145490000Y-75620000D02*
X138990000Y-75620000D01*
X146820000Y-74290000D02*
X146820000Y-67790000D01*
X145490000Y-75620000D02*
X146820000Y-74290000D01*
%TO.N,GND*%
X145490000Y-71120000D02*
X138990000Y-71120000D01*
%TO.N,Net-(R2-Pad1)*%
X155480000Y-75010717D02*
X155480000Y-76200000D01*
X157540000Y-72950717D02*
X155480000Y-75010717D01*
X157540000Y-72365000D02*
X157540000Y-72950717D01*
X157480000Y-72425000D02*
X157540000Y-72365000D01*
D25*
%TO.N,+5V*%
X159605000Y-52710026D02*
X159425463Y-52530489D01*
D24*
%TO.N,Net-(R3-Pad2)*%
X146820000Y-67790000D02*
X152165000Y-67790000D01*
%TO.N,Net-(U2-Pad6)*%
X151579283Y-69390000D02*
X152165000Y-69390000D01*
X149860000Y-71109283D02*
X151579283Y-69390000D01*
X149860000Y-73660000D02*
X149860000Y-71109283D01*
%TO.N,+3V3*%
X185420000Y-64537500D02*
X183917500Y-66040000D01*
X185420000Y-55880000D02*
X185420000Y-64537500D01*
X183905000Y-55880000D02*
X185420000Y-55880000D01*
X152750717Y-68590000D02*
X152165000Y-68590000D01*
X153239520Y-68101197D02*
X152750717Y-68590000D01*
X153239520Y-65878803D02*
X153239520Y-68101197D01*
X152750717Y-65390000D02*
X153239520Y-65878803D01*
X152165000Y-65390000D02*
X152750717Y-65390000D01*
X152764022Y-65390000D02*
X152165000Y-65390000D01*
X158364022Y-70990000D02*
X152764022Y-65390000D01*
X160515000Y-70990000D02*
X158364022Y-70990000D01*
X160645000Y-71120000D02*
X160515000Y-70990000D01*
X164100000Y-71120000D02*
X160645000Y-71120000D01*
%TO.N,/SWDIO*%
X145954511Y-54514511D02*
X147320000Y-55880000D01*
X145954511Y-53044479D02*
X145954511Y-54514511D01*
X146833501Y-52165489D02*
X145954511Y-53044479D01*
X147806499Y-52165489D02*
X146833501Y-52165489D01*
X148494511Y-52853501D02*
X147806499Y-52165489D01*
X148494511Y-53878793D02*
X148494511Y-52853501D01*
X152586198Y-57970480D02*
X148494511Y-53878793D01*
X155116914Y-57970480D02*
X152586198Y-57970480D01*
X161589520Y-64443086D02*
X155116914Y-57970480D01*
X161589520Y-65701197D02*
X161589520Y-64443086D01*
X161100717Y-66190000D02*
X161589520Y-65701197D01*
X160515000Y-66190000D02*
X161100717Y-66190000D01*
%TO.N,/SWCLK*%
X154930717Y-58420000D02*
X152400000Y-58420000D01*
X160515000Y-64004283D02*
X154930717Y-58420000D01*
X160515000Y-65390000D02*
X160515000Y-64004283D01*
X152400000Y-58420000D02*
X147320000Y-53340000D01*
%TO.N,+3V3*%
X166137500Y-66040000D02*
X164100000Y-68077500D01*
X164100000Y-68077500D02*
X164100000Y-71120000D01*
X166137500Y-63965000D02*
X166137500Y-66040000D01*
X169142500Y-60960000D02*
X166137500Y-63965000D01*
X167030000Y-58847500D02*
X167030000Y-55640000D01*
X169142500Y-60960000D02*
X167030000Y-58847500D01*
%TO.N,Net-(D1-Pad1)*%
X180880000Y-56855000D02*
X180880000Y-60960000D01*
X181855000Y-55880000D02*
X180880000Y-56855000D01*
%TO.N,+3V3*%
X183905000Y-52862500D02*
X183905000Y-55880000D01*
X181842500Y-50800000D02*
X183905000Y-52862500D01*
D25*
%TO.N,+5V*%
X155355000Y-51360026D02*
X155355000Y-51855000D01*
X155175463Y-51180489D02*
X155355000Y-51360026D01*
X151742989Y-51180489D02*
X155175463Y-51180489D01*
X148822500Y-48260000D02*
X151742989Y-51180489D01*
D24*
X155355000Y-53029511D02*
X155355000Y-53205000D01*
D25*
X159425463Y-52530489D02*
X155854022Y-52530489D01*
X155854022Y-52530489D02*
X155355000Y-53029511D01*
D24*
X163225480Y-47235480D02*
X167030000Y-51040000D01*
X158432027Y-47235480D02*
X163225480Y-47235480D01*
X158095480Y-47572027D02*
X158432027Y-47235480D01*
X159605000Y-51751096D02*
X158095480Y-50241576D01*
X158095480Y-50241576D02*
X158095480Y-47572027D01*
%TO.N,Net-(J1-PadB5)*%
X162579520Y-53905816D02*
X162125816Y-54359520D01*
X162579520Y-50819520D02*
X162579520Y-53905816D01*
X158755000Y-53699974D02*
X158755000Y-53205000D01*
X161044520Y-49284520D02*
X162579520Y-50819520D01*
X160044520Y-49284520D02*
X161044520Y-49284520D01*
X162125816Y-54359520D02*
X159414546Y-54359520D01*
X159414546Y-54359520D02*
X158755000Y-53699974D01*
X159020000Y-48260000D02*
X160044520Y-49284520D01*
%TO.N,Net-(J1-PadA5)*%
X153940000Y-48260000D02*
X156205000Y-50525000D01*
X156205000Y-50525000D02*
X156205000Y-51855000D01*
D25*
%TO.N,+5V*%
X159605000Y-51855000D02*
X159605000Y-53205000D01*
X155355000Y-51855000D02*
X155355000Y-53205000D01*
D24*
%TO.N,+3V3*%
X175160978Y-51115489D02*
X171554511Y-51115489D01*
X171554511Y-51115489D02*
X167030000Y-55640000D01*
X176020000Y-51974511D02*
X175160978Y-51115489D01*
X180667989Y-51974511D02*
X176020000Y-51974511D01*
X181842500Y-50800000D02*
X180667989Y-51974511D01*
%TD*%
%TA.AperFunction,Conductor*%
%TO.N,GND*%
G36*
X187393621Y-46248502D02*
G01*
X187440114Y-46302158D01*
X187451500Y-46354500D01*
X187451500Y-78105500D01*
X187431498Y-78173621D01*
X187377842Y-78220114D01*
X187325500Y-78231500D01*
X132714500Y-78231500D01*
X132646379Y-78211498D01*
X132599886Y-78157842D01*
X132588500Y-78105500D01*
X132588500Y-75620000D01*
X137476835Y-75620000D01*
X137495465Y-75856711D01*
X137550895Y-76087594D01*
X137552788Y-76092165D01*
X137552789Y-76092167D01*
X137624807Y-76266034D01*
X137641760Y-76306963D01*
X137644346Y-76311183D01*
X137763241Y-76505202D01*
X137763245Y-76505208D01*
X137765824Y-76509416D01*
X137920031Y-76689969D01*
X138100584Y-76844176D01*
X138104792Y-76846755D01*
X138104798Y-76846759D01*
X138298817Y-76965654D01*
X138303037Y-76968240D01*
X138307607Y-76970133D01*
X138307611Y-76970135D01*
X138517833Y-77057211D01*
X138522406Y-77059105D01*
X138602609Y-77078360D01*
X138748476Y-77113380D01*
X138748482Y-77113381D01*
X138753289Y-77114535D01*
X138990000Y-77133165D01*
X139226711Y-77114535D01*
X139231518Y-77113381D01*
X139231524Y-77113380D01*
X139377391Y-77078360D01*
X139457594Y-77059105D01*
X139462167Y-77057211D01*
X139672389Y-76970135D01*
X139672393Y-76970133D01*
X139676963Y-76968240D01*
X139681183Y-76965654D01*
X139875202Y-76846759D01*
X139875208Y-76846755D01*
X139879416Y-76844176D01*
X140059969Y-76689969D01*
X140214176Y-76509416D01*
X140216755Y-76505208D01*
X140216759Y-76505202D01*
X140334133Y-76313665D01*
X140386781Y-76266034D01*
X140441566Y-76253500D01*
X144038434Y-76253500D01*
X144106555Y-76273502D01*
X144145867Y-76313665D01*
X144263241Y-76505202D01*
X144263245Y-76505208D01*
X144265824Y-76509416D01*
X144420031Y-76689969D01*
X144600584Y-76844176D01*
X144604792Y-76846755D01*
X144604798Y-76846759D01*
X144798817Y-76965654D01*
X144803037Y-76968240D01*
X144807607Y-76970133D01*
X144807611Y-76970135D01*
X145017833Y-77057211D01*
X145022406Y-77059105D01*
X145102609Y-77078360D01*
X145248476Y-77113380D01*
X145248482Y-77113381D01*
X145253289Y-77114535D01*
X145490000Y-77133165D01*
X145726711Y-77114535D01*
X145731518Y-77113381D01*
X145731524Y-77113380D01*
X145877391Y-77078360D01*
X145957594Y-77059105D01*
X145962167Y-77057211D01*
X146172389Y-76970135D01*
X146172393Y-76970133D01*
X146176963Y-76968240D01*
X146181183Y-76965654D01*
X146375202Y-76846759D01*
X146375208Y-76846755D01*
X146379416Y-76844176D01*
X146559969Y-76689969D01*
X146714176Y-76509416D01*
X146716755Y-76505208D01*
X146716759Y-76505202D01*
X146834133Y-76313665D01*
X146886781Y-76266034D01*
X146941566Y-76253500D01*
X148425406Y-76253500D01*
X148493527Y-76273502D01*
X148514501Y-76290405D01*
X149840868Y-77616773D01*
X149848408Y-77625059D01*
X149852520Y-77631538D01*
X149858297Y-77636963D01*
X149902171Y-77678163D01*
X149905013Y-77680918D01*
X149924750Y-77700655D01*
X149927947Y-77703135D01*
X149936967Y-77710838D01*
X149969199Y-77741106D01*
X149976145Y-77744925D01*
X149976148Y-77744927D01*
X149986954Y-77750868D01*
X150003473Y-77761719D01*
X150019479Y-77774134D01*
X150026748Y-77777279D01*
X150026752Y-77777282D01*
X150060057Y-77791694D01*
X150070706Y-77796910D01*
X150109460Y-77818215D01*
X150117135Y-77820186D01*
X150117136Y-77820186D01*
X150129082Y-77823253D01*
X150147786Y-77829657D01*
X150147789Y-77829658D01*
X150166375Y-77837701D01*
X150174198Y-77838940D01*
X150174208Y-77838943D01*
X150210044Y-77844619D01*
X150221664Y-77847025D01*
X150253479Y-77855193D01*
X150264490Y-77858020D01*
X150284744Y-77858020D01*
X150304454Y-77859571D01*
X150324463Y-77862740D01*
X150332355Y-77861994D01*
X150351100Y-77860222D01*
X150368482Y-77858579D01*
X150380339Y-77858020D01*
X162092430Y-77858020D01*
X162103613Y-77858547D01*
X162111106Y-77860222D01*
X162119032Y-77859973D01*
X162119033Y-77859973D01*
X162179183Y-77858082D01*
X162183142Y-77858020D01*
X162211053Y-77858020D01*
X162214988Y-77857523D01*
X162215053Y-77857515D01*
X162226890Y-77856582D01*
X162259148Y-77855568D01*
X162263167Y-77855442D01*
X162271086Y-77855193D01*
X162290540Y-77849541D01*
X162309897Y-77845533D01*
X162322127Y-77843988D01*
X162322128Y-77843988D01*
X162329994Y-77842994D01*
X162337365Y-77840075D01*
X162337367Y-77840075D01*
X162371109Y-77826716D01*
X162382339Y-77822871D01*
X162417180Y-77812749D01*
X162417181Y-77812749D01*
X162424790Y-77810538D01*
X162431609Y-77806505D01*
X162431614Y-77806503D01*
X162442225Y-77800227D01*
X162459973Y-77791532D01*
X162478814Y-77784072D01*
X162499184Y-77769273D01*
X162514584Y-77758084D01*
X162524504Y-77751568D01*
X162555732Y-77733100D01*
X162555735Y-77733098D01*
X162562559Y-77729062D01*
X162576880Y-77714741D01*
X162591914Y-77701900D01*
X162593629Y-77700654D01*
X162608304Y-77689992D01*
X162613354Y-77683888D01*
X162613359Y-77683883D01*
X162636490Y-77655922D01*
X162644480Y-77647141D01*
X163421218Y-76870404D01*
X163483530Y-76836379D01*
X163510313Y-76833500D01*
X167252913Y-76833500D01*
X167321034Y-76853502D01*
X167342008Y-76870405D01*
X168088370Y-77616767D01*
X168095914Y-77625057D01*
X168100027Y-77631538D01*
X168105804Y-77636963D01*
X168149694Y-77678178D01*
X168152521Y-77680918D01*
X168172257Y-77700654D01*
X168175447Y-77703128D01*
X168184474Y-77710838D01*
X168216706Y-77741106D01*
X168227885Y-77747252D01*
X168234459Y-77750866D01*
X168250983Y-77761719D01*
X168266986Y-77774133D01*
X168307566Y-77791694D01*
X168318200Y-77796903D01*
X168356967Y-77818215D01*
X168364644Y-77820186D01*
X168364649Y-77820188D01*
X168376585Y-77823252D01*
X168395293Y-77829657D01*
X168413882Y-77837701D01*
X168421707Y-77838940D01*
X168421709Y-77838941D01*
X168457546Y-77844617D01*
X168469167Y-77847024D01*
X168500986Y-77855193D01*
X168511997Y-77858020D01*
X168532258Y-77858020D01*
X168551967Y-77859571D01*
X168571970Y-77862739D01*
X168579862Y-77861993D01*
X168585089Y-77861499D01*
X168615981Y-77858579D01*
X168627838Y-77858020D01*
X170076713Y-77858020D01*
X170087896Y-77858547D01*
X170095389Y-77860222D01*
X170103315Y-77859973D01*
X170103316Y-77859973D01*
X170163466Y-77858082D01*
X170167425Y-77858020D01*
X170195336Y-77858020D01*
X170199271Y-77857523D01*
X170199336Y-77857515D01*
X170211173Y-77856582D01*
X170243431Y-77855568D01*
X170247450Y-77855442D01*
X170255369Y-77855193D01*
X170274823Y-77849541D01*
X170294180Y-77845533D01*
X170306410Y-77843988D01*
X170306411Y-77843988D01*
X170314277Y-77842994D01*
X170321648Y-77840075D01*
X170321650Y-77840075D01*
X170355392Y-77826716D01*
X170366622Y-77822871D01*
X170401463Y-77812749D01*
X170401464Y-77812749D01*
X170409073Y-77810538D01*
X170415892Y-77806505D01*
X170415897Y-77806503D01*
X170426508Y-77800227D01*
X170444256Y-77791532D01*
X170463097Y-77784072D01*
X170483467Y-77769273D01*
X170498867Y-77758084D01*
X170508787Y-77751568D01*
X170540015Y-77733100D01*
X170540018Y-77733098D01*
X170546842Y-77729062D01*
X170561163Y-77714741D01*
X170576197Y-77701900D01*
X170577912Y-77700654D01*
X170592587Y-77689992D01*
X170620778Y-77655915D01*
X170628768Y-77647136D01*
X170830499Y-77445405D01*
X170892811Y-77411379D01*
X170919594Y-77408500D01*
X171580400Y-77408500D01*
X171583646Y-77408163D01*
X171583650Y-77408163D01*
X171679308Y-77398238D01*
X171679312Y-77398237D01*
X171686166Y-77397526D01*
X171692702Y-77395345D01*
X171692704Y-77395345D01*
X171846998Y-77343868D01*
X171853946Y-77341550D01*
X172004348Y-77248478D01*
X172129305Y-77123303D01*
X172135422Y-77113380D01*
X172218275Y-76978968D01*
X172218276Y-76978966D01*
X172222115Y-76972738D01*
X172256057Y-76870405D01*
X172275632Y-76811389D01*
X172275632Y-76811387D01*
X172277797Y-76804861D01*
X172288500Y-76700400D01*
X172288500Y-75699600D01*
X172283401Y-75650456D01*
X172278238Y-75600692D01*
X172278237Y-75600688D01*
X172277526Y-75593834D01*
X172261809Y-75546723D01*
X172223868Y-75433002D01*
X172221550Y-75426054D01*
X172128478Y-75275652D01*
X172003303Y-75150695D01*
X171997072Y-75146854D01*
X171858968Y-75061725D01*
X171858966Y-75061724D01*
X171852738Y-75057885D01*
X171762224Y-75027863D01*
X171691389Y-75004368D01*
X171691387Y-75004368D01*
X171684861Y-75002203D01*
X171678025Y-75001503D01*
X171678022Y-75001502D01*
X171634969Y-74997091D01*
X171580400Y-74991500D01*
X170779600Y-74991500D01*
X170776354Y-74991837D01*
X170776350Y-74991837D01*
X170680692Y-75001762D01*
X170680688Y-75001763D01*
X170673834Y-75002474D01*
X170667298Y-75004655D01*
X170667296Y-75004655D01*
X170597734Y-75027863D01*
X170506054Y-75058450D01*
X170355652Y-75151522D01*
X170350479Y-75156704D01*
X170269216Y-75238109D01*
X170206934Y-75272188D01*
X170136114Y-75267185D01*
X170091025Y-75238264D01*
X170008483Y-75155866D01*
X170003303Y-75150695D01*
X169997072Y-75146854D01*
X169858968Y-75061725D01*
X169858966Y-75061724D01*
X169852738Y-75057885D01*
X169762224Y-75027863D01*
X169691389Y-75004368D01*
X169691387Y-75004368D01*
X169684861Y-75002203D01*
X169678025Y-75001503D01*
X169678022Y-75001502D01*
X169634969Y-74997091D01*
X169580400Y-74991500D01*
X168967087Y-74991500D01*
X168898966Y-74971498D01*
X168877992Y-74954595D01*
X164770405Y-70847007D01*
X164736379Y-70784695D01*
X164733500Y-70757912D01*
X164733500Y-68392094D01*
X164753502Y-68323973D01*
X164770405Y-68302999D01*
X165762999Y-67310405D01*
X165825311Y-67276379D01*
X165852094Y-67273500D01*
X166525400Y-67273500D01*
X166528646Y-67273163D01*
X166528650Y-67273163D01*
X166624308Y-67263238D01*
X166624312Y-67263237D01*
X166631166Y-67262526D01*
X166637702Y-67260345D01*
X166637704Y-67260345D01*
X166773951Y-67214889D01*
X166798946Y-67206550D01*
X166949348Y-67113478D01*
X167074305Y-66988303D01*
X167104112Y-66939947D01*
X167163275Y-66843968D01*
X167163276Y-66843966D01*
X167167115Y-66837738D01*
X167222797Y-66669861D01*
X167224850Y-66649829D01*
X167228786Y-66611407D01*
X167233500Y-66565400D01*
X167233500Y-66562095D01*
X180747001Y-66562095D01*
X180747338Y-66568614D01*
X180757257Y-66664206D01*
X180760149Y-66677600D01*
X180811588Y-66831784D01*
X180817761Y-66844962D01*
X180903063Y-66982807D01*
X180912099Y-66994208D01*
X181026829Y-67108739D01*
X181038240Y-67117751D01*
X181176243Y-67202816D01*
X181189424Y-67208963D01*
X181343710Y-67260138D01*
X181357086Y-67263005D01*
X181451438Y-67272672D01*
X181457854Y-67273000D01*
X181570385Y-67273000D01*
X181585624Y-67268525D01*
X181586829Y-67267135D01*
X181588500Y-67259452D01*
X181588500Y-66312115D01*
X181584025Y-66296876D01*
X181582635Y-66295671D01*
X181574952Y-66294000D01*
X180765116Y-66294000D01*
X180749877Y-66298475D01*
X180748672Y-66299865D01*
X180747001Y-66307548D01*
X180747001Y-66562095D01*
X167233500Y-66562095D01*
X167233500Y-65767885D01*
X180747000Y-65767885D01*
X180751475Y-65783124D01*
X180752865Y-65784329D01*
X180760548Y-65786000D01*
X181570385Y-65786000D01*
X181585624Y-65781525D01*
X181586829Y-65780135D01*
X181588500Y-65772452D01*
X181588500Y-64825116D01*
X181584025Y-64809877D01*
X181582635Y-64808672D01*
X181574952Y-64807001D01*
X181457905Y-64807001D01*
X181451386Y-64807338D01*
X181355794Y-64817257D01*
X181342400Y-64820149D01*
X181188216Y-64871588D01*
X181175038Y-64877761D01*
X181037193Y-64963063D01*
X181025792Y-64972099D01*
X180911261Y-65086829D01*
X180902249Y-65098240D01*
X180817184Y-65236243D01*
X180811037Y-65249424D01*
X180759862Y-65403710D01*
X180756995Y-65417086D01*
X180747328Y-65511438D01*
X180747000Y-65517855D01*
X180747000Y-65767885D01*
X167233500Y-65767885D01*
X167233500Y-65514600D01*
X167233163Y-65511350D01*
X167223238Y-65415692D01*
X167223237Y-65415688D01*
X167222526Y-65408834D01*
X167219412Y-65399498D01*
X167168868Y-65248002D01*
X167166550Y-65241054D01*
X167073478Y-65090652D01*
X166948303Y-64965695D01*
X166830883Y-64893316D01*
X166783391Y-64840545D01*
X166771000Y-64786057D01*
X166771000Y-64279594D01*
X166791002Y-64211473D01*
X166807905Y-64190499D01*
X168768000Y-62230405D01*
X168830312Y-62196379D01*
X168857095Y-62193500D01*
X169530400Y-62193500D01*
X169533646Y-62193163D01*
X169533650Y-62193163D01*
X169629308Y-62183238D01*
X169629312Y-62183237D01*
X169636166Y-62182526D01*
X169642702Y-62180345D01*
X169642704Y-62180345D01*
X169796998Y-62128868D01*
X169803946Y-62126550D01*
X169954348Y-62033478D01*
X169975852Y-62011937D01*
X170074131Y-61913486D01*
X170079305Y-61908303D01*
X170082102Y-61903765D01*
X170139353Y-61863176D01*
X170210276Y-61859946D01*
X170271687Y-61895572D01*
X170279062Y-61904068D01*
X170287098Y-61914207D01*
X170401829Y-62028739D01*
X170413240Y-62037751D01*
X170551243Y-62122816D01*
X170564424Y-62128963D01*
X170718710Y-62180138D01*
X170732086Y-62183005D01*
X170826438Y-62192672D01*
X170832854Y-62193000D01*
X170945385Y-62193000D01*
X170960624Y-62188525D01*
X170961829Y-62187135D01*
X170963500Y-62179452D01*
X170963500Y-62174884D01*
X171471500Y-62174884D01*
X171475975Y-62190123D01*
X171477365Y-62191328D01*
X171485048Y-62192999D01*
X171602095Y-62192999D01*
X171608614Y-62192662D01*
X171704206Y-62182743D01*
X171717600Y-62179851D01*
X171871784Y-62128412D01*
X171884962Y-62122239D01*
X172022807Y-62036937D01*
X172034208Y-62027901D01*
X172148739Y-61913171D01*
X172157751Y-61901760D01*
X172242816Y-61763757D01*
X172248963Y-61750576D01*
X172300138Y-61596290D01*
X172303005Y-61582914D01*
X172312672Y-61488562D01*
X172313000Y-61482146D01*
X172313000Y-61232115D01*
X172308525Y-61216876D01*
X172307135Y-61215671D01*
X172299452Y-61214000D01*
X171489615Y-61214000D01*
X171474376Y-61218475D01*
X171473171Y-61219865D01*
X171471500Y-61227548D01*
X171471500Y-62174884D01*
X170963500Y-62174884D01*
X170963500Y-60687885D01*
X171471500Y-60687885D01*
X171475975Y-60703124D01*
X171477365Y-60704329D01*
X171485048Y-60706000D01*
X172294884Y-60706000D01*
X172310123Y-60701525D01*
X172311328Y-60700135D01*
X172312999Y-60692452D01*
X172312999Y-60437905D01*
X172312662Y-60431386D01*
X172302743Y-60335794D01*
X172299851Y-60322400D01*
X172248412Y-60168216D01*
X172242239Y-60155038D01*
X172156937Y-60017193D01*
X172147901Y-60005792D01*
X172033171Y-59891261D01*
X172021760Y-59882249D01*
X171883757Y-59797184D01*
X171870576Y-59791037D01*
X171716290Y-59739862D01*
X171702914Y-59736995D01*
X171608562Y-59727328D01*
X171602145Y-59727000D01*
X171489615Y-59727000D01*
X171474376Y-59731475D01*
X171473171Y-59732865D01*
X171471500Y-59740548D01*
X171471500Y-60687885D01*
X170963500Y-60687885D01*
X170963500Y-59745116D01*
X170959025Y-59729877D01*
X170957635Y-59728672D01*
X170949952Y-59727001D01*
X170832905Y-59727001D01*
X170826386Y-59727338D01*
X170730794Y-59737257D01*
X170717400Y-59740149D01*
X170563216Y-59791588D01*
X170550038Y-59797761D01*
X170412193Y-59883063D01*
X170400792Y-59892099D01*
X170286262Y-60006828D01*
X170279206Y-60015762D01*
X170221288Y-60056823D01*
X170150365Y-60060053D01*
X170088954Y-60024426D01*
X170082154Y-60016593D01*
X170078478Y-60010652D01*
X169953303Y-59885695D01*
X169863941Y-59830611D01*
X169808968Y-59796725D01*
X169808966Y-59796724D01*
X169802738Y-59792885D01*
X169709607Y-59761995D01*
X169641389Y-59739368D01*
X169641387Y-59739368D01*
X169634861Y-59737203D01*
X169628025Y-59736503D01*
X169628022Y-59736502D01*
X169584969Y-59732091D01*
X169530400Y-59726500D01*
X168857094Y-59726500D01*
X168788973Y-59706498D01*
X168767999Y-59689595D01*
X167700405Y-58622000D01*
X167666379Y-58559688D01*
X167663500Y-58532905D01*
X167663500Y-57024500D01*
X167683502Y-56956379D01*
X167737158Y-56909886D01*
X167789500Y-56898500D01*
X168078134Y-56898500D01*
X168140316Y-56891745D01*
X168276705Y-56840615D01*
X168393261Y-56753261D01*
X168480615Y-56636705D01*
X168531745Y-56500316D01*
X168538500Y-56438134D01*
X168538500Y-56147966D01*
X176468257Y-56147966D01*
X176498565Y-56282446D01*
X176501645Y-56292275D01*
X176581770Y-56489603D01*
X176586413Y-56498794D01*
X176697694Y-56680388D01*
X176703777Y-56688699D01*
X176843213Y-56849667D01*
X176850580Y-56856883D01*
X177014434Y-56992916D01*
X177022881Y-56998831D01*
X177206756Y-57106279D01*
X177216042Y-57110729D01*
X177415001Y-57186703D01*
X177424899Y-57189579D01*
X177528250Y-57210606D01*
X177542299Y-57209410D01*
X177546000Y-57199065D01*
X177546000Y-57198517D01*
X178054000Y-57198517D01*
X178058064Y-57212359D01*
X178071478Y-57214393D01*
X178078184Y-57213534D01*
X178088262Y-57211392D01*
X178292255Y-57150191D01*
X178301842Y-57146433D01*
X178493095Y-57052739D01*
X178501945Y-57047464D01*
X178675328Y-56923792D01*
X178683200Y-56917139D01*
X178834052Y-56766812D01*
X178840730Y-56758965D01*
X178965003Y-56586020D01*
X178970313Y-56577183D01*
X179064670Y-56386267D01*
X179068469Y-56376672D01*
X179130377Y-56172910D01*
X179132555Y-56162837D01*
X179133986Y-56151962D01*
X179131775Y-56137778D01*
X179118617Y-56134000D01*
X178072115Y-56134000D01*
X178056876Y-56138475D01*
X178055671Y-56139865D01*
X178054000Y-56147548D01*
X178054000Y-57198517D01*
X177546000Y-57198517D01*
X177546000Y-56152115D01*
X177541525Y-56136876D01*
X177540135Y-56135671D01*
X177532452Y-56134000D01*
X176483225Y-56134000D01*
X176469694Y-56137973D01*
X176468257Y-56147966D01*
X168538500Y-56147966D01*
X168538500Y-55284669D01*
X171822001Y-55284669D01*
X171822371Y-55291490D01*
X171827895Y-55342352D01*
X171831521Y-55357604D01*
X171876676Y-55478054D01*
X171885214Y-55493649D01*
X171961715Y-55595724D01*
X171974276Y-55608285D01*
X172076351Y-55684786D01*
X172091946Y-55693324D01*
X172212394Y-55738478D01*
X172227649Y-55742105D01*
X172278514Y-55747631D01*
X172285328Y-55748000D01*
X173057885Y-55748000D01*
X173073124Y-55743525D01*
X173074329Y-55742135D01*
X173076000Y-55734452D01*
X173076000Y-55729884D01*
X173584000Y-55729884D01*
X173588475Y-55745123D01*
X173589865Y-55746328D01*
X173597548Y-55747999D01*
X174374669Y-55747999D01*
X174381490Y-55747629D01*
X174432352Y-55742105D01*
X174447604Y-55738479D01*
X174568054Y-55693324D01*
X174583649Y-55684786D01*
X174685724Y-55608285D01*
X174698285Y-55595724D01*
X174774786Y-55493649D01*
X174783324Y-55478054D01*
X174828478Y-55357606D01*
X174832105Y-55342351D01*
X174837631Y-55291486D01*
X174838000Y-55284672D01*
X174838000Y-53612115D01*
X174833525Y-53596876D01*
X174832135Y-53595671D01*
X174824452Y-53594000D01*
X173602115Y-53594000D01*
X173586876Y-53598475D01*
X173585671Y-53599865D01*
X173584000Y-53607548D01*
X173584000Y-55729884D01*
X173076000Y-55729884D01*
X173076000Y-53612115D01*
X173071525Y-53596876D01*
X173070135Y-53595671D01*
X173062452Y-53594000D01*
X171840116Y-53594000D01*
X171824877Y-53598475D01*
X171823672Y-53599865D01*
X171822001Y-53607548D01*
X171822001Y-55284669D01*
X168538500Y-55284669D01*
X168538500Y-55079594D01*
X168558502Y-55011473D01*
X168575405Y-54990499D01*
X171606905Y-51959000D01*
X171669217Y-51924974D01*
X171740033Y-51930039D01*
X171796868Y-51972586D01*
X171821679Y-52039106D01*
X171822000Y-52048095D01*
X171822000Y-53067885D01*
X171826475Y-53083124D01*
X171827865Y-53084329D01*
X171835548Y-53086000D01*
X174819884Y-53086000D01*
X174835123Y-53081525D01*
X174836328Y-53080135D01*
X174837999Y-53072452D01*
X174837999Y-51992604D01*
X174858001Y-51924483D01*
X174911657Y-51877990D01*
X174981931Y-51867886D01*
X175046511Y-51897380D01*
X175053094Y-51903509D01*
X175516343Y-52366758D01*
X175523887Y-52375048D01*
X175528000Y-52381529D01*
X175533777Y-52386954D01*
X175577667Y-52428169D01*
X175580509Y-52430924D01*
X175600231Y-52450646D01*
X175603355Y-52453069D01*
X175603359Y-52453073D01*
X175603424Y-52453123D01*
X175612445Y-52460828D01*
X175644679Y-52491097D01*
X175651627Y-52494916D01*
X175651629Y-52494918D01*
X175662432Y-52500857D01*
X175678959Y-52511713D01*
X175688698Y-52519268D01*
X175688700Y-52519269D01*
X175694960Y-52524125D01*
X175735540Y-52541685D01*
X175746188Y-52546902D01*
X175774112Y-52562253D01*
X175784940Y-52568206D01*
X175792616Y-52570177D01*
X175792619Y-52570178D01*
X175804562Y-52573244D01*
X175823266Y-52579648D01*
X175829795Y-52582473D01*
X175841855Y-52587692D01*
X175849678Y-52588931D01*
X175849688Y-52588934D01*
X175885524Y-52594610D01*
X175897144Y-52597016D01*
X175928959Y-52605184D01*
X175939970Y-52608011D01*
X175960224Y-52608011D01*
X175979934Y-52609562D01*
X175999943Y-52612731D01*
X176007835Y-52611985D01*
X176026580Y-52610213D01*
X176043962Y-52608570D01*
X176055819Y-52608011D01*
X176444576Y-52608011D01*
X176512697Y-52628013D01*
X176559190Y-52681669D01*
X176569294Y-52751943D01*
X176558864Y-52787061D01*
X176528461Y-52852560D01*
X176520688Y-52869305D01*
X176460989Y-53084570D01*
X176437251Y-53306695D01*
X176437548Y-53311848D01*
X176437548Y-53311851D01*
X176443011Y-53406590D01*
X176450110Y-53529715D01*
X176451247Y-53534761D01*
X176451248Y-53534767D01*
X176465606Y-53598475D01*
X176499222Y-53747639D01*
X176583266Y-53954616D01*
X176594464Y-53972890D01*
X176696509Y-54139412D01*
X176699987Y-54145088D01*
X176846250Y-54313938D01*
X177018126Y-54456632D01*
X177066214Y-54484732D01*
X177091955Y-54499774D01*
X177140679Y-54551412D01*
X177153750Y-54621195D01*
X177127019Y-54686967D01*
X177086562Y-54720327D01*
X177078457Y-54724546D01*
X177069738Y-54730036D01*
X176899433Y-54857905D01*
X176891726Y-54864748D01*
X176744590Y-55018717D01*
X176738104Y-55026727D01*
X176618098Y-55202649D01*
X176613000Y-55211623D01*
X176523338Y-55404783D01*
X176519775Y-55414470D01*
X176464389Y-55614183D01*
X176465912Y-55622607D01*
X176478292Y-55626000D01*
X179118344Y-55626000D01*
X179131875Y-55622027D01*
X179133180Y-55612947D01*
X179091214Y-55445875D01*
X179087894Y-55436124D01*
X179002972Y-55240814D01*
X178998105Y-55231739D01*
X178882426Y-55052926D01*
X178876136Y-55044757D01*
X178732806Y-54887240D01*
X178725273Y-54880215D01*
X178558139Y-54748222D01*
X178549556Y-54742520D01*
X178512602Y-54722120D01*
X178462631Y-54671687D01*
X178447859Y-54602245D01*
X178472975Y-54535839D01*
X178500327Y-54509232D01*
X178540574Y-54480524D01*
X178679860Y-54381173D01*
X178838096Y-54223489D01*
X178849511Y-54207604D01*
X178965435Y-54046277D01*
X178968453Y-54042077D01*
X178972233Y-54034430D01*
X179065136Y-53846453D01*
X179065137Y-53846451D01*
X179067430Y-53841811D01*
X179122246Y-53661390D01*
X179130865Y-53633023D01*
X179130865Y-53633021D01*
X179132370Y-53628069D01*
X179161529Y-53406590D01*
X179163156Y-53340000D01*
X179144852Y-53117361D01*
X179090431Y-52900702D01*
X179039797Y-52784252D01*
X179030977Y-52713807D01*
X179061644Y-52649775D01*
X179122060Y-52612487D01*
X179155347Y-52608011D01*
X180589222Y-52608011D01*
X180600405Y-52608538D01*
X180607898Y-52610213D01*
X180615824Y-52609964D01*
X180615825Y-52609964D01*
X180675975Y-52608073D01*
X180679934Y-52608011D01*
X180707845Y-52608011D01*
X180711780Y-52607514D01*
X180711845Y-52607506D01*
X180723682Y-52606573D01*
X180755940Y-52605559D01*
X180759959Y-52605433D01*
X180767878Y-52605184D01*
X180787332Y-52599532D01*
X180806689Y-52595524D01*
X180818919Y-52593979D01*
X180818920Y-52593979D01*
X180826786Y-52592985D01*
X180834157Y-52590066D01*
X180834159Y-52590066D01*
X180867901Y-52576707D01*
X180879131Y-52572862D01*
X180913972Y-52562740D01*
X180913973Y-52562740D01*
X180921582Y-52560529D01*
X180928401Y-52556496D01*
X180928406Y-52556494D01*
X180939017Y-52550218D01*
X180956765Y-52541523D01*
X180975606Y-52534063D01*
X181008570Y-52510114D01*
X181011376Y-52508075D01*
X181021296Y-52501559D01*
X181052524Y-52483091D01*
X181052527Y-52483089D01*
X181059351Y-52479053D01*
X181073672Y-52464732D01*
X181088706Y-52451891D01*
X181090420Y-52450646D01*
X181105096Y-52439983D01*
X181133287Y-52405906D01*
X181141277Y-52397127D01*
X181467999Y-52070405D01*
X181530311Y-52036379D01*
X181557094Y-52033500D01*
X182127906Y-52033500D01*
X182196027Y-52053502D01*
X182217001Y-52070405D01*
X183234595Y-53087999D01*
X183268621Y-53150311D01*
X183271500Y-53177094D01*
X183271500Y-54658689D01*
X183251498Y-54726810D01*
X183211804Y-54765833D01*
X183105652Y-54831522D01*
X183100479Y-54836704D01*
X183091915Y-54845283D01*
X182980695Y-54956697D01*
X182978094Y-54960916D01*
X182920970Y-55001417D01*
X182850047Y-55004649D01*
X182788635Y-54969024D01*
X182782078Y-54961470D01*
X182778478Y-54955652D01*
X182653303Y-54830695D01*
X182639590Y-54822242D01*
X182508968Y-54741725D01*
X182508966Y-54741724D01*
X182502738Y-54737885D01*
X182393803Y-54701753D01*
X182341389Y-54684368D01*
X182341387Y-54684368D01*
X182334861Y-54682203D01*
X182328025Y-54681503D01*
X182328022Y-54681502D01*
X182284969Y-54677091D01*
X182230400Y-54671500D01*
X181479600Y-54671500D01*
X181476354Y-54671837D01*
X181476350Y-54671837D01*
X181380692Y-54681762D01*
X181380688Y-54681763D01*
X181373834Y-54682474D01*
X181367298Y-54684655D01*
X181367296Y-54684655D01*
X181340584Y-54693567D01*
X181206054Y-54738450D01*
X181055652Y-54831522D01*
X181050479Y-54836704D01*
X181041915Y-54845283D01*
X180930695Y-54956697D01*
X180926855Y-54962927D01*
X180926854Y-54962928D01*
X180895976Y-55013022D01*
X180837885Y-55107262D01*
X180835581Y-55114209D01*
X180792462Y-55244210D01*
X180782203Y-55275139D01*
X180781503Y-55281975D01*
X180781502Y-55281978D01*
X180778287Y-55313360D01*
X180771500Y-55379600D01*
X180771500Y-56015405D01*
X180751498Y-56083526D01*
X180734595Y-56104500D01*
X180487747Y-56351348D01*
X180479461Y-56358888D01*
X180472982Y-56363000D01*
X180467557Y-56368777D01*
X180426357Y-56412651D01*
X180423602Y-56415493D01*
X180403865Y-56435230D01*
X180401385Y-56438427D01*
X180393682Y-56447447D01*
X180363414Y-56479679D01*
X180359595Y-56486625D01*
X180359593Y-56486628D01*
X180353652Y-56497434D01*
X180342801Y-56513953D01*
X180330386Y-56529959D01*
X180327241Y-56537228D01*
X180327238Y-56537232D01*
X180312826Y-56570537D01*
X180307609Y-56581187D01*
X180286305Y-56619940D01*
X180282001Y-56636705D01*
X180281267Y-56639562D01*
X180274863Y-56658266D01*
X180271161Y-56666822D01*
X180266819Y-56676855D01*
X180265580Y-56684678D01*
X180265577Y-56684688D01*
X180259901Y-56720524D01*
X180257495Y-56732144D01*
X180248511Y-56767137D01*
X180246500Y-56774970D01*
X180246500Y-56795224D01*
X180244949Y-56814934D01*
X180241780Y-56834943D01*
X180242526Y-56842835D01*
X180245941Y-56878961D01*
X180246500Y-56890819D01*
X180246500Y-59723219D01*
X180226498Y-59791340D01*
X180186803Y-59830363D01*
X180055652Y-59911522D01*
X179930695Y-60036697D01*
X179837885Y-60187262D01*
X179782203Y-60355139D01*
X179771500Y-60459600D01*
X179771500Y-61460400D01*
X179771837Y-61463646D01*
X179771837Y-61463650D01*
X179781618Y-61557914D01*
X179782474Y-61566166D01*
X179784655Y-61572702D01*
X179784655Y-61572704D01*
X179814790Y-61663028D01*
X179838450Y-61733946D01*
X179931522Y-61884348D01*
X180056697Y-62009305D01*
X180062927Y-62013145D01*
X180062928Y-62013146D01*
X180200288Y-62097816D01*
X180207262Y-62102115D01*
X180259604Y-62119476D01*
X180368611Y-62155632D01*
X180368613Y-62155632D01*
X180375139Y-62157797D01*
X180381975Y-62158497D01*
X180381978Y-62158498D01*
X180425031Y-62162909D01*
X180479600Y-62168500D01*
X181280400Y-62168500D01*
X181283646Y-62168163D01*
X181283650Y-62168163D01*
X181379308Y-62158238D01*
X181379312Y-62158237D01*
X181386166Y-62157526D01*
X181392702Y-62155345D01*
X181392704Y-62155345D01*
X181524806Y-62111272D01*
X181553946Y-62101550D01*
X181704348Y-62008478D01*
X181775462Y-61937240D01*
X181791138Y-61921537D01*
X181853421Y-61887458D01*
X181924241Y-61892461D01*
X181969329Y-61921382D01*
X182051829Y-62003739D01*
X182063240Y-62012751D01*
X182201243Y-62097816D01*
X182214424Y-62103963D01*
X182368710Y-62155138D01*
X182382086Y-62158005D01*
X182476438Y-62167672D01*
X182482854Y-62168000D01*
X182607885Y-62168000D01*
X182623124Y-62163525D01*
X182624329Y-62162135D01*
X182626000Y-62154452D01*
X182626000Y-62149884D01*
X183134000Y-62149884D01*
X183138475Y-62165123D01*
X183139865Y-62166328D01*
X183147548Y-62167999D01*
X183277095Y-62167999D01*
X183283614Y-62167662D01*
X183379206Y-62157743D01*
X183392600Y-62154851D01*
X183546784Y-62103412D01*
X183559962Y-62097239D01*
X183697807Y-62011937D01*
X183709208Y-62002901D01*
X183823739Y-61888171D01*
X183832751Y-61876760D01*
X183917816Y-61738757D01*
X183923963Y-61725576D01*
X183975138Y-61571290D01*
X183978005Y-61557914D01*
X183987672Y-61463562D01*
X183988000Y-61457146D01*
X183988000Y-61232115D01*
X183983525Y-61216876D01*
X183982135Y-61215671D01*
X183974452Y-61214000D01*
X183152115Y-61214000D01*
X183136876Y-61218475D01*
X183135671Y-61219865D01*
X183134000Y-61227548D01*
X183134000Y-62149884D01*
X182626000Y-62149884D01*
X182626000Y-60687885D01*
X183134000Y-60687885D01*
X183138475Y-60703124D01*
X183139865Y-60704329D01*
X183147548Y-60706000D01*
X183969884Y-60706000D01*
X183985123Y-60701525D01*
X183986328Y-60700135D01*
X183987999Y-60692452D01*
X183987999Y-60462905D01*
X183987662Y-60456386D01*
X183977743Y-60360794D01*
X183974851Y-60347400D01*
X183923412Y-60193216D01*
X183917239Y-60180038D01*
X183831937Y-60042193D01*
X183822901Y-60030792D01*
X183708171Y-59916261D01*
X183696760Y-59907249D01*
X183558757Y-59822184D01*
X183545576Y-59816037D01*
X183391290Y-59764862D01*
X183377914Y-59761995D01*
X183283562Y-59752328D01*
X183277145Y-59752000D01*
X183152115Y-59752000D01*
X183136876Y-59756475D01*
X183135671Y-59757865D01*
X183134000Y-59765548D01*
X183134000Y-60687885D01*
X182626000Y-60687885D01*
X182626000Y-59770116D01*
X182621525Y-59754877D01*
X182620135Y-59753672D01*
X182612452Y-59752001D01*
X182482905Y-59752001D01*
X182476386Y-59752338D01*
X182380794Y-59762257D01*
X182367400Y-59765149D01*
X182213216Y-59816588D01*
X182200038Y-59822761D01*
X182062193Y-59908063D01*
X182050792Y-59917099D01*
X181969570Y-59998462D01*
X181907287Y-60032541D01*
X181836467Y-60027538D01*
X181791380Y-59998617D01*
X181708488Y-59915870D01*
X181708483Y-59915866D01*
X181703303Y-59910695D01*
X181673135Y-59892099D01*
X181573384Y-59830611D01*
X181525890Y-59777838D01*
X181513500Y-59723351D01*
X181513500Y-57214500D01*
X181533502Y-57146379D01*
X181587158Y-57099886D01*
X181639500Y-57088500D01*
X182230400Y-57088500D01*
X182233646Y-57088163D01*
X182233650Y-57088163D01*
X182329308Y-57078238D01*
X182329312Y-57078237D01*
X182336166Y-57077526D01*
X182342702Y-57075345D01*
X182342704Y-57075345D01*
X182495104Y-57024500D01*
X182503946Y-57021550D01*
X182654348Y-56928478D01*
X182779305Y-56803303D01*
X182781906Y-56799084D01*
X182839030Y-56758583D01*
X182909953Y-56755351D01*
X182971365Y-56790976D01*
X182977922Y-56798530D01*
X182981522Y-56804348D01*
X183106697Y-56929305D01*
X183112927Y-56933145D01*
X183112928Y-56933146D01*
X183250090Y-57017694D01*
X183257262Y-57022115D01*
X183264453Y-57024500D01*
X183418611Y-57075632D01*
X183418613Y-57075632D01*
X183425139Y-57077797D01*
X183431975Y-57078497D01*
X183431978Y-57078498D01*
X183475031Y-57082909D01*
X183529600Y-57088500D01*
X184280400Y-57088500D01*
X184283646Y-57088163D01*
X184283650Y-57088163D01*
X184379308Y-57078238D01*
X184379312Y-57078237D01*
X184386166Y-57077526D01*
X184392702Y-57075345D01*
X184392704Y-57075345D01*
X184545104Y-57024500D01*
X184553946Y-57021550D01*
X184590443Y-56998965D01*
X184594197Y-56996642D01*
X184662649Y-56977804D01*
X184730419Y-56998965D01*
X184775990Y-57053406D01*
X184786500Y-57103786D01*
X184786500Y-64222906D01*
X184766498Y-64291027D01*
X184749595Y-64312001D01*
X184292001Y-64769595D01*
X184229689Y-64803621D01*
X184202906Y-64806500D01*
X183529600Y-64806500D01*
X183526354Y-64806837D01*
X183526350Y-64806837D01*
X183430692Y-64816762D01*
X183430688Y-64816763D01*
X183423834Y-64817474D01*
X183417298Y-64819655D01*
X183417296Y-64819655D01*
X183354682Y-64840545D01*
X183256054Y-64873450D01*
X183105652Y-64966522D01*
X182980695Y-65091697D01*
X182977898Y-65096235D01*
X182920647Y-65136824D01*
X182849724Y-65140054D01*
X182788313Y-65104428D01*
X182780938Y-65095932D01*
X182772902Y-65085793D01*
X182658171Y-64971261D01*
X182646760Y-64962249D01*
X182508757Y-64877184D01*
X182495576Y-64871037D01*
X182341290Y-64819862D01*
X182327914Y-64816995D01*
X182233562Y-64807328D01*
X182227145Y-64807000D01*
X182114615Y-64807000D01*
X182099376Y-64811475D01*
X182098171Y-64812865D01*
X182096500Y-64820548D01*
X182096500Y-67254884D01*
X182100975Y-67270123D01*
X182102365Y-67271328D01*
X182110048Y-67272999D01*
X182227095Y-67272999D01*
X182233614Y-67272662D01*
X182329206Y-67262743D01*
X182342600Y-67259851D01*
X182496784Y-67208412D01*
X182509962Y-67202239D01*
X182647807Y-67116937D01*
X182659208Y-67107901D01*
X182773738Y-66993172D01*
X182780794Y-66984238D01*
X182838712Y-66943177D01*
X182909635Y-66939947D01*
X182971046Y-66975574D01*
X182977846Y-66983407D01*
X182981522Y-66989348D01*
X183106697Y-67114305D01*
X183112927Y-67118145D01*
X183112928Y-67118146D01*
X183250288Y-67202816D01*
X183257262Y-67207115D01*
X183305254Y-67223033D01*
X183418611Y-67260632D01*
X183418613Y-67260632D01*
X183425139Y-67262797D01*
X183431975Y-67263497D01*
X183431978Y-67263498D01*
X183475022Y-67267908D01*
X183529600Y-67273500D01*
X184305400Y-67273500D01*
X184308646Y-67273163D01*
X184308650Y-67273163D01*
X184404308Y-67263238D01*
X184404312Y-67263237D01*
X184411166Y-67262526D01*
X184417702Y-67260345D01*
X184417704Y-67260345D01*
X184553951Y-67214889D01*
X184578946Y-67206550D01*
X184729348Y-67113478D01*
X184854305Y-66988303D01*
X184884112Y-66939947D01*
X184943275Y-66843968D01*
X184943276Y-66843966D01*
X184947115Y-66837738D01*
X185002797Y-66669861D01*
X185004850Y-66649829D01*
X185008786Y-66611407D01*
X185013500Y-66565400D01*
X185013500Y-65892095D01*
X185033502Y-65823974D01*
X185050405Y-65802999D01*
X185812258Y-65041147D01*
X185820537Y-65033613D01*
X185827018Y-65029500D01*
X185873644Y-64979848D01*
X185876398Y-64977007D01*
X185896135Y-64957270D01*
X185898615Y-64954073D01*
X185906320Y-64945051D01*
X185931159Y-64918600D01*
X185936586Y-64912821D01*
X185940405Y-64905875D01*
X185940407Y-64905872D01*
X185946348Y-64895066D01*
X185957199Y-64878547D01*
X185961152Y-64873450D01*
X185969614Y-64862541D01*
X185972759Y-64855272D01*
X185972762Y-64855268D01*
X185987174Y-64821963D01*
X185992391Y-64811313D01*
X186013695Y-64772560D01*
X186018733Y-64752937D01*
X186025137Y-64734234D01*
X186030033Y-64722920D01*
X186030033Y-64722919D01*
X186033181Y-64715645D01*
X186034420Y-64707822D01*
X186034423Y-64707812D01*
X186040099Y-64671976D01*
X186042505Y-64660356D01*
X186051528Y-64625211D01*
X186051528Y-64625210D01*
X186053500Y-64617530D01*
X186053500Y-64597276D01*
X186055051Y-64577565D01*
X186056980Y-64565386D01*
X186058220Y-64557557D01*
X186054059Y-64513538D01*
X186053500Y-64501681D01*
X186053500Y-55951793D01*
X186055732Y-55928184D01*
X186055790Y-55927881D01*
X186055790Y-55927877D01*
X186057275Y-55920094D01*
X186053749Y-55864049D01*
X186053500Y-55856138D01*
X186053500Y-55840144D01*
X186051494Y-55824270D01*
X186050751Y-55816402D01*
X186047723Y-55768263D01*
X186047723Y-55768262D01*
X186047225Y-55760350D01*
X186044679Y-55752513D01*
X186039506Y-55729369D01*
X186039468Y-55729065D01*
X186039467Y-55729060D01*
X186038474Y-55721203D01*
X186035558Y-55713838D01*
X186035557Y-55713834D01*
X186017801Y-55668989D01*
X186015129Y-55661570D01*
X185997764Y-55608125D01*
X185993514Y-55601428D01*
X185993350Y-55601169D01*
X185982585Y-55580042D01*
X185982471Y-55579754D01*
X185982468Y-55579749D01*
X185979552Y-55572383D01*
X185974896Y-55565975D01*
X185974893Y-55565969D01*
X185946542Y-55526948D01*
X185942092Y-55520401D01*
X185925115Y-55493649D01*
X185912000Y-55472982D01*
X185905993Y-55467341D01*
X185890312Y-55449554D01*
X185890134Y-55449309D01*
X185890132Y-55449307D01*
X185885472Y-55442893D01*
X185877290Y-55436124D01*
X185842204Y-55407097D01*
X185836270Y-55401866D01*
X185801102Y-55368842D01*
X185801099Y-55368840D01*
X185795321Y-55363414D01*
X185788097Y-55359442D01*
X185768494Y-55346119D01*
X185768254Y-55345920D01*
X185768247Y-55345916D01*
X185762144Y-55340867D01*
X185711324Y-55316953D01*
X185704292Y-55313371D01*
X185655060Y-55286305D01*
X185647385Y-55284335D01*
X185647379Y-55284332D01*
X185647081Y-55284256D01*
X185624772Y-55276224D01*
X185624497Y-55276094D01*
X185624489Y-55276091D01*
X185617318Y-55272717D01*
X185562151Y-55262194D01*
X185554442Y-55260471D01*
X185520449Y-55251743D01*
X185507707Y-55248471D01*
X185507706Y-55248471D01*
X185500030Y-55246500D01*
X185491793Y-55246500D01*
X185468184Y-55244268D01*
X185467881Y-55244210D01*
X185467877Y-55244210D01*
X185460094Y-55242725D01*
X185404049Y-55246251D01*
X185396138Y-55246500D01*
X185059197Y-55246500D01*
X184991076Y-55226498D01*
X184944583Y-55172842D01*
X184939674Y-55160377D01*
X184923867Y-55112998D01*
X184923866Y-55112996D01*
X184921550Y-55106054D01*
X184828478Y-54955652D01*
X184703303Y-54830695D01*
X184677037Y-54814504D01*
X184633293Y-54787540D01*
X184598383Y-54766021D01*
X184550891Y-54713250D01*
X184538500Y-54658762D01*
X184538500Y-52941263D01*
X184539027Y-52930079D01*
X184540701Y-52922591D01*
X184538562Y-52854532D01*
X184538500Y-52850575D01*
X184538500Y-52822644D01*
X184537994Y-52818638D01*
X184537061Y-52806792D01*
X184536966Y-52803748D01*
X184535673Y-52762610D01*
X184530022Y-52743158D01*
X184526014Y-52723806D01*
X184524468Y-52711568D01*
X184524467Y-52711566D01*
X184523474Y-52703703D01*
X184507194Y-52662586D01*
X184503359Y-52651385D01*
X184491018Y-52608906D01*
X184486985Y-52602087D01*
X184486983Y-52602082D01*
X184480707Y-52591471D01*
X184472010Y-52573721D01*
X184464552Y-52554883D01*
X184458754Y-52546902D01*
X184438572Y-52519125D01*
X184432053Y-52509201D01*
X184413578Y-52477960D01*
X184413574Y-52477955D01*
X184409542Y-52471137D01*
X184395218Y-52456813D01*
X184382376Y-52441778D01*
X184370472Y-52425393D01*
X184336406Y-52397211D01*
X184327627Y-52389222D01*
X184186499Y-52248094D01*
X184152473Y-52185782D01*
X184157538Y-52114967D01*
X184200085Y-52058131D01*
X184266605Y-52033320D01*
X184275594Y-52032999D01*
X184302095Y-52032999D01*
X184308614Y-52032662D01*
X184404206Y-52022743D01*
X184417600Y-52019851D01*
X184571784Y-51968412D01*
X184584962Y-51962239D01*
X184722807Y-51876937D01*
X184734208Y-51867901D01*
X184848739Y-51753171D01*
X184857751Y-51741760D01*
X184942816Y-51603757D01*
X184948963Y-51590576D01*
X185000138Y-51436290D01*
X185003005Y-51422914D01*
X185012672Y-51328562D01*
X185013000Y-51322146D01*
X185013000Y-51072115D01*
X185008525Y-51056876D01*
X185007135Y-51055671D01*
X184999452Y-51054000D01*
X183789500Y-51054000D01*
X183721379Y-51033998D01*
X183674886Y-50980342D01*
X183663500Y-50928000D01*
X183663500Y-50527885D01*
X184171500Y-50527885D01*
X184175975Y-50543124D01*
X184177365Y-50544329D01*
X184185048Y-50546000D01*
X184994884Y-50546000D01*
X185010123Y-50541525D01*
X185011328Y-50540135D01*
X185012999Y-50532452D01*
X185012999Y-50277905D01*
X185012662Y-50271386D01*
X185002743Y-50175794D01*
X184999851Y-50162400D01*
X184948412Y-50008216D01*
X184942239Y-49995038D01*
X184856937Y-49857193D01*
X184847901Y-49845792D01*
X184733171Y-49731261D01*
X184721760Y-49722249D01*
X184583757Y-49637184D01*
X184570576Y-49631037D01*
X184416290Y-49579862D01*
X184402914Y-49576995D01*
X184308562Y-49567328D01*
X184302145Y-49567000D01*
X184189615Y-49567000D01*
X184174376Y-49571475D01*
X184173171Y-49572865D01*
X184171500Y-49580548D01*
X184171500Y-50527885D01*
X183663500Y-50527885D01*
X183663500Y-49585116D01*
X183659025Y-49569877D01*
X183657635Y-49568672D01*
X183649952Y-49567001D01*
X183532905Y-49567001D01*
X183526386Y-49567338D01*
X183430794Y-49577257D01*
X183417400Y-49580149D01*
X183263216Y-49631588D01*
X183250038Y-49637761D01*
X183112193Y-49723063D01*
X183100792Y-49732099D01*
X182986262Y-49846828D01*
X182979206Y-49855762D01*
X182921288Y-49896823D01*
X182850365Y-49900053D01*
X182788954Y-49864426D01*
X182782154Y-49856593D01*
X182778478Y-49850652D01*
X182653303Y-49725695D01*
X182616964Y-49703295D01*
X182508968Y-49636725D01*
X182508966Y-49636724D01*
X182502738Y-49632885D01*
X182387010Y-49594500D01*
X182341389Y-49579368D01*
X182341387Y-49579368D01*
X182334861Y-49577203D01*
X182328025Y-49576503D01*
X182328022Y-49576502D01*
X182284969Y-49572091D01*
X182230400Y-49566500D01*
X181454600Y-49566500D01*
X181451354Y-49566837D01*
X181451350Y-49566837D01*
X181355692Y-49576762D01*
X181355688Y-49576763D01*
X181348834Y-49577474D01*
X181342298Y-49579655D01*
X181342296Y-49579655D01*
X181337192Y-49581358D01*
X181181054Y-49633450D01*
X181030652Y-49726522D01*
X180905695Y-49851697D01*
X180901855Y-49857927D01*
X180901854Y-49857928D01*
X180827119Y-49979171D01*
X180812885Y-50002262D01*
X180757203Y-50170139D01*
X180746500Y-50274600D01*
X180746500Y-50947905D01*
X180726498Y-51016026D01*
X180709595Y-51037000D01*
X180442489Y-51304106D01*
X180380177Y-51338132D01*
X180353394Y-51341011D01*
X179284500Y-51341011D01*
X179216379Y-51321009D01*
X179169886Y-51267353D01*
X179158500Y-51215011D01*
X179158500Y-49901866D01*
X179151745Y-49839684D01*
X179100615Y-49703295D01*
X179013261Y-49586739D01*
X178896705Y-49499385D01*
X178760316Y-49448255D01*
X178698134Y-49441500D01*
X176901866Y-49441500D01*
X176839684Y-49448255D01*
X176703295Y-49499385D01*
X176586739Y-49586739D01*
X176499385Y-49703295D01*
X176448255Y-49839684D01*
X176441500Y-49901866D01*
X176441500Y-51195916D01*
X176421498Y-51264037D01*
X176367842Y-51310530D01*
X176297568Y-51320634D01*
X176232988Y-51291140D01*
X176226404Y-51285011D01*
X175957420Y-51016026D01*
X175664625Y-50723231D01*
X175657091Y-50714952D01*
X175652978Y-50708471D01*
X175603326Y-50661845D01*
X175600485Y-50659091D01*
X175580748Y-50639354D01*
X175577551Y-50636874D01*
X175568529Y-50629169D01*
X175555100Y-50616558D01*
X175536299Y-50598903D01*
X175529353Y-50595084D01*
X175529350Y-50595082D01*
X175518544Y-50589141D01*
X175502025Y-50578290D01*
X175500575Y-50577165D01*
X175486019Y-50565875D01*
X175478750Y-50562730D01*
X175478746Y-50562727D01*
X175445441Y-50548315D01*
X175434791Y-50543098D01*
X175396038Y-50521794D01*
X175386224Y-50519274D01*
X175376416Y-50516756D01*
X175357712Y-50510352D01*
X175346398Y-50505456D01*
X175346397Y-50505456D01*
X175339123Y-50502308D01*
X175331300Y-50501069D01*
X175331290Y-50501066D01*
X175295454Y-50495390D01*
X175283834Y-50492984D01*
X175248689Y-50483961D01*
X175248688Y-50483961D01*
X175241008Y-50481989D01*
X175220754Y-50481989D01*
X175201043Y-50480438D01*
X175188864Y-50478509D01*
X175181035Y-50477269D01*
X175139334Y-50481211D01*
X175137017Y-50481430D01*
X175125159Y-50481989D01*
X171633278Y-50481989D01*
X171622095Y-50481462D01*
X171614602Y-50479787D01*
X171606676Y-50480036D01*
X171606675Y-50480036D01*
X171546512Y-50481927D01*
X171542554Y-50481989D01*
X171514655Y-50481989D01*
X171510665Y-50482493D01*
X171498831Y-50483425D01*
X171454622Y-50484815D01*
X171447008Y-50487027D01*
X171447003Y-50487028D01*
X171435170Y-50490466D01*
X171415807Y-50494477D01*
X171395714Y-50497015D01*
X171388347Y-50499932D01*
X171388342Y-50499933D01*
X171354603Y-50513291D01*
X171343376Y-50517135D01*
X171300918Y-50529471D01*
X171294092Y-50533508D01*
X171283483Y-50539782D01*
X171265735Y-50548477D01*
X171246894Y-50555937D01*
X171240478Y-50560599D01*
X171240477Y-50560599D01*
X171211124Y-50581925D01*
X171201204Y-50588441D01*
X171169976Y-50606909D01*
X171169973Y-50606911D01*
X171163149Y-50610947D01*
X171148828Y-50625268D01*
X171133795Y-50638108D01*
X171117404Y-50650017D01*
X171102044Y-50668584D01*
X171089213Y-50684094D01*
X171081223Y-50692873D01*
X168753094Y-53021001D01*
X168690782Y-53055027D01*
X168619966Y-53049962D01*
X168563131Y-53007415D01*
X168538320Y-52940895D01*
X168537999Y-52931906D01*
X168537999Y-52545331D01*
X168537629Y-52538510D01*
X168532105Y-52487648D01*
X168528479Y-52472396D01*
X168483324Y-52351946D01*
X168474786Y-52336352D01*
X168422047Y-52265982D01*
X168397199Y-52199476D01*
X168412252Y-52130093D01*
X168422047Y-52114852D01*
X168450960Y-52076273D01*
X168480615Y-52036705D01*
X168531745Y-51900316D01*
X168538500Y-51838134D01*
X168538500Y-50241866D01*
X168531745Y-50179684D01*
X168480615Y-50043295D01*
X168393261Y-49926739D01*
X168276705Y-49839385D01*
X168140316Y-49788255D01*
X168078134Y-49781500D01*
X166719594Y-49781500D01*
X166651473Y-49761498D01*
X166630499Y-49744595D01*
X163729132Y-46843227D01*
X163721592Y-46834941D01*
X163717480Y-46828462D01*
X163667828Y-46781836D01*
X163664987Y-46779082D01*
X163645250Y-46759345D01*
X163642053Y-46756865D01*
X163633031Y-46749160D01*
X163619596Y-46736544D01*
X163600801Y-46718894D01*
X163593855Y-46715075D01*
X163593852Y-46715073D01*
X163583046Y-46709132D01*
X163566527Y-46698281D01*
X163566063Y-46697921D01*
X163550521Y-46685866D01*
X163543252Y-46682721D01*
X163543248Y-46682718D01*
X163509943Y-46668306D01*
X163499293Y-46663089D01*
X163460540Y-46641785D01*
X163440917Y-46636747D01*
X163422214Y-46630343D01*
X163410900Y-46625447D01*
X163410899Y-46625447D01*
X163403625Y-46622299D01*
X163395802Y-46621060D01*
X163395792Y-46621057D01*
X163359956Y-46615381D01*
X163348336Y-46612975D01*
X163313191Y-46603952D01*
X163313190Y-46603952D01*
X163305510Y-46601980D01*
X163285256Y-46601980D01*
X163265545Y-46600429D01*
X163263014Y-46600028D01*
X163245537Y-46597260D01*
X163237645Y-46598006D01*
X163201519Y-46601421D01*
X163189661Y-46601980D01*
X158510790Y-46601980D01*
X158499606Y-46601453D01*
X158492118Y-46599779D01*
X158484195Y-46600028D01*
X158424060Y-46601918D01*
X158420102Y-46601980D01*
X158392171Y-46601980D01*
X158388256Y-46602475D01*
X158388252Y-46602475D01*
X158388194Y-46602483D01*
X158388165Y-46602486D01*
X158376323Y-46603419D01*
X158332137Y-46604807D01*
X158314771Y-46609852D01*
X158312685Y-46610458D01*
X158293333Y-46614466D01*
X158286262Y-46615360D01*
X158273230Y-46617006D01*
X158265861Y-46619923D01*
X158265859Y-46619924D01*
X158232124Y-46633280D01*
X158220896Y-46637125D01*
X158178434Y-46649462D01*
X158171612Y-46653496D01*
X158171606Y-46653499D01*
X158160995Y-46659774D01*
X158143245Y-46668470D01*
X158131783Y-46673008D01*
X158131778Y-46673011D01*
X158124410Y-46675928D01*
X158106997Y-46688579D01*
X158088652Y-46701907D01*
X158078734Y-46708423D01*
X158067490Y-46715073D01*
X158040664Y-46730938D01*
X158026340Y-46745262D01*
X158011308Y-46758101D01*
X157994920Y-46770008D01*
X157966739Y-46804073D01*
X157958749Y-46812853D01*
X157703227Y-47068375D01*
X157694941Y-47075915D01*
X157688462Y-47080027D01*
X157683037Y-47085804D01*
X157641837Y-47129678D01*
X157639082Y-47132520D01*
X157619345Y-47152257D01*
X157616865Y-47155454D01*
X157609162Y-47164474D01*
X157578894Y-47196706D01*
X157575075Y-47203652D01*
X157575073Y-47203655D01*
X157569132Y-47214461D01*
X157558281Y-47230980D01*
X157545866Y-47246986D01*
X157542721Y-47254255D01*
X157542718Y-47254259D01*
X157528306Y-47287564D01*
X157523089Y-47298214D01*
X157501785Y-47336967D01*
X157499814Y-47344642D01*
X157499814Y-47344643D01*
X157496747Y-47356589D01*
X157490343Y-47375293D01*
X157482299Y-47393882D01*
X157481060Y-47401705D01*
X157481057Y-47401715D01*
X157475381Y-47437551D01*
X157472975Y-47449171D01*
X157467831Y-47469209D01*
X157461980Y-47491997D01*
X157461980Y-47512251D01*
X157460429Y-47531961D01*
X157457260Y-47551970D01*
X157458006Y-47559862D01*
X157461421Y-47595988D01*
X157461980Y-47607846D01*
X157461980Y-50162809D01*
X157461453Y-50173992D01*
X157459778Y-50181485D01*
X157460027Y-50189411D01*
X157460027Y-50189412D01*
X157461918Y-50249562D01*
X157461980Y-50253521D01*
X157461980Y-50281432D01*
X157462477Y-50285366D01*
X157462477Y-50285367D01*
X157462485Y-50285432D01*
X157463418Y-50297269D01*
X157464807Y-50341465D01*
X157470458Y-50360915D01*
X157474467Y-50380276D01*
X157477006Y-50400373D01*
X157479925Y-50407744D01*
X157479925Y-50407746D01*
X157493284Y-50441488D01*
X157497129Y-50452718D01*
X157507097Y-50487028D01*
X157509462Y-50495169D01*
X157513495Y-50501988D01*
X157513497Y-50501993D01*
X157519773Y-50512604D01*
X157528468Y-50530352D01*
X157535928Y-50549193D01*
X157540590Y-50555609D01*
X157540590Y-50555610D01*
X157561916Y-50584963D01*
X157568432Y-50594883D01*
X157586402Y-50625268D01*
X157590938Y-50632938D01*
X157605259Y-50647259D01*
X157618099Y-50662292D01*
X157630008Y-50678683D01*
X157647161Y-50692873D01*
X157664085Y-50706874D01*
X157672864Y-50714864D01*
X158102771Y-51144771D01*
X158136797Y-51207083D01*
X158131732Y-51277898D01*
X158089185Y-51334734D01*
X158022665Y-51359545D01*
X157995051Y-51358482D01*
X157988338Y-51357479D01*
X157979739Y-51354907D01*
X157970765Y-51354852D01*
X157970764Y-51354852D01*
X157908057Y-51354469D01*
X157836376Y-51354031D01*
X157698529Y-51393428D01*
X157577280Y-51469930D01*
X157571337Y-51476659D01*
X157564501Y-51482477D01*
X157562725Y-51480390D01*
X157514617Y-51510672D01*
X157443623Y-51510006D01*
X157397429Y-51484400D01*
X157393258Y-51480761D01*
X157387400Y-51473963D01*
X157379869Y-51469082D01*
X157379866Y-51469079D01*
X157274633Y-51400871D01*
X157274634Y-51400871D01*
X157267095Y-51395985D01*
X157129739Y-51354907D01*
X157120763Y-51354852D01*
X157120762Y-51354852D01*
X157063948Y-51354505D01*
X156986376Y-51354031D01*
X156980287Y-51355771D01*
X156911395Y-51345397D01*
X156858050Y-51298547D01*
X156838500Y-51231135D01*
X156838500Y-50603768D01*
X156839027Y-50592585D01*
X156840702Y-50585092D01*
X156839284Y-50539957D01*
X156838562Y-50517002D01*
X156838500Y-50513044D01*
X156838500Y-50485144D01*
X156837996Y-50481153D01*
X156837063Y-50469311D01*
X156836545Y-50452812D01*
X156835674Y-50425111D01*
X156833462Y-50417497D01*
X156833461Y-50417492D01*
X156830023Y-50405659D01*
X156826012Y-50386295D01*
X156824467Y-50374064D01*
X156823474Y-50366203D01*
X156820557Y-50358836D01*
X156820556Y-50358831D01*
X156807198Y-50325092D01*
X156803354Y-50313865D01*
X156796808Y-50291336D01*
X156791018Y-50271407D01*
X156780707Y-50253972D01*
X156772012Y-50236224D01*
X156764552Y-50217383D01*
X156738564Y-50181613D01*
X156732048Y-50171693D01*
X156713580Y-50140465D01*
X156713578Y-50140462D01*
X156709542Y-50133638D01*
X156695221Y-50119317D01*
X156682380Y-50104283D01*
X156675131Y-50094306D01*
X156670472Y-50087893D01*
X156664368Y-50082843D01*
X156664363Y-50082838D01*
X156636402Y-50059707D01*
X156627621Y-50051717D01*
X156258618Y-49682713D01*
X156224593Y-49620401D01*
X156229658Y-49549585D01*
X156272205Y-49492750D01*
X156340371Y-49468090D01*
X156340362Y-49467999D01*
X156340728Y-49467961D01*
X156341212Y-49467786D01*
X156343608Y-49467662D01*
X156439206Y-49457743D01*
X156452600Y-49454851D01*
X156606784Y-49403412D01*
X156619962Y-49397239D01*
X156757807Y-49311937D01*
X156769208Y-49302901D01*
X156883739Y-49188171D01*
X156892751Y-49176760D01*
X156977816Y-49038757D01*
X156983963Y-49025576D01*
X157035138Y-48871290D01*
X157038005Y-48857914D01*
X157047672Y-48763562D01*
X157048000Y-48757146D01*
X157048000Y-48532115D01*
X157043525Y-48516876D01*
X157042135Y-48515671D01*
X157034452Y-48514000D01*
X155812000Y-48514000D01*
X155743879Y-48493998D01*
X155697386Y-48440342D01*
X155686000Y-48388000D01*
X155686000Y-47987885D01*
X156194000Y-47987885D01*
X156198475Y-48003124D01*
X156199865Y-48004329D01*
X156207548Y-48006000D01*
X157029884Y-48006000D01*
X157045123Y-48001525D01*
X157046328Y-48000135D01*
X157047999Y-47992452D01*
X157047999Y-47762905D01*
X157047662Y-47756386D01*
X157037743Y-47660794D01*
X157034851Y-47647400D01*
X156983412Y-47493216D01*
X156977239Y-47480038D01*
X156891937Y-47342193D01*
X156882901Y-47330792D01*
X156768171Y-47216261D01*
X156756760Y-47207249D01*
X156618757Y-47122184D01*
X156605576Y-47116037D01*
X156451290Y-47064862D01*
X156437914Y-47061995D01*
X156343562Y-47052328D01*
X156337145Y-47052000D01*
X156212115Y-47052000D01*
X156196876Y-47056475D01*
X156195671Y-47057865D01*
X156194000Y-47065548D01*
X156194000Y-47987885D01*
X155686000Y-47987885D01*
X155686000Y-47070116D01*
X155681525Y-47054877D01*
X155680135Y-47053672D01*
X155672452Y-47052001D01*
X155542905Y-47052001D01*
X155536386Y-47052338D01*
X155440794Y-47062257D01*
X155427400Y-47065149D01*
X155273216Y-47116588D01*
X155260038Y-47122761D01*
X155122193Y-47208063D01*
X155110792Y-47217099D01*
X155029570Y-47298462D01*
X154967287Y-47332541D01*
X154896467Y-47327538D01*
X154851380Y-47298617D01*
X154768488Y-47215870D01*
X154768483Y-47215866D01*
X154763303Y-47210695D01*
X154732494Y-47191704D01*
X154618968Y-47121725D01*
X154618966Y-47121724D01*
X154612738Y-47117885D01*
X154498599Y-47080027D01*
X154451389Y-47064368D01*
X154451387Y-47064368D01*
X154444861Y-47062203D01*
X154438025Y-47061503D01*
X154438022Y-47061502D01*
X154394969Y-47057091D01*
X154340400Y-47051500D01*
X153539600Y-47051500D01*
X153536354Y-47051837D01*
X153536350Y-47051837D01*
X153440692Y-47061762D01*
X153440688Y-47061763D01*
X153433834Y-47062474D01*
X153427298Y-47064655D01*
X153427296Y-47064655D01*
X153329796Y-47097184D01*
X153266054Y-47118450D01*
X153115652Y-47211522D01*
X152990695Y-47336697D01*
X152986855Y-47342927D01*
X152986854Y-47342928D01*
X152917136Y-47456032D01*
X152897885Y-47487262D01*
X152842203Y-47655139D01*
X152831500Y-47759600D01*
X152831500Y-48760400D01*
X152831837Y-48763646D01*
X152831837Y-48763650D01*
X152841618Y-48857914D01*
X152842474Y-48866166D01*
X152844655Y-48872702D01*
X152844655Y-48872704D01*
X152852524Y-48896290D01*
X152898450Y-49033946D01*
X152991522Y-49184348D01*
X153116697Y-49309305D01*
X153122927Y-49313145D01*
X153122928Y-49313146D01*
X153259352Y-49397239D01*
X153267262Y-49402115D01*
X153327934Y-49422239D01*
X153428611Y-49455632D01*
X153428613Y-49455632D01*
X153435139Y-49457797D01*
X153441975Y-49458497D01*
X153441978Y-49458498D01*
X153485031Y-49462909D01*
X153539600Y-49468500D01*
X154200406Y-49468500D01*
X154268527Y-49488502D01*
X154289501Y-49505405D01*
X155140990Y-50356894D01*
X155175016Y-50419206D01*
X155169951Y-50490021D01*
X155127404Y-50546857D01*
X155060884Y-50571668D01*
X155051895Y-50571989D01*
X152047228Y-50571989D01*
X151979107Y-50551987D01*
X151958133Y-50535084D01*
X151131143Y-49708094D01*
X151097117Y-49645782D01*
X151102182Y-49574967D01*
X151144729Y-49518131D01*
X151211249Y-49493320D01*
X151220238Y-49492999D01*
X151282095Y-49492999D01*
X151288614Y-49492662D01*
X151384206Y-49482743D01*
X151397600Y-49479851D01*
X151551784Y-49428412D01*
X151564962Y-49422239D01*
X151702807Y-49336937D01*
X151714208Y-49327901D01*
X151828739Y-49213171D01*
X151837751Y-49201760D01*
X151922816Y-49063757D01*
X151928963Y-49050576D01*
X151980138Y-48896290D01*
X151983005Y-48882914D01*
X151992672Y-48788562D01*
X151993000Y-48782146D01*
X151993000Y-48532115D01*
X151988525Y-48516876D01*
X151987135Y-48515671D01*
X151979452Y-48514000D01*
X150769500Y-48514000D01*
X150701379Y-48493998D01*
X150654886Y-48440342D01*
X150643500Y-48388000D01*
X150643500Y-47987885D01*
X151151500Y-47987885D01*
X151155975Y-48003124D01*
X151157365Y-48004329D01*
X151165048Y-48006000D01*
X151974884Y-48006000D01*
X151990123Y-48001525D01*
X151991328Y-48000135D01*
X151992999Y-47992452D01*
X151992999Y-47737905D01*
X151992662Y-47731386D01*
X151982743Y-47635794D01*
X151979851Y-47622400D01*
X151928412Y-47468216D01*
X151922239Y-47455038D01*
X151836937Y-47317193D01*
X151827901Y-47305792D01*
X151713171Y-47191261D01*
X151701760Y-47182249D01*
X151563757Y-47097184D01*
X151550576Y-47091037D01*
X151396290Y-47039862D01*
X151382914Y-47036995D01*
X151288562Y-47027328D01*
X151282145Y-47027000D01*
X151169615Y-47027000D01*
X151154376Y-47031475D01*
X151153171Y-47032865D01*
X151151500Y-47040548D01*
X151151500Y-47987885D01*
X150643500Y-47987885D01*
X150643500Y-47045116D01*
X150639025Y-47029877D01*
X150637635Y-47028672D01*
X150629952Y-47027001D01*
X150512905Y-47027001D01*
X150506386Y-47027338D01*
X150410794Y-47037257D01*
X150397400Y-47040149D01*
X150243216Y-47091588D01*
X150230038Y-47097761D01*
X150092193Y-47183063D01*
X150080792Y-47192099D01*
X149966262Y-47306828D01*
X149959206Y-47315762D01*
X149901288Y-47356823D01*
X149830365Y-47360053D01*
X149768954Y-47324426D01*
X149762154Y-47316593D01*
X149758478Y-47310652D01*
X149633303Y-47185695D01*
X149591857Y-47160147D01*
X149488968Y-47096725D01*
X149488966Y-47096724D01*
X149482738Y-47092885D01*
X149388121Y-47061502D01*
X149321389Y-47039368D01*
X149321387Y-47039368D01*
X149314861Y-47037203D01*
X149308025Y-47036503D01*
X149308022Y-47036502D01*
X149264969Y-47032091D01*
X149210400Y-47026500D01*
X148434600Y-47026500D01*
X148431354Y-47026837D01*
X148431350Y-47026837D01*
X148335692Y-47036762D01*
X148335688Y-47036763D01*
X148328834Y-47037474D01*
X148322298Y-47039655D01*
X148322296Y-47039655D01*
X148190194Y-47083728D01*
X148161054Y-47093450D01*
X148010652Y-47186522D01*
X148005479Y-47191704D01*
X147986521Y-47210695D01*
X147885695Y-47311697D01*
X147881855Y-47317927D01*
X147881854Y-47317928D01*
X147839520Y-47386607D01*
X147792885Y-47462262D01*
X147737203Y-47630139D01*
X147736503Y-47636975D01*
X147736502Y-47636978D01*
X147734062Y-47660794D01*
X147726500Y-47734600D01*
X147726500Y-48785400D01*
X147726837Y-48788646D01*
X147726837Y-48788650D01*
X147736618Y-48882914D01*
X147737474Y-48891166D01*
X147793450Y-49058946D01*
X147886522Y-49209348D01*
X147891704Y-49214521D01*
X147953451Y-49276161D01*
X148011697Y-49334305D01*
X148017927Y-49338145D01*
X148017928Y-49338146D01*
X148154352Y-49422239D01*
X148162262Y-49427115D01*
X148234361Y-49451029D01*
X148323611Y-49480632D01*
X148323613Y-49480632D01*
X148330139Y-49482797D01*
X148336975Y-49483497D01*
X148336978Y-49483498D01*
X148380031Y-49487909D01*
X148434600Y-49493500D01*
X149143261Y-49493500D01*
X149211382Y-49513502D01*
X149232356Y-49530405D01*
X151278674Y-51576723D01*
X151289541Y-51589114D01*
X151309002Y-51614476D01*
X151315552Y-51619502D01*
X151340914Y-51638963D01*
X151340917Y-51638966D01*
X151420480Y-51700017D01*
X151436113Y-51712013D01*
X151584138Y-51773327D01*
X151592325Y-51774405D01*
X151592326Y-51774405D01*
X151603531Y-51775880D01*
X151634727Y-51779987D01*
X151703104Y-51788989D01*
X151703107Y-51788989D01*
X151703115Y-51788990D01*
X151734800Y-51793161D01*
X151742989Y-51794239D01*
X151774682Y-51790067D01*
X151791125Y-51788989D01*
X152083103Y-51788989D01*
X152151224Y-51808991D01*
X152197717Y-51862647D01*
X152207821Y-51932921D01*
X152206440Y-51940755D01*
X152198326Y-51979597D01*
X152197085Y-51989152D01*
X152197000Y-51992384D01*
X152197000Y-52562885D01*
X152201475Y-52578124D01*
X152202865Y-52579329D01*
X152210548Y-52581000D01*
X154027000Y-52581000D01*
X154095121Y-52601002D01*
X154141614Y-52654658D01*
X154153000Y-52707000D01*
X154153000Y-52963000D01*
X154132998Y-53031121D01*
X154079342Y-53077614D01*
X154027000Y-53089000D01*
X153427115Y-53089000D01*
X153411876Y-53093475D01*
X153410671Y-53094865D01*
X153409000Y-53102548D01*
X153409000Y-54494229D01*
X153412973Y-54507760D01*
X153419075Y-54508637D01*
X153571136Y-54452690D01*
X153582549Y-54447123D01*
X153737108Y-54351292D01*
X153747174Y-54343540D01*
X153879303Y-54218592D01*
X153887605Y-54208974D01*
X153991913Y-54060006D01*
X154000341Y-54044927D01*
X154051036Y-53995223D01*
X154120556Y-53980818D01*
X154161574Y-53991295D01*
X154232367Y-54022814D01*
X154244863Y-54026874D01*
X154408364Y-54061628D01*
X154421424Y-54063000D01*
X154588576Y-54063000D01*
X154601636Y-54061628D01*
X154765140Y-54026873D01*
X154777628Y-54022816D01*
X154889763Y-53972890D01*
X154900507Y-53963758D01*
X154898642Y-53957175D01*
X154896926Y-53955024D01*
X154897829Y-53954303D01*
X154896445Y-53949419D01*
X154869921Y-53900845D01*
X154874986Y-53830030D01*
X154917533Y-53773194D01*
X154984053Y-53748383D01*
X155046690Y-53760054D01*
X155157682Y-53812283D01*
X155314906Y-53842275D01*
X155403400Y-53836708D01*
X155466738Y-53832723D01*
X155466740Y-53832723D01*
X155474650Y-53832225D01*
X155482186Y-53829776D01*
X155482188Y-53829776D01*
X155619333Y-53785215D01*
X155619336Y-53785214D01*
X155626875Y-53782764D01*
X155690170Y-53742596D01*
X155755319Y-53701252D01*
X155755323Y-53701249D01*
X155762018Y-53697000D01*
X155796303Y-53660490D01*
X155857513Y-53624526D01*
X155928453Y-53627363D01*
X155957971Y-53641858D01*
X155987313Y-53661390D01*
X156124157Y-53704142D01*
X156133129Y-53704306D01*
X156133132Y-53704307D01*
X156198463Y-53705504D01*
X156267499Y-53706770D01*
X156276533Y-53704307D01*
X156397158Y-53671421D01*
X156397160Y-53671420D01*
X156405817Y-53669060D01*
X156527991Y-53594045D01*
X156534012Y-53587393D01*
X156534018Y-53587388D01*
X156535839Y-53585376D01*
X156538134Y-53583971D01*
X156540923Y-53581655D01*
X156541257Y-53582058D01*
X156596384Y-53548298D01*
X156667364Y-53549839D01*
X156712737Y-53575723D01*
X156717970Y-53581948D01*
X156725441Y-53586921D01*
X156725442Y-53586922D01*
X156829836Y-53656413D01*
X156837313Y-53661390D01*
X156974157Y-53704142D01*
X156983129Y-53704306D01*
X156983132Y-53704307D01*
X157048463Y-53705504D01*
X157117499Y-53706770D01*
X157126533Y-53704307D01*
X157247158Y-53671421D01*
X157247160Y-53671420D01*
X157255817Y-53669060D01*
X157377991Y-53594045D01*
X157384012Y-53587393D01*
X157384018Y-53587388D01*
X157385839Y-53585376D01*
X157388134Y-53583971D01*
X157390923Y-53581655D01*
X157391257Y-53582058D01*
X157446384Y-53548298D01*
X157517364Y-53549839D01*
X157562737Y-53575723D01*
X157567970Y-53581948D01*
X157575441Y-53586921D01*
X157575442Y-53586922D01*
X157679836Y-53656413D01*
X157687313Y-53661390D01*
X157824157Y-53704142D01*
X157833129Y-53704306D01*
X157833132Y-53704307D01*
X157898463Y-53705504D01*
X157967499Y-53706770D01*
X157976163Y-53704408D01*
X157985066Y-53703299D01*
X157985485Y-53706661D01*
X158040054Y-53707726D01*
X158099020Y-53747268D01*
X158123043Y-53800235D01*
X158124327Y-53799862D01*
X158124327Y-53799863D01*
X158127936Y-53812283D01*
X158129978Y-53819313D01*
X158133987Y-53838674D01*
X158136526Y-53858771D01*
X158139445Y-53866142D01*
X158139445Y-53866144D01*
X158152804Y-53899886D01*
X158156649Y-53911116D01*
X158166747Y-53945874D01*
X158168982Y-53953567D01*
X158173015Y-53960386D01*
X158173017Y-53960391D01*
X158179293Y-53971002D01*
X158187988Y-53988750D01*
X158195448Y-54007591D01*
X158200110Y-54014007D01*
X158200110Y-54014008D01*
X158221436Y-54043361D01*
X158227952Y-54053281D01*
X158232889Y-54061628D01*
X158250458Y-54091336D01*
X158264779Y-54105657D01*
X158277619Y-54120690D01*
X158289528Y-54137081D01*
X158303924Y-54148990D01*
X158323593Y-54165262D01*
X158332374Y-54173252D01*
X158910899Y-54751778D01*
X158918433Y-54760057D01*
X158922546Y-54766538D01*
X158972197Y-54813163D01*
X158975039Y-54815918D01*
X158994776Y-54835655D01*
X158997973Y-54838135D01*
X159006993Y-54845838D01*
X159039225Y-54876106D01*
X159046171Y-54879925D01*
X159046174Y-54879927D01*
X159056980Y-54885868D01*
X159073499Y-54896719D01*
X159089505Y-54909134D01*
X159096774Y-54912279D01*
X159096778Y-54912282D01*
X159130083Y-54926694D01*
X159140733Y-54931911D01*
X159179486Y-54953215D01*
X159187161Y-54955186D01*
X159187162Y-54955186D01*
X159199108Y-54958253D01*
X159217813Y-54964657D01*
X159236401Y-54972701D01*
X159244224Y-54973940D01*
X159244234Y-54973943D01*
X159280070Y-54979619D01*
X159291690Y-54982025D01*
X159323505Y-54990193D01*
X159334516Y-54993020D01*
X159354770Y-54993020D01*
X159374480Y-54994571D01*
X159394489Y-54997740D01*
X159402381Y-54996994D01*
X159438507Y-54993579D01*
X159450365Y-54993020D01*
X160968997Y-54993020D01*
X161037118Y-55013022D01*
X161083611Y-55066678D01*
X161093715Y-55136952D01*
X161072210Y-55191290D01*
X160968093Y-55339986D01*
X160961892Y-55351081D01*
X160889668Y-55517980D01*
X160885829Y-55530083D01*
X160848325Y-55709600D01*
X160847085Y-55719152D01*
X160847000Y-55722384D01*
X160847000Y-55942885D01*
X160851475Y-55958124D01*
X160852865Y-55959329D01*
X160860548Y-55961000D01*
X162744885Y-55961000D01*
X162760124Y-55956525D01*
X162761329Y-55955135D01*
X162763000Y-55947452D01*
X162763000Y-55769553D01*
X162762677Y-55763178D01*
X162748918Y-55627723D01*
X162746364Y-55615283D01*
X162691984Y-55441756D01*
X162686975Y-55430068D01*
X162598813Y-55271021D01*
X162591562Y-55260588D01*
X162473215Y-55122509D01*
X162464022Y-55113755D01*
X162452232Y-55104609D01*
X162410666Y-55047052D01*
X162406816Y-54976160D01*
X162441904Y-54914440D01*
X162455399Y-54903113D01*
X162469203Y-54893084D01*
X162479123Y-54886568D01*
X162510351Y-54868100D01*
X162510354Y-54868098D01*
X162517178Y-54864062D01*
X162531499Y-54849741D01*
X162546533Y-54836900D01*
X162553935Y-54831522D01*
X162562923Y-54824992D01*
X162591114Y-54790915D01*
X162599104Y-54782136D01*
X162971767Y-54409473D01*
X162980057Y-54401929D01*
X162986538Y-54397816D01*
X163033179Y-54348148D01*
X163035933Y-54345307D01*
X163055654Y-54325586D01*
X163058132Y-54322391D01*
X163065838Y-54313369D01*
X163090678Y-54286917D01*
X163096106Y-54281137D01*
X163105866Y-54263384D01*
X163116719Y-54246861D01*
X163124273Y-54237122D01*
X163129133Y-54230857D01*
X163146696Y-54190273D01*
X163151903Y-54179643D01*
X163173215Y-54140876D01*
X163175186Y-54133199D01*
X163175188Y-54133194D01*
X163178252Y-54121258D01*
X163184658Y-54102546D01*
X163189554Y-54091233D01*
X163192701Y-54083961D01*
X163196239Y-54061628D01*
X163199617Y-54040297D01*
X163202024Y-54028676D01*
X163211048Y-53993527D01*
X163211048Y-53993526D01*
X163213020Y-53985846D01*
X163213020Y-53965585D01*
X163214571Y-53945874D01*
X163216499Y-53933701D01*
X163217739Y-53925873D01*
X163213579Y-53881862D01*
X163213020Y-53870005D01*
X163213020Y-50898287D01*
X163213547Y-50887104D01*
X163215222Y-50879611D01*
X163213082Y-50811520D01*
X163213020Y-50807563D01*
X163213020Y-50779664D01*
X163212516Y-50775673D01*
X163211583Y-50763831D01*
X163210443Y-50727556D01*
X163210194Y-50719631D01*
X163207982Y-50712017D01*
X163207981Y-50712012D01*
X163204543Y-50700179D01*
X163200532Y-50680815D01*
X163198987Y-50668584D01*
X163197994Y-50660723D01*
X163195077Y-50653356D01*
X163195076Y-50653351D01*
X163181718Y-50619612D01*
X163177874Y-50608385D01*
X163173951Y-50594883D01*
X163165538Y-50565927D01*
X163157294Y-50551987D01*
X163155227Y-50548492D01*
X163146532Y-50530744D01*
X163139072Y-50511903D01*
X163130376Y-50499933D01*
X163113084Y-50476133D01*
X163106568Y-50466213D01*
X163088100Y-50434985D01*
X163088098Y-50434982D01*
X163084062Y-50428158D01*
X163069741Y-50413837D01*
X163056900Y-50398803D01*
X163052325Y-50392506D01*
X163044992Y-50382413D01*
X163010915Y-50354222D01*
X163002136Y-50346232D01*
X162276305Y-49620401D01*
X161989755Y-49333850D01*
X161955730Y-49271540D01*
X161960795Y-49200725D01*
X161971591Y-49178641D01*
X162057816Y-49038757D01*
X162063963Y-49025576D01*
X162115138Y-48871290D01*
X162118005Y-48857914D01*
X162127672Y-48763562D01*
X162128000Y-48757146D01*
X162128000Y-48532115D01*
X162123525Y-48516876D01*
X162122135Y-48515671D01*
X162114452Y-48514000D01*
X160892000Y-48514000D01*
X160823879Y-48493998D01*
X160777386Y-48440342D01*
X160766000Y-48388000D01*
X160766000Y-48132000D01*
X160786002Y-48063879D01*
X160839658Y-48017386D01*
X160892000Y-48006000D01*
X162109884Y-48006000D01*
X162125123Y-48001525D01*
X162126328Y-48000135D01*
X162130878Y-47979217D01*
X162132522Y-47979575D01*
X162148001Y-47926859D01*
X162201657Y-47880366D01*
X162253999Y-47868980D01*
X162910886Y-47868980D01*
X162979007Y-47888982D01*
X162999981Y-47905885D01*
X165484595Y-50390500D01*
X165518621Y-50452812D01*
X165521500Y-50479595D01*
X165521500Y-51838134D01*
X165528255Y-51900316D01*
X165579385Y-52036705D01*
X165609040Y-52076273D01*
X165637953Y-52114852D01*
X165662801Y-52181358D01*
X165647748Y-52250741D01*
X165637953Y-52265982D01*
X165585214Y-52336352D01*
X165576676Y-52351946D01*
X165531522Y-52472394D01*
X165527895Y-52487649D01*
X165522369Y-52538514D01*
X165522000Y-52545328D01*
X165522000Y-53067885D01*
X165526475Y-53083124D01*
X165527865Y-53084329D01*
X165535548Y-53086000D01*
X167158000Y-53086000D01*
X167226121Y-53106002D01*
X167272614Y-53159658D01*
X167284000Y-53212000D01*
X167284000Y-53468000D01*
X167263998Y-53536121D01*
X167210342Y-53582614D01*
X167158000Y-53594000D01*
X165540116Y-53594000D01*
X165524877Y-53598475D01*
X165523672Y-53599865D01*
X165522001Y-53607548D01*
X165522001Y-54134669D01*
X165522371Y-54141490D01*
X165527895Y-54192352D01*
X165531521Y-54207604D01*
X165576676Y-54328054D01*
X165585214Y-54343648D01*
X165637953Y-54414018D01*
X165662801Y-54480524D01*
X165647748Y-54549907D01*
X165637953Y-54565148D01*
X165579385Y-54643295D01*
X165528255Y-54779684D01*
X165521500Y-54841866D01*
X165521500Y-56438134D01*
X165528255Y-56500316D01*
X165579385Y-56636705D01*
X165666739Y-56753261D01*
X165783295Y-56840615D01*
X165919684Y-56891745D01*
X165981866Y-56898500D01*
X166270500Y-56898500D01*
X166338621Y-56918502D01*
X166385114Y-56972158D01*
X166396500Y-57024500D01*
X166396500Y-58768733D01*
X166395973Y-58779916D01*
X166394298Y-58787409D01*
X166394547Y-58795335D01*
X166394547Y-58795336D01*
X166396438Y-58855486D01*
X166396500Y-58859445D01*
X166396500Y-58887356D01*
X166396997Y-58891290D01*
X166396997Y-58891291D01*
X166397005Y-58891356D01*
X166397938Y-58903193D01*
X166399327Y-58947389D01*
X166404373Y-58964758D01*
X166404978Y-58966839D01*
X166408987Y-58986200D01*
X166411526Y-59006297D01*
X166414445Y-59013668D01*
X166414445Y-59013670D01*
X166427804Y-59047412D01*
X166431649Y-59058642D01*
X166440877Y-59090405D01*
X166443982Y-59101093D01*
X166448015Y-59107912D01*
X166448017Y-59107917D01*
X166454293Y-59118528D01*
X166462988Y-59136276D01*
X166470448Y-59155117D01*
X166475110Y-59161533D01*
X166475110Y-59161534D01*
X166496436Y-59190887D01*
X166502952Y-59200807D01*
X166519620Y-59228990D01*
X166525458Y-59238862D01*
X166539779Y-59253183D01*
X166552619Y-59268216D01*
X166564528Y-59284607D01*
X166591369Y-59306812D01*
X166598605Y-59312798D01*
X166607384Y-59320788D01*
X168009595Y-60722999D01*
X168043621Y-60785311D01*
X168046500Y-60812094D01*
X168046500Y-61107906D01*
X168026498Y-61176027D01*
X168009595Y-61197001D01*
X165745247Y-63461348D01*
X165736961Y-63468888D01*
X165730482Y-63473000D01*
X165725057Y-63478777D01*
X165683857Y-63522651D01*
X165681102Y-63525493D01*
X165661365Y-63545230D01*
X165658885Y-63548427D01*
X165651182Y-63557447D01*
X165620914Y-63589679D01*
X165617095Y-63596625D01*
X165617093Y-63596628D01*
X165611152Y-63607434D01*
X165600301Y-63623953D01*
X165587886Y-63639959D01*
X165584741Y-63647228D01*
X165584738Y-63647232D01*
X165570326Y-63680537D01*
X165565109Y-63691187D01*
X165543805Y-63729940D01*
X165541834Y-63737615D01*
X165541834Y-63737616D01*
X165538767Y-63749562D01*
X165532363Y-63768266D01*
X165524319Y-63786855D01*
X165523080Y-63794678D01*
X165523077Y-63794688D01*
X165517401Y-63830524D01*
X165514995Y-63842144D01*
X165504000Y-63884970D01*
X165504000Y-63905224D01*
X165502449Y-63924934D01*
X165499280Y-63944943D01*
X165500026Y-63952835D01*
X165503441Y-63988961D01*
X165504000Y-64000819D01*
X165504000Y-64785954D01*
X165483998Y-64854075D01*
X165444303Y-64893098D01*
X165423661Y-64905872D01*
X165325652Y-64966522D01*
X165200695Y-65091697D01*
X165197898Y-65096235D01*
X165140647Y-65136824D01*
X165069724Y-65140054D01*
X165008313Y-65104428D01*
X165000938Y-65095932D01*
X164992902Y-65085793D01*
X164878171Y-64971261D01*
X164866760Y-64962249D01*
X164728757Y-64877184D01*
X164715576Y-64871037D01*
X164561290Y-64819862D01*
X164547914Y-64816995D01*
X164453562Y-64807328D01*
X164447145Y-64807000D01*
X164334615Y-64807000D01*
X164319376Y-64811475D01*
X164318171Y-64812865D01*
X164316500Y-64820548D01*
X164316500Y-66168000D01*
X164296498Y-66236121D01*
X164242842Y-66282614D01*
X164190500Y-66294000D01*
X162985116Y-66294000D01*
X162969877Y-66298475D01*
X162968672Y-66299865D01*
X162967001Y-66307548D01*
X162967001Y-66562095D01*
X162967338Y-66568614D01*
X162977257Y-66664206D01*
X162980149Y-66677600D01*
X163031588Y-66831784D01*
X163037761Y-66844962D01*
X163123063Y-66982807D01*
X163132099Y-66994208D01*
X163246829Y-67108739D01*
X163258240Y-67117751D01*
X163396243Y-67202816D01*
X163409424Y-67208963D01*
X163563710Y-67260138D01*
X163577086Y-67263005D01*
X163671438Y-67272672D01*
X163677854Y-67273000D01*
X163704404Y-67273000D01*
X163772525Y-67293002D01*
X163819018Y-67346658D01*
X163829122Y-67416932D01*
X163799628Y-67481512D01*
X163793499Y-67488095D01*
X163707742Y-67573852D01*
X163699462Y-67581387D01*
X163692982Y-67585500D01*
X163669978Y-67609997D01*
X163646357Y-67635151D01*
X163643602Y-67637993D01*
X163623865Y-67657730D01*
X163621385Y-67660927D01*
X163613682Y-67669947D01*
X163583414Y-67702179D01*
X163579595Y-67709125D01*
X163579593Y-67709128D01*
X163573652Y-67719934D01*
X163562801Y-67736453D01*
X163550386Y-67752459D01*
X163547241Y-67759728D01*
X163547238Y-67759732D01*
X163532826Y-67793037D01*
X163527609Y-67803687D01*
X163506305Y-67842440D01*
X163504334Y-67850115D01*
X163504334Y-67850116D01*
X163501267Y-67862062D01*
X163494863Y-67880766D01*
X163486819Y-67899355D01*
X163485580Y-67907178D01*
X163485577Y-67907188D01*
X163479901Y-67943024D01*
X163477495Y-67954644D01*
X163466500Y-67997470D01*
X163466500Y-68017724D01*
X163464949Y-68037434D01*
X163461780Y-68057443D01*
X163462526Y-68065335D01*
X163465941Y-68101461D01*
X163466500Y-68113319D01*
X163466500Y-70360500D01*
X163446498Y-70428621D01*
X163392842Y-70475114D01*
X163340500Y-70486500D01*
X161899500Y-70486500D01*
X161831379Y-70466498D01*
X161784886Y-70412842D01*
X161773500Y-70360500D01*
X161773499Y-70003496D01*
X161773499Y-70001022D01*
X161770674Y-69965111D01*
X161768880Y-69958937D01*
X161768879Y-69958930D01*
X161730012Y-69825153D01*
X161730012Y-69754847D01*
X161768877Y-69621075D01*
X161768878Y-69621070D01*
X161770674Y-69614889D01*
X161771670Y-69602238D01*
X161773307Y-69581438D01*
X161773308Y-69581425D01*
X161773500Y-69578979D01*
X161773499Y-69201022D01*
X161770674Y-69165111D01*
X161768880Y-69158937D01*
X161768879Y-69158930D01*
X161730012Y-69025153D01*
X161730012Y-68954847D01*
X161768877Y-68821075D01*
X161768878Y-68821070D01*
X161770674Y-68814889D01*
X161772357Y-68793504D01*
X161773307Y-68781438D01*
X161773308Y-68781425D01*
X161773500Y-68778979D01*
X161773499Y-68401022D01*
X161770674Y-68365111D01*
X161768880Y-68358937D01*
X161768879Y-68358930D01*
X161730012Y-68225153D01*
X161730012Y-68154847D01*
X161768877Y-68021075D01*
X161768878Y-68021070D01*
X161770674Y-68014889D01*
X161772045Y-67997470D01*
X161773307Y-67981438D01*
X161773308Y-67981425D01*
X161773500Y-67978979D01*
X161773499Y-67601022D01*
X161770674Y-67565111D01*
X161768880Y-67558937D01*
X161768879Y-67558930D01*
X161730012Y-67425153D01*
X161730012Y-67354847D01*
X161768877Y-67221075D01*
X161768878Y-67221070D01*
X161770674Y-67214889D01*
X161771670Y-67202238D01*
X161773307Y-67181438D01*
X161773308Y-67181425D01*
X161773500Y-67178979D01*
X161773499Y-66801022D01*
X161770674Y-66765111D01*
X161768880Y-66758937D01*
X161768879Y-66758930D01*
X161730012Y-66625153D01*
X161730012Y-66554846D01*
X161761216Y-66447445D01*
X161793118Y-66393504D01*
X161981773Y-66204849D01*
X161990059Y-66197309D01*
X161996538Y-66193197D01*
X162043164Y-66143545D01*
X162045918Y-66140704D01*
X162065655Y-66120967D01*
X162068135Y-66117770D01*
X162075840Y-66108748D01*
X162106106Y-66076518D01*
X162109925Y-66069572D01*
X162109927Y-66069569D01*
X162115868Y-66058763D01*
X162126719Y-66042244D01*
X162127079Y-66041780D01*
X162139134Y-66026238D01*
X162142279Y-66018969D01*
X162142282Y-66018965D01*
X162156694Y-65985660D01*
X162161911Y-65975010D01*
X162183215Y-65936257D01*
X162188253Y-65916634D01*
X162194657Y-65897931D01*
X162199553Y-65886617D01*
X162199553Y-65886616D01*
X162202701Y-65879342D01*
X162203940Y-65871519D01*
X162203943Y-65871509D01*
X162209619Y-65835673D01*
X162212025Y-65824053D01*
X162221048Y-65788908D01*
X162221048Y-65788907D01*
X162223020Y-65781227D01*
X162223020Y-65767885D01*
X162967000Y-65767885D01*
X162971475Y-65783124D01*
X162972865Y-65784329D01*
X162980548Y-65786000D01*
X163790385Y-65786000D01*
X163805624Y-65781525D01*
X163806829Y-65780135D01*
X163808500Y-65772452D01*
X163808500Y-64825116D01*
X163804025Y-64809877D01*
X163802635Y-64808672D01*
X163794952Y-64807001D01*
X163677905Y-64807001D01*
X163671386Y-64807338D01*
X163575794Y-64817257D01*
X163562400Y-64820149D01*
X163408216Y-64871588D01*
X163395038Y-64877761D01*
X163257193Y-64963063D01*
X163245792Y-64972099D01*
X163131261Y-65086829D01*
X163122249Y-65098240D01*
X163037184Y-65236243D01*
X163031037Y-65249424D01*
X162979862Y-65403710D01*
X162976995Y-65417086D01*
X162967328Y-65511438D01*
X162967000Y-65517855D01*
X162967000Y-65767885D01*
X162223020Y-65767885D01*
X162223020Y-65760973D01*
X162224571Y-65741262D01*
X162226500Y-65729083D01*
X162227740Y-65721254D01*
X162223579Y-65677235D01*
X162223020Y-65665378D01*
X162223020Y-64521853D01*
X162223547Y-64510670D01*
X162225222Y-64503177D01*
X162223082Y-64435100D01*
X162223020Y-64431141D01*
X162223020Y-64403230D01*
X162222515Y-64399230D01*
X162221582Y-64387387D01*
X162221460Y-64383489D01*
X162220193Y-64343196D01*
X162214542Y-64323744D01*
X162210534Y-64304392D01*
X162208987Y-64292149D01*
X162207994Y-64284289D01*
X162205076Y-64276918D01*
X162191720Y-64243183D01*
X162187875Y-64231956D01*
X162186552Y-64227404D01*
X162175538Y-64189493D01*
X162171504Y-64182671D01*
X162171501Y-64182665D01*
X162165226Y-64172054D01*
X162156530Y-64154304D01*
X162151992Y-64142842D01*
X162151989Y-64142837D01*
X162149072Y-64135469D01*
X162123093Y-64099711D01*
X162116577Y-64089793D01*
X162098095Y-64058543D01*
X162094062Y-64051723D01*
X162079738Y-64037399D01*
X162066896Y-64022364D01*
X162054992Y-64005979D01*
X162020926Y-63977797D01*
X162012147Y-63969808D01*
X155620566Y-57578227D01*
X155613026Y-57569941D01*
X155608914Y-57563462D01*
X155559262Y-57516836D01*
X155556421Y-57514082D01*
X155536684Y-57494345D01*
X155533487Y-57491865D01*
X155524465Y-57484160D01*
X155522900Y-57482690D01*
X155492235Y-57453894D01*
X155485289Y-57450075D01*
X155485286Y-57450073D01*
X155474480Y-57444132D01*
X155457961Y-57433281D01*
X155457497Y-57432921D01*
X155441955Y-57420866D01*
X155434686Y-57417721D01*
X155434682Y-57417718D01*
X155401377Y-57403306D01*
X155390727Y-57398089D01*
X155351974Y-57376785D01*
X155332351Y-57371747D01*
X155313648Y-57365343D01*
X155302334Y-57360447D01*
X155302333Y-57360447D01*
X155295059Y-57357299D01*
X155287236Y-57356060D01*
X155287226Y-57356057D01*
X155251390Y-57350381D01*
X155239770Y-57347975D01*
X155204625Y-57338952D01*
X155204624Y-57338952D01*
X155196944Y-57336980D01*
X155176690Y-57336980D01*
X155156979Y-57335429D01*
X155144800Y-57333500D01*
X155136971Y-57332260D01*
X155129079Y-57333006D01*
X155092953Y-57336421D01*
X155081095Y-57336980D01*
X154061023Y-57336980D01*
X153992902Y-57316978D01*
X153946409Y-57263322D01*
X153936305Y-57193048D01*
X153957810Y-57138710D01*
X153991908Y-57090013D01*
X153998108Y-57078919D01*
X154070332Y-56912020D01*
X154074171Y-56899917D01*
X154111675Y-56720400D01*
X154112915Y-56710848D01*
X154113000Y-56707616D01*
X154113000Y-56660447D01*
X160847000Y-56660447D01*
X160847323Y-56666822D01*
X160861082Y-56802277D01*
X160863636Y-56814717D01*
X160918016Y-56988244D01*
X160923025Y-56999932D01*
X161011187Y-57158979D01*
X161018438Y-57169412D01*
X161136785Y-57307491D01*
X161145976Y-57316244D01*
X161289680Y-57427711D01*
X161300440Y-57434435D01*
X161463625Y-57514732D01*
X161475519Y-57519155D01*
X161533470Y-57534251D01*
X161547564Y-57533817D01*
X161551000Y-57525636D01*
X161551000Y-57524229D01*
X162059000Y-57524229D01*
X162062973Y-57537760D01*
X162069075Y-57538637D01*
X162221136Y-57482690D01*
X162232549Y-57477123D01*
X162387108Y-57381292D01*
X162397174Y-57373540D01*
X162529303Y-57248592D01*
X162537605Y-57238974D01*
X162641908Y-57090013D01*
X162648108Y-57078919D01*
X162720332Y-56912020D01*
X162724171Y-56899917D01*
X162761675Y-56720400D01*
X162762915Y-56710848D01*
X162763000Y-56707616D01*
X162763000Y-56487115D01*
X162758525Y-56471876D01*
X162757135Y-56470671D01*
X162749452Y-56469000D01*
X162077115Y-56469000D01*
X162061876Y-56473475D01*
X162060671Y-56474865D01*
X162059000Y-56482548D01*
X162059000Y-57524229D01*
X161551000Y-57524229D01*
X161551000Y-56487115D01*
X161546525Y-56471876D01*
X161545135Y-56470671D01*
X161537452Y-56469000D01*
X160865115Y-56469000D01*
X160849876Y-56473475D01*
X160848671Y-56474865D01*
X160847000Y-56482548D01*
X160847000Y-56660447D01*
X154113000Y-56660447D01*
X154113000Y-56487115D01*
X154108525Y-56471876D01*
X154107135Y-56470671D01*
X154099452Y-56469000D01*
X152215115Y-56469000D01*
X152199876Y-56473475D01*
X152188791Y-56486267D01*
X152129065Y-56524650D01*
X152058068Y-56524650D01*
X152004472Y-56492849D01*
X151454508Y-55942885D01*
X152197000Y-55942885D01*
X152201475Y-55958124D01*
X152202865Y-55959329D01*
X152210548Y-55961000D01*
X152882885Y-55961000D01*
X152898124Y-55956525D01*
X152899329Y-55955135D01*
X152901000Y-55947452D01*
X152901000Y-55942885D01*
X153409000Y-55942885D01*
X153413475Y-55958124D01*
X153414865Y-55959329D01*
X153422548Y-55961000D01*
X154094885Y-55961000D01*
X154110124Y-55956525D01*
X154111329Y-55955135D01*
X154113000Y-55947452D01*
X154113000Y-55769553D01*
X154112677Y-55763178D01*
X154098918Y-55627723D01*
X154096364Y-55615283D01*
X154041984Y-55441756D01*
X154036975Y-55430068D01*
X153948813Y-55271021D01*
X153941562Y-55260588D01*
X153823215Y-55122509D01*
X153814024Y-55113756D01*
X153670320Y-55002289D01*
X153659560Y-54995565D01*
X153496375Y-54915268D01*
X153484481Y-54910845D01*
X153426530Y-54895749D01*
X153412436Y-54896183D01*
X153409000Y-54904364D01*
X153409000Y-55942885D01*
X152901000Y-55942885D01*
X152901000Y-54905771D01*
X152897027Y-54892240D01*
X152890925Y-54891363D01*
X152738864Y-54947310D01*
X152727451Y-54952877D01*
X152572892Y-55048708D01*
X152562826Y-55056460D01*
X152430697Y-55181408D01*
X152422395Y-55191026D01*
X152318092Y-55339987D01*
X152311892Y-55351081D01*
X152239668Y-55517980D01*
X152235829Y-55530083D01*
X152198325Y-55709600D01*
X152197085Y-55719152D01*
X152197000Y-55722384D01*
X152197000Y-55942885D01*
X151454508Y-55942885D01*
X149164916Y-53653293D01*
X149152441Y-53630447D01*
X152197000Y-53630447D01*
X152197323Y-53636822D01*
X152211082Y-53772277D01*
X152213636Y-53784717D01*
X152268016Y-53958244D01*
X152273025Y-53969932D01*
X152361187Y-54128979D01*
X152368438Y-54139412D01*
X152486785Y-54277491D01*
X152495976Y-54286244D01*
X152639680Y-54397711D01*
X152650440Y-54404435D01*
X152813625Y-54484732D01*
X152825519Y-54489155D01*
X152883470Y-54504251D01*
X152897564Y-54503817D01*
X152901000Y-54495636D01*
X152901000Y-53107115D01*
X152896525Y-53091876D01*
X152895135Y-53090671D01*
X152887452Y-53089000D01*
X152215115Y-53089000D01*
X152199876Y-53093475D01*
X152198671Y-53094865D01*
X152197000Y-53102548D01*
X152197000Y-53630447D01*
X149152441Y-53630447D01*
X149130890Y-53590981D01*
X149128011Y-53564198D01*
X149128011Y-52932268D01*
X149128538Y-52921085D01*
X149130213Y-52913592D01*
X149128073Y-52845501D01*
X149128011Y-52841544D01*
X149128011Y-52813645D01*
X149127507Y-52809654D01*
X149126574Y-52797812D01*
X149125434Y-52761537D01*
X149125185Y-52753612D01*
X149122973Y-52745998D01*
X149122972Y-52745993D01*
X149119534Y-52734160D01*
X149115523Y-52714796D01*
X149114921Y-52710026D01*
X149112985Y-52694704D01*
X149110068Y-52687337D01*
X149110067Y-52687332D01*
X149096709Y-52653593D01*
X149092865Y-52642366D01*
X149085353Y-52616512D01*
X149080529Y-52599908D01*
X149071443Y-52584544D01*
X149070218Y-52582473D01*
X149061523Y-52564725D01*
X149054063Y-52545884D01*
X149048709Y-52538514D01*
X149028075Y-52510114D01*
X149021559Y-52500194D01*
X149003091Y-52468966D01*
X149003089Y-52468963D01*
X148999053Y-52462139D01*
X148984732Y-52447818D01*
X148971891Y-52432784D01*
X148964643Y-52422808D01*
X148959983Y-52416394D01*
X148925918Y-52388213D01*
X148917137Y-52380223D01*
X148310146Y-51773231D01*
X148302612Y-51764952D01*
X148298499Y-51758471D01*
X148248847Y-51711845D01*
X148246006Y-51709091D01*
X148226269Y-51689354D01*
X148223072Y-51686874D01*
X148214050Y-51679169D01*
X148209896Y-51675268D01*
X148181820Y-51648903D01*
X148174874Y-51645084D01*
X148174871Y-51645082D01*
X148164065Y-51639141D01*
X148147546Y-51628290D01*
X148147082Y-51627930D01*
X148131540Y-51615875D01*
X148124271Y-51612730D01*
X148124267Y-51612727D01*
X148090962Y-51598315D01*
X148080312Y-51593098D01*
X148041559Y-51571794D01*
X148021936Y-51566756D01*
X148003233Y-51560352D01*
X147991919Y-51555456D01*
X147991918Y-51555456D01*
X147984644Y-51552308D01*
X147976821Y-51551069D01*
X147976811Y-51551066D01*
X147940975Y-51545390D01*
X147929355Y-51542984D01*
X147894210Y-51533961D01*
X147894209Y-51533961D01*
X147886529Y-51531989D01*
X147866275Y-51531989D01*
X147846564Y-51530438D01*
X147834385Y-51528509D01*
X147826556Y-51527269D01*
X147797285Y-51530036D01*
X147782538Y-51531430D01*
X147770680Y-51531989D01*
X146912269Y-51531989D01*
X146901086Y-51531462D01*
X146893593Y-51529787D01*
X146885667Y-51530036D01*
X146885666Y-51530036D01*
X146825503Y-51531927D01*
X146821545Y-51531989D01*
X146793645Y-51531989D01*
X146789655Y-51532493D01*
X146777821Y-51533425D01*
X146733612Y-51534815D01*
X146725996Y-51537028D01*
X146725994Y-51537028D01*
X146714153Y-51540468D01*
X146694794Y-51544477D01*
X146693484Y-51544643D01*
X146674704Y-51547015D01*
X146667338Y-51549931D01*
X146667332Y-51549933D01*
X146633599Y-51563289D01*
X146622369Y-51567134D01*
X146606329Y-51571794D01*
X146579908Y-51579470D01*
X146573085Y-51583505D01*
X146562467Y-51589784D01*
X146544714Y-51598481D01*
X146537069Y-51601508D01*
X146525884Y-51605937D01*
X146514131Y-51614476D01*
X146490113Y-51631926D01*
X146480196Y-51638440D01*
X146442139Y-51660947D01*
X146427818Y-51675268D01*
X146412785Y-51688108D01*
X146396394Y-51700017D01*
X146391343Y-51706122D01*
X146391338Y-51706127D01*
X146368207Y-51734087D01*
X146360220Y-51742865D01*
X146178112Y-51924974D01*
X146060838Y-52042248D01*
X145998525Y-52076273D01*
X145927710Y-52071209D01*
X145896180Y-52053981D01*
X145876705Y-52039385D01*
X145740316Y-51988255D01*
X145678134Y-51981500D01*
X143881866Y-51981500D01*
X143819684Y-51988255D01*
X143683295Y-52039385D01*
X143566739Y-52126739D01*
X143479385Y-52243295D01*
X143428255Y-52379684D01*
X143421500Y-52441866D01*
X143421500Y-54238134D01*
X143428255Y-54300316D01*
X143479385Y-54436705D01*
X143566739Y-54553261D01*
X143683295Y-54640615D01*
X143691704Y-54643767D01*
X143691705Y-54643768D01*
X143800451Y-54684535D01*
X143857216Y-54727176D01*
X143881916Y-54793738D01*
X143866709Y-54863087D01*
X143847316Y-54889568D01*
X143746351Y-54995222D01*
X143720629Y-55022138D01*
X143717715Y-55026410D01*
X143717714Y-55026411D01*
X143658132Y-55113755D01*
X143594743Y-55206680D01*
X143556010Y-55290123D01*
X143502885Y-55404573D01*
X143500688Y-55409305D01*
X143440989Y-55624570D01*
X143417251Y-55846695D01*
X143417548Y-55851848D01*
X143417548Y-55851851D01*
X143429812Y-56064547D01*
X143430110Y-56069715D01*
X143431247Y-56074761D01*
X143431248Y-56074767D01*
X143445449Y-56137778D01*
X143479222Y-56287639D01*
X143519346Y-56386453D01*
X143554682Y-56473475D01*
X143563266Y-56494616D01*
X143609790Y-56570537D01*
X143677291Y-56680688D01*
X143679987Y-56685088D01*
X143826250Y-56853938D01*
X143998126Y-56996632D01*
X144035164Y-57018275D01*
X144071955Y-57039774D01*
X144120679Y-57091412D01*
X144133750Y-57161195D01*
X144107019Y-57226967D01*
X144066562Y-57260327D01*
X144058457Y-57264546D01*
X144049738Y-57270036D01*
X143879433Y-57397905D01*
X143871726Y-57404748D01*
X143724590Y-57558717D01*
X143718104Y-57566727D01*
X143598098Y-57742649D01*
X143593000Y-57751623D01*
X143503338Y-57944783D01*
X143499775Y-57954470D01*
X143444389Y-58154183D01*
X143445912Y-58162607D01*
X143458292Y-58166000D01*
X148638344Y-58166000D01*
X148651875Y-58162027D01*
X148653180Y-58152947D01*
X148611214Y-57985875D01*
X148607894Y-57976124D01*
X148522972Y-57780814D01*
X148518105Y-57771739D01*
X148402426Y-57592926D01*
X148396136Y-57584757D01*
X148252806Y-57427240D01*
X148245273Y-57420215D01*
X148078139Y-57288222D01*
X148069556Y-57282520D01*
X148032602Y-57262120D01*
X147982631Y-57211687D01*
X147967859Y-57142245D01*
X147992975Y-57075839D01*
X148020327Y-57049232D01*
X148089443Y-56999932D01*
X148199860Y-56921173D01*
X148221191Y-56899917D01*
X148346575Y-56774970D01*
X148358096Y-56763489D01*
X148389059Y-56720400D01*
X148485435Y-56586277D01*
X148488453Y-56582077D01*
X148494157Y-56570537D01*
X148585136Y-56386453D01*
X148585137Y-56386451D01*
X148587430Y-56381811D01*
X148652370Y-56168069D01*
X148681529Y-55946590D01*
X148681986Y-55927881D01*
X148682676Y-55899654D01*
X148704336Y-55832042D01*
X148759111Y-55786874D01*
X148829611Y-55778490D01*
X148897733Y-55813637D01*
X150400339Y-57316244D01*
X151896348Y-58812253D01*
X151903888Y-58820539D01*
X151908000Y-58827018D01*
X151913777Y-58832443D01*
X151957651Y-58873643D01*
X151960493Y-58876398D01*
X151980230Y-58896135D01*
X151983427Y-58898615D01*
X151992447Y-58906318D01*
X152024679Y-58936586D01*
X152031625Y-58940405D01*
X152031628Y-58940407D01*
X152042434Y-58946348D01*
X152058953Y-58957199D01*
X152074959Y-58969614D01*
X152082228Y-58972759D01*
X152082232Y-58972762D01*
X152115537Y-58987174D01*
X152126187Y-58992391D01*
X152164940Y-59013695D01*
X152172615Y-59015666D01*
X152172616Y-59015666D01*
X152184562Y-59018733D01*
X152203266Y-59025137D01*
X152213587Y-59029603D01*
X152221855Y-59033181D01*
X152229678Y-59034420D01*
X152229688Y-59034423D01*
X152265524Y-59040099D01*
X152277144Y-59042505D01*
X152312289Y-59051528D01*
X152319970Y-59053500D01*
X152340224Y-59053500D01*
X152359934Y-59055051D01*
X152379943Y-59058220D01*
X152387835Y-59057474D01*
X152423961Y-59054059D01*
X152435819Y-59053500D01*
X154616123Y-59053500D01*
X154684244Y-59073502D01*
X154705218Y-59090405D01*
X158165174Y-62550361D01*
X158199200Y-62612673D01*
X158194135Y-62683488D01*
X158151588Y-62740324D01*
X158111232Y-62760453D01*
X157975153Y-62799988D01*
X157904847Y-62799988D01*
X157771075Y-62761123D01*
X157771073Y-62761123D01*
X157764889Y-62759326D01*
X157752238Y-62758330D01*
X157731438Y-62756693D01*
X157731425Y-62756692D01*
X157728979Y-62756500D01*
X157540115Y-62756500D01*
X157351022Y-62756501D01*
X157343234Y-62757114D01*
X157321526Y-62758821D01*
X157321523Y-62758822D01*
X157315111Y-62759326D01*
X157308937Y-62761120D01*
X157308930Y-62761121D01*
X157175153Y-62799988D01*
X157104847Y-62799988D01*
X156971075Y-62761123D01*
X156971073Y-62761123D01*
X156964889Y-62759326D01*
X156952238Y-62758330D01*
X156931438Y-62756693D01*
X156931425Y-62756692D01*
X156928979Y-62756500D01*
X156740115Y-62756500D01*
X156551022Y-62756501D01*
X156543234Y-62757114D01*
X156521526Y-62758821D01*
X156521523Y-62758822D01*
X156515111Y-62759326D01*
X156508937Y-62761120D01*
X156508930Y-62761121D01*
X156375153Y-62799988D01*
X156304847Y-62799988D01*
X156171075Y-62761123D01*
X156171073Y-62761123D01*
X156164889Y-62759326D01*
X156152238Y-62758330D01*
X156131438Y-62756693D01*
X156131425Y-62756692D01*
X156128979Y-62756500D01*
X155940115Y-62756500D01*
X155751022Y-62756501D01*
X155743234Y-62757114D01*
X155721526Y-62758821D01*
X155721523Y-62758822D01*
X155715111Y-62759326D01*
X155708937Y-62761120D01*
X155708930Y-62761121D01*
X155575153Y-62799988D01*
X155504847Y-62799988D01*
X155371075Y-62761123D01*
X155371073Y-62761123D01*
X155364889Y-62759326D01*
X155352238Y-62758330D01*
X155331438Y-62756693D01*
X155331425Y-62756692D01*
X155328979Y-62756500D01*
X155140115Y-62756500D01*
X154951022Y-62756501D01*
X154943234Y-62757114D01*
X154921526Y-62758821D01*
X154921523Y-62758822D01*
X154915111Y-62759326D01*
X154908937Y-62761120D01*
X154908930Y-62761121D01*
X154774257Y-62800248D01*
X154703951Y-62800248D01*
X154607395Y-62772196D01*
X154593295Y-62772236D01*
X154590000Y-62779506D01*
X154590000Y-62866905D01*
X154569998Y-62935026D01*
X154553095Y-62956000D01*
X154510458Y-62998637D01*
X154506427Y-63005453D01*
X154506424Y-63005457D01*
X154443544Y-63111784D01*
X154428982Y-63136407D01*
X154426771Y-63144017D01*
X154386531Y-63282522D01*
X154384326Y-63290111D01*
X154383821Y-63296530D01*
X154381693Y-63323562D01*
X154381692Y-63323575D01*
X154381500Y-63326021D01*
X154381501Y-64703978D01*
X154384326Y-64739889D01*
X154428982Y-64893593D01*
X154433016Y-64900414D01*
X154506424Y-65024543D01*
X154506427Y-65024547D01*
X154510458Y-65031363D01*
X154553095Y-65074000D01*
X154587121Y-65136312D01*
X154590000Y-65163095D01*
X154590000Y-65244743D01*
X154593973Y-65258274D01*
X154601871Y-65259409D01*
X154703951Y-65229752D01*
X154774257Y-65229752D01*
X154908925Y-65268877D01*
X154908927Y-65268877D01*
X154915111Y-65270674D01*
X154927762Y-65271670D01*
X154948562Y-65273307D01*
X154948575Y-65273308D01*
X154951021Y-65273500D01*
X155139885Y-65273500D01*
X155328978Y-65273499D01*
X155336766Y-65272886D01*
X155358474Y-65271179D01*
X155358477Y-65271178D01*
X155364889Y-65270674D01*
X155371063Y-65268880D01*
X155371070Y-65268879D01*
X155504847Y-65230012D01*
X155575153Y-65230012D01*
X155708925Y-65268877D01*
X155708927Y-65268877D01*
X155715111Y-65270674D01*
X155727762Y-65271670D01*
X155748562Y-65273307D01*
X155748575Y-65273308D01*
X155751021Y-65273500D01*
X155939885Y-65273500D01*
X156128978Y-65273499D01*
X156136766Y-65272886D01*
X156158474Y-65271179D01*
X156158477Y-65271178D01*
X156164889Y-65270674D01*
X156171063Y-65268880D01*
X156171070Y-65268879D01*
X156304847Y-65230012D01*
X156375153Y-65230012D01*
X156508925Y-65268877D01*
X156508927Y-65268877D01*
X156515111Y-65270674D01*
X156527762Y-65271670D01*
X156548562Y-65273307D01*
X156548575Y-65273308D01*
X156551021Y-65273500D01*
X156739885Y-65273500D01*
X156928978Y-65273499D01*
X156936766Y-65272886D01*
X156958474Y-65271179D01*
X156958477Y-65271178D01*
X156964889Y-65270674D01*
X156971063Y-65268880D01*
X156971070Y-65268879D01*
X157104847Y-65230012D01*
X157175153Y-65230012D01*
X157308925Y-65268877D01*
X157308927Y-65268877D01*
X157315111Y-65270674D01*
X157327762Y-65271670D01*
X157348562Y-65273307D01*
X157348575Y-65273308D01*
X157351021Y-65273500D01*
X157539885Y-65273500D01*
X157728978Y-65273499D01*
X157736766Y-65272886D01*
X157758474Y-65271179D01*
X157758477Y-65271178D01*
X157764889Y-65270674D01*
X157771063Y-65268880D01*
X157771070Y-65268879D01*
X157904847Y-65230012D01*
X157975153Y-65230012D01*
X158108925Y-65268877D01*
X158108927Y-65268877D01*
X158115111Y-65270674D01*
X158127762Y-65271670D01*
X158148562Y-65273307D01*
X158148575Y-65273308D01*
X158151021Y-65273500D01*
X158339885Y-65273500D01*
X158528978Y-65273499D01*
X158536766Y-65272886D01*
X158558474Y-65271179D01*
X158558477Y-65271178D01*
X158564889Y-65270674D01*
X158571063Y-65268880D01*
X158571070Y-65268879D01*
X158704847Y-65230012D01*
X158775153Y-65230012D01*
X158908925Y-65268877D01*
X158908927Y-65268877D01*
X158915111Y-65270674D01*
X158927762Y-65271670D01*
X158948562Y-65273307D01*
X158948575Y-65273308D01*
X158951021Y-65273500D01*
X158956894Y-65273500D01*
X159130500Y-65273499D01*
X159198620Y-65293501D01*
X159245113Y-65347156D01*
X159256500Y-65399498D01*
X159256501Y-65511350D01*
X159256501Y-65578978D01*
X159256695Y-65581443D01*
X159258605Y-65605720D01*
X159259326Y-65614889D01*
X159261120Y-65621063D01*
X159261121Y-65621070D01*
X159299988Y-65754847D01*
X159299988Y-65825153D01*
X159278844Y-65897931D01*
X159259326Y-65965111D01*
X159258821Y-65971530D01*
X159256693Y-65998562D01*
X159256692Y-65998575D01*
X159256500Y-66001021D01*
X159256501Y-66378978D01*
X159259326Y-66414889D01*
X159261120Y-66421063D01*
X159261121Y-66421070D01*
X159299988Y-66554847D01*
X159299988Y-66625153D01*
X159267366Y-66737438D01*
X159259326Y-66765111D01*
X159258821Y-66771530D01*
X159256693Y-66798562D01*
X159256692Y-66798575D01*
X159256500Y-66801021D01*
X159256501Y-67178978D01*
X159256695Y-67181438D01*
X159256695Y-67181443D01*
X159258776Y-67207892D01*
X159259326Y-67214889D01*
X159261120Y-67221063D01*
X159261121Y-67221070D01*
X159299988Y-67354847D01*
X159299988Y-67425153D01*
X159276578Y-67505729D01*
X159259326Y-67565111D01*
X159258821Y-67571530D01*
X159256693Y-67598562D01*
X159256692Y-67598575D01*
X159256500Y-67601021D01*
X159256501Y-67978978D01*
X159259326Y-68014889D01*
X159261120Y-68021063D01*
X159261121Y-68021070D01*
X159299988Y-68154847D01*
X159299988Y-68225153D01*
X159276200Y-68307031D01*
X159259326Y-68365111D01*
X159258821Y-68371530D01*
X159256693Y-68398562D01*
X159256692Y-68398575D01*
X159256500Y-68401021D01*
X159256501Y-68778978D01*
X159259326Y-68814889D01*
X159261120Y-68821063D01*
X159261121Y-68821070D01*
X159299988Y-68954847D01*
X159299988Y-69025153D01*
X159259326Y-69165111D01*
X159258821Y-69171530D01*
X159256693Y-69198562D01*
X159256692Y-69198575D01*
X159256500Y-69201021D01*
X159256501Y-69578978D01*
X159259326Y-69614889D01*
X159261120Y-69621063D01*
X159261121Y-69621070D01*
X159299988Y-69754847D01*
X159299988Y-69825153D01*
X159284146Y-69879680D01*
X159259326Y-69965111D01*
X159258821Y-69971530D01*
X159256693Y-69998562D01*
X159256692Y-69998575D01*
X159256500Y-70001021D01*
X159256500Y-70003491D01*
X159256501Y-70230499D01*
X159236499Y-70298620D01*
X159182844Y-70345113D01*
X159130501Y-70356500D01*
X158678616Y-70356500D01*
X158610495Y-70336498D01*
X158589521Y-70319595D01*
X153741342Y-65471415D01*
X153707316Y-65409103D01*
X153712381Y-65338288D01*
X153754928Y-65281452D01*
X153795283Y-65261323D01*
X153904846Y-65229491D01*
X153975154Y-65229491D01*
X154072606Y-65257804D01*
X154086705Y-65257764D01*
X154090000Y-65250494D01*
X154090000Y-64283115D01*
X154085525Y-64267876D01*
X154084135Y-64266671D01*
X154076452Y-64265000D01*
X152800116Y-64265000D01*
X152784877Y-64269475D01*
X152783672Y-64270865D01*
X152782001Y-64278548D01*
X152782001Y-64505500D01*
X152761999Y-64573621D01*
X152708343Y-64620114D01*
X152656001Y-64631500D01*
X151493029Y-64631501D01*
X151476022Y-64631501D01*
X151468234Y-64632114D01*
X151446526Y-64633821D01*
X151446523Y-64633822D01*
X151440111Y-64634326D01*
X151286407Y-64678982D01*
X151279585Y-64683016D01*
X151279586Y-64683016D01*
X151155457Y-64756424D01*
X151155453Y-64756427D01*
X151148637Y-64760458D01*
X151035458Y-64873637D01*
X151031427Y-64880453D01*
X151031424Y-64880457D01*
X150977724Y-64971261D01*
X150953982Y-65011407D01*
X150951771Y-65019017D01*
X150932462Y-65085479D01*
X150909326Y-65165111D01*
X150908821Y-65171530D01*
X150906693Y-65198562D01*
X150906692Y-65198575D01*
X150906500Y-65201021D01*
X150906501Y-65578978D01*
X150906695Y-65581443D01*
X150908605Y-65605720D01*
X150909326Y-65614889D01*
X150911120Y-65621063D01*
X150911121Y-65621070D01*
X150949988Y-65754847D01*
X150949988Y-65825153D01*
X150928844Y-65897931D01*
X150909326Y-65965111D01*
X150908821Y-65971530D01*
X150906693Y-65998562D01*
X150906692Y-65998575D01*
X150906500Y-66001021D01*
X150906501Y-66378978D01*
X150909326Y-66414889D01*
X150911120Y-66421063D01*
X150911121Y-66421070D01*
X150949988Y-66554847D01*
X150949988Y-66625153D01*
X150917366Y-66737438D01*
X150909326Y-66765111D01*
X150908821Y-66771530D01*
X150906693Y-66798562D01*
X150906692Y-66798575D01*
X150906500Y-66801021D01*
X150906501Y-66975574D01*
X150906501Y-67030499D01*
X150886499Y-67098620D01*
X150832844Y-67145113D01*
X150780501Y-67156500D01*
X146891793Y-67156500D01*
X146868184Y-67154268D01*
X146867881Y-67154210D01*
X146867877Y-67154210D01*
X146860094Y-67152725D01*
X146804049Y-67156251D01*
X146796138Y-67156500D01*
X146780144Y-67156500D01*
X146764270Y-67158506D01*
X146756410Y-67159248D01*
X146728951Y-67160976D01*
X146708263Y-67162277D01*
X146708262Y-67162277D01*
X146700350Y-67162775D01*
X146692809Y-67165225D01*
X146692513Y-67165321D01*
X146669369Y-67170494D01*
X146669065Y-67170532D01*
X146669060Y-67170533D01*
X146661203Y-67171526D01*
X146653838Y-67174442D01*
X146653834Y-67174443D01*
X146608989Y-67192199D01*
X146601570Y-67194871D01*
X146548125Y-67212236D01*
X146541429Y-67216486D01*
X146541428Y-67216486D01*
X146541169Y-67216650D01*
X146520042Y-67227415D01*
X146519754Y-67227529D01*
X146519749Y-67227532D01*
X146512383Y-67230448D01*
X146505975Y-67235104D01*
X146505969Y-67235107D01*
X146466948Y-67263458D01*
X146460411Y-67267901D01*
X146412982Y-67298000D01*
X146407556Y-67303778D01*
X146407555Y-67303779D01*
X146407341Y-67304007D01*
X146389554Y-67319688D01*
X146389309Y-67319866D01*
X146389307Y-67319868D01*
X146382893Y-67324528D01*
X146377839Y-67330637D01*
X146377838Y-67330638D01*
X146347097Y-67367796D01*
X146341866Y-67373730D01*
X146308842Y-67408898D01*
X146308840Y-67408901D01*
X146303414Y-67414679D01*
X146299445Y-67421899D01*
X146286119Y-67441506D01*
X146285920Y-67441746D01*
X146285916Y-67441753D01*
X146280867Y-67447856D01*
X146277493Y-67455027D01*
X146256953Y-67498676D01*
X146253371Y-67505708D01*
X146226305Y-67554940D01*
X146224335Y-67562615D01*
X146224332Y-67562621D01*
X146224256Y-67562919D01*
X146216224Y-67585228D01*
X146216096Y-67585500D01*
X146216095Y-67585504D01*
X146212717Y-67592682D01*
X146204074Y-67637993D01*
X146202195Y-67647843D01*
X146200471Y-67655558D01*
X146186500Y-67709970D01*
X146186500Y-67718207D01*
X146184268Y-67741816D01*
X146182725Y-67749906D01*
X146183223Y-67757817D01*
X146186251Y-67805951D01*
X146186500Y-67813862D01*
X146186500Y-69587680D01*
X146166498Y-69655801D01*
X146112842Y-69702294D01*
X146042568Y-69712398D01*
X146012281Y-69704089D01*
X145962007Y-69683265D01*
X145952627Y-69680217D01*
X145731446Y-69627115D01*
X145721699Y-69625572D01*
X145494930Y-69607725D01*
X145485070Y-69607725D01*
X145258301Y-69625572D01*
X145248554Y-69627115D01*
X145027373Y-69680217D01*
X145017988Y-69683266D01*
X144807837Y-69770313D01*
X144799042Y-69774795D01*
X144631555Y-69877432D01*
X144622093Y-69887890D01*
X144625876Y-69896666D01*
X145760115Y-71030905D01*
X145794141Y-71093217D01*
X145789076Y-71164032D01*
X145760115Y-71209095D01*
X144628920Y-72340290D01*
X144622160Y-72352670D01*
X144627887Y-72360320D01*
X144799042Y-72465205D01*
X144807837Y-72469687D01*
X145017988Y-72556734D01*
X145027373Y-72559783D01*
X145248554Y-72612885D01*
X145258301Y-72614428D01*
X145485070Y-72632275D01*
X145494930Y-72632275D01*
X145721699Y-72614428D01*
X145731446Y-72612885D01*
X145952627Y-72559783D01*
X145962007Y-72556735D01*
X146012281Y-72535911D01*
X146082871Y-72528322D01*
X146146358Y-72560101D01*
X146182586Y-72621159D01*
X146186500Y-72652320D01*
X146186500Y-73975406D01*
X146166498Y-74043527D01*
X146149595Y-74064501D01*
X146068460Y-74145636D01*
X146006148Y-74179662D01*
X145949951Y-74179060D01*
X145731524Y-74126620D01*
X145731518Y-74126619D01*
X145726711Y-74125465D01*
X145490000Y-74106835D01*
X145253289Y-74125465D01*
X145248482Y-74126619D01*
X145248476Y-74126620D01*
X145121540Y-74157095D01*
X145022406Y-74180895D01*
X145017835Y-74182788D01*
X145017833Y-74182789D01*
X144807611Y-74269865D01*
X144807607Y-74269867D01*
X144803037Y-74271760D01*
X144798817Y-74274346D01*
X144604798Y-74393241D01*
X144604792Y-74393245D01*
X144600584Y-74395824D01*
X144420031Y-74550031D01*
X144265824Y-74730584D01*
X144263245Y-74734792D01*
X144263241Y-74734798D01*
X144145867Y-74926335D01*
X144093219Y-74973966D01*
X144038434Y-74986500D01*
X140441566Y-74986500D01*
X140373445Y-74966498D01*
X140334133Y-74926335D01*
X140216759Y-74734798D01*
X140216755Y-74734792D01*
X140214176Y-74730584D01*
X140059969Y-74550031D01*
X139879416Y-74395824D01*
X139875208Y-74393245D01*
X139875202Y-74393241D01*
X139681183Y-74274346D01*
X139676963Y-74271760D01*
X139672393Y-74269867D01*
X139672389Y-74269865D01*
X139462167Y-74182789D01*
X139462165Y-74182788D01*
X139457594Y-74180895D01*
X139358460Y-74157095D01*
X139231524Y-74126620D01*
X139231518Y-74126619D01*
X139226711Y-74125465D01*
X138990000Y-74106835D01*
X138753289Y-74125465D01*
X138748482Y-74126619D01*
X138748476Y-74126620D01*
X138621540Y-74157095D01*
X138522406Y-74180895D01*
X138517835Y-74182788D01*
X138517833Y-74182789D01*
X138307611Y-74269865D01*
X138307607Y-74269867D01*
X138303037Y-74271760D01*
X138298817Y-74274346D01*
X138104798Y-74393241D01*
X138104792Y-74393245D01*
X138100584Y-74395824D01*
X137920031Y-74550031D01*
X137765824Y-74730584D01*
X137763245Y-74734792D01*
X137763241Y-74734798D01*
X137647907Y-74923006D01*
X137641760Y-74933037D01*
X137639867Y-74937607D01*
X137639865Y-74937611D01*
X137552789Y-75147833D01*
X137550895Y-75152406D01*
X137549740Y-75157218D01*
X137503120Y-75351405D01*
X137495465Y-75383289D01*
X137476835Y-75620000D01*
X132588500Y-75620000D01*
X132588500Y-72352670D01*
X138122160Y-72352670D01*
X138127887Y-72360320D01*
X138299042Y-72465205D01*
X138307837Y-72469687D01*
X138517988Y-72556734D01*
X138527373Y-72559783D01*
X138748554Y-72612885D01*
X138758301Y-72614428D01*
X138985070Y-72632275D01*
X138994930Y-72632275D01*
X139221699Y-72614428D01*
X139231446Y-72612885D01*
X139452627Y-72559783D01*
X139462012Y-72556734D01*
X139672163Y-72469687D01*
X139680958Y-72465205D01*
X139848445Y-72362568D01*
X139857907Y-72352110D01*
X139854124Y-72343334D01*
X139002812Y-71492022D01*
X138988868Y-71484408D01*
X138987035Y-71484539D01*
X138980420Y-71488790D01*
X138128920Y-72340290D01*
X138122160Y-72352670D01*
X132588500Y-72352670D01*
X132588500Y-71124930D01*
X137477725Y-71124930D01*
X137495572Y-71351699D01*
X137497115Y-71361446D01*
X137550217Y-71582627D01*
X137553266Y-71592012D01*
X137640313Y-71802163D01*
X137644795Y-71810958D01*
X137747432Y-71978445D01*
X137757890Y-71987907D01*
X137766666Y-71984124D01*
X138617978Y-71132812D01*
X138624356Y-71121132D01*
X139354408Y-71121132D01*
X139354539Y-71122965D01*
X139358790Y-71129580D01*
X140210290Y-71981080D01*
X140222670Y-71987840D01*
X140230320Y-71982113D01*
X140335205Y-71810958D01*
X140339687Y-71802163D01*
X140426734Y-71592012D01*
X140429783Y-71582627D01*
X140482885Y-71361446D01*
X140484428Y-71351699D01*
X140502275Y-71124930D01*
X143977725Y-71124930D01*
X143995572Y-71351699D01*
X143997115Y-71361446D01*
X144050217Y-71582627D01*
X144053266Y-71592012D01*
X144140313Y-71802163D01*
X144144795Y-71810958D01*
X144247432Y-71978445D01*
X144257890Y-71987907D01*
X144266666Y-71984124D01*
X145117978Y-71132812D01*
X145125592Y-71118868D01*
X145125461Y-71117035D01*
X145121210Y-71110420D01*
X144269710Y-70258920D01*
X144257330Y-70252160D01*
X144249680Y-70257887D01*
X144144795Y-70429042D01*
X144140313Y-70437837D01*
X144053266Y-70647988D01*
X144050217Y-70657373D01*
X143997115Y-70878554D01*
X143995572Y-70888301D01*
X143977725Y-71115070D01*
X143977725Y-71124930D01*
X140502275Y-71124930D01*
X140502275Y-71115070D01*
X140484428Y-70888301D01*
X140482885Y-70878554D01*
X140429783Y-70657373D01*
X140426734Y-70647988D01*
X140339687Y-70437837D01*
X140335205Y-70429042D01*
X140232568Y-70261555D01*
X140222110Y-70252093D01*
X140213334Y-70255876D01*
X139362022Y-71107188D01*
X139354408Y-71121132D01*
X138624356Y-71121132D01*
X138625592Y-71118868D01*
X138625461Y-71117035D01*
X138621210Y-71110420D01*
X137769710Y-70258920D01*
X137757330Y-70252160D01*
X137749680Y-70257887D01*
X137644795Y-70429042D01*
X137640313Y-70437837D01*
X137553266Y-70647988D01*
X137550217Y-70657373D01*
X137497115Y-70878554D01*
X137495572Y-70888301D01*
X137477725Y-71115070D01*
X137477725Y-71124930D01*
X132588500Y-71124930D01*
X132588500Y-69887890D01*
X138122093Y-69887890D01*
X138125876Y-69896666D01*
X138977188Y-70747978D01*
X138991132Y-70755592D01*
X138992965Y-70755461D01*
X138999580Y-70751210D01*
X139851080Y-69899710D01*
X139857840Y-69887330D01*
X139852113Y-69879680D01*
X139680958Y-69774795D01*
X139672163Y-69770313D01*
X139462012Y-69683266D01*
X139452627Y-69680217D01*
X139231446Y-69627115D01*
X139221699Y-69625572D01*
X138994930Y-69607725D01*
X138985070Y-69607725D01*
X138758301Y-69625572D01*
X138748554Y-69627115D01*
X138527373Y-69680217D01*
X138517988Y-69683266D01*
X138307837Y-69770313D01*
X138299042Y-69774795D01*
X138131555Y-69877432D01*
X138122093Y-69887890D01*
X132588500Y-69887890D01*
X132588500Y-66006695D01*
X138337251Y-66006695D01*
X138337548Y-66011848D01*
X138337548Y-66011851D01*
X138343840Y-66120967D01*
X138350110Y-66229715D01*
X138351247Y-66234761D01*
X138351248Y-66234767D01*
X138365606Y-66298475D01*
X138399222Y-66447639D01*
X138483266Y-66654616D01*
X138599987Y-66845088D01*
X138746250Y-67013938D01*
X138918126Y-67156632D01*
X139111000Y-67269338D01*
X139115825Y-67271180D01*
X139115826Y-67271181D01*
X139121040Y-67273172D01*
X139319692Y-67349030D01*
X139324760Y-67350061D01*
X139324763Y-67350062D01*
X139426930Y-67370848D01*
X139538597Y-67393567D01*
X139543772Y-67393757D01*
X139543774Y-67393757D01*
X139756673Y-67401564D01*
X139756677Y-67401564D01*
X139761837Y-67401753D01*
X139766957Y-67401097D01*
X139766959Y-67401097D01*
X139978288Y-67374025D01*
X139978289Y-67374025D01*
X139983416Y-67373368D01*
X139999332Y-67368593D01*
X140192429Y-67310661D01*
X140192434Y-67310659D01*
X140197384Y-67309174D01*
X140397994Y-67210896D01*
X140579860Y-67081173D01*
X140738096Y-66923489D01*
X140797594Y-66840689D01*
X140865435Y-66746277D01*
X140868453Y-66742077D01*
X140900320Y-66677600D01*
X140965136Y-66546453D01*
X140965137Y-66546451D01*
X140967430Y-66541811D01*
X141032370Y-66328069D01*
X141061529Y-66106590D01*
X141063156Y-66040000D01*
X141044852Y-65817361D01*
X140990431Y-65600702D01*
X140901354Y-65395840D01*
X140820707Y-65271179D01*
X140782822Y-65212617D01*
X140782820Y-65212614D01*
X140780014Y-65208277D01*
X140629670Y-65043051D01*
X140625619Y-65039852D01*
X140625615Y-65039848D01*
X140458414Y-64907800D01*
X140458410Y-64907798D01*
X140454359Y-64904598D01*
X140413053Y-64881796D01*
X140363084Y-64831364D01*
X140348312Y-64761921D01*
X140373428Y-64695516D01*
X140400780Y-64668909D01*
X140449264Y-64634326D01*
X140579860Y-64541173D01*
X140613526Y-64507625D01*
X140718286Y-64403230D01*
X140738096Y-64383489D01*
X140797594Y-64300689D01*
X140865435Y-64206277D01*
X140868453Y-64202077D01*
X140874673Y-64189493D01*
X140965136Y-64006453D01*
X140965137Y-64006451D01*
X140967430Y-64001811D01*
X141032370Y-63788069D01*
X141061529Y-63566590D01*
X141062051Y-63545230D01*
X141063074Y-63503365D01*
X141063074Y-63503361D01*
X141063156Y-63500000D01*
X141060418Y-63466695D01*
X143417251Y-63466695D01*
X143417548Y-63471848D01*
X143417548Y-63471851D01*
X143423011Y-63566590D01*
X143430110Y-63689715D01*
X143431247Y-63694761D01*
X143431248Y-63694767D01*
X143446068Y-63760525D01*
X143479222Y-63907639D01*
X143519346Y-64006453D01*
X143553187Y-64089793D01*
X143563266Y-64114616D01*
X143604966Y-64182665D01*
X143677291Y-64300688D01*
X143679987Y-64305088D01*
X143826250Y-64473938D01*
X143998126Y-64616632D01*
X144191000Y-64729338D01*
X144399692Y-64809030D01*
X144404760Y-64810061D01*
X144404763Y-64810062D01*
X144509466Y-64831364D01*
X144618597Y-64853567D01*
X144623772Y-64853757D01*
X144623774Y-64853757D01*
X144836673Y-64861564D01*
X144836677Y-64861564D01*
X144841837Y-64861753D01*
X144846957Y-64861097D01*
X144846959Y-64861097D01*
X145058288Y-64834025D01*
X145058289Y-64834025D01*
X145063416Y-64833368D01*
X145070096Y-64831364D01*
X145272429Y-64770661D01*
X145272434Y-64770659D01*
X145277384Y-64769174D01*
X145477994Y-64670896D01*
X145659860Y-64541173D01*
X145693526Y-64507625D01*
X145798286Y-64403230D01*
X145818096Y-64383489D01*
X145877594Y-64300689D01*
X145948453Y-64202077D01*
X145949776Y-64203028D01*
X145996645Y-64159857D01*
X146066580Y-64147625D01*
X146132026Y-64175144D01*
X146159875Y-64206994D01*
X146219987Y-64305088D01*
X146366250Y-64473938D01*
X146538126Y-64616632D01*
X146731000Y-64729338D01*
X146939692Y-64809030D01*
X146944760Y-64810061D01*
X146944763Y-64810062D01*
X147049466Y-64831364D01*
X147158597Y-64853567D01*
X147163772Y-64853757D01*
X147163774Y-64853757D01*
X147376673Y-64861564D01*
X147376677Y-64861564D01*
X147381837Y-64861753D01*
X147386957Y-64861097D01*
X147386959Y-64861097D01*
X147598288Y-64834025D01*
X147598289Y-64834025D01*
X147603416Y-64833368D01*
X147610096Y-64831364D01*
X147812429Y-64770661D01*
X147812434Y-64770659D01*
X147817384Y-64769174D01*
X148017994Y-64670896D01*
X148199860Y-64541173D01*
X148233526Y-64507625D01*
X148338286Y-64403230D01*
X148358096Y-64383489D01*
X148417594Y-64300689D01*
X148485435Y-64206277D01*
X148488453Y-64202077D01*
X148494673Y-64189493D01*
X148585136Y-64006453D01*
X148585137Y-64006451D01*
X148587430Y-64001811D01*
X148652370Y-63788069D01*
X148657792Y-63746885D01*
X152782000Y-63746885D01*
X152786475Y-63762124D01*
X152787865Y-63763329D01*
X152795548Y-63765000D01*
X153271885Y-63765000D01*
X153287124Y-63760525D01*
X153288329Y-63759135D01*
X153290000Y-63751452D01*
X153290000Y-63746885D01*
X153790000Y-63746885D01*
X153794475Y-63762124D01*
X153795865Y-63763329D01*
X153803548Y-63765000D01*
X154071885Y-63765000D01*
X154087124Y-63760525D01*
X154088329Y-63759135D01*
X154090000Y-63751452D01*
X154090000Y-62785257D01*
X154086027Y-62771726D01*
X154078129Y-62770591D01*
X153975153Y-62800508D01*
X153904847Y-62800508D01*
X153807395Y-62772196D01*
X153793295Y-62772236D01*
X153790000Y-62779506D01*
X153790000Y-63746885D01*
X153290000Y-63746885D01*
X153290000Y-62785257D01*
X153286027Y-62771726D01*
X153278129Y-62770591D01*
X153169220Y-62802232D01*
X153154783Y-62808480D01*
X153030773Y-62881819D01*
X153018335Y-62891468D01*
X152916468Y-62993335D01*
X152906819Y-63005773D01*
X152833480Y-63129783D01*
X152827232Y-63144220D01*
X152786618Y-63284013D01*
X152784320Y-63296600D01*
X152782193Y-63323616D01*
X152782000Y-63328543D01*
X152782000Y-63746885D01*
X148657792Y-63746885D01*
X148681529Y-63566590D01*
X148682051Y-63545230D01*
X148683074Y-63503365D01*
X148683074Y-63503361D01*
X148683156Y-63500000D01*
X148664852Y-63277361D01*
X148610431Y-63060702D01*
X148521354Y-62855840D01*
X148446623Y-62740324D01*
X148402822Y-62672617D01*
X148402820Y-62672614D01*
X148400014Y-62668277D01*
X148249670Y-62503051D01*
X148245619Y-62499852D01*
X148245615Y-62499848D01*
X148078414Y-62367800D01*
X148078410Y-62367798D01*
X148074359Y-62364598D01*
X148033053Y-62341796D01*
X147983084Y-62291364D01*
X147968312Y-62221921D01*
X147993428Y-62155516D01*
X148020780Y-62128909D01*
X148065180Y-62097239D01*
X148199860Y-62001173D01*
X148358096Y-61843489D01*
X148417594Y-61760689D01*
X148485435Y-61666277D01*
X148488453Y-61662077D01*
X148509320Y-61619857D01*
X148585136Y-61466453D01*
X148585137Y-61466451D01*
X148587430Y-61461811D01*
X148652370Y-61248069D01*
X148681529Y-61026590D01*
X148683156Y-60960000D01*
X148664852Y-60737361D01*
X148610431Y-60520702D01*
X148521354Y-60315840D01*
X148481906Y-60254862D01*
X148402822Y-60132617D01*
X148402820Y-60132614D01*
X148400014Y-60128277D01*
X148249670Y-59963051D01*
X148245619Y-59959852D01*
X148245615Y-59959848D01*
X148078414Y-59827800D01*
X148078410Y-59827798D01*
X148074359Y-59824598D01*
X148062199Y-59817885D01*
X148038777Y-59804956D01*
X148032569Y-59801529D01*
X147982598Y-59751097D01*
X147967826Y-59681654D01*
X147992942Y-59615248D01*
X148020294Y-59588641D01*
X148195328Y-59463792D01*
X148203200Y-59457139D01*
X148354052Y-59306812D01*
X148360730Y-59298965D01*
X148485003Y-59126020D01*
X148490313Y-59117183D01*
X148584670Y-58926267D01*
X148588469Y-58916672D01*
X148650377Y-58712910D01*
X148652555Y-58702837D01*
X148653986Y-58691962D01*
X148651775Y-58677778D01*
X148638617Y-58674000D01*
X143463225Y-58674000D01*
X143449694Y-58677973D01*
X143448257Y-58687966D01*
X143478565Y-58822446D01*
X143481645Y-58832275D01*
X143561770Y-59029603D01*
X143566413Y-59038794D01*
X143677694Y-59220388D01*
X143683777Y-59228699D01*
X143823213Y-59389667D01*
X143830580Y-59396883D01*
X143994434Y-59532916D01*
X144002881Y-59538831D01*
X144071969Y-59579203D01*
X144120693Y-59630842D01*
X144133764Y-59700625D01*
X144107033Y-59766396D01*
X144066584Y-59799752D01*
X144053607Y-59806507D01*
X144049474Y-59809610D01*
X144049471Y-59809612D01*
X143907428Y-59916261D01*
X143874965Y-59940635D01*
X143871393Y-59944373D01*
X143787138Y-60032541D01*
X143720629Y-60102138D01*
X143594743Y-60286680D01*
X143575176Y-60328834D01*
X143514477Y-60459600D01*
X143500688Y-60489305D01*
X143440989Y-60704570D01*
X143417251Y-60926695D01*
X143417548Y-60931848D01*
X143417548Y-60931851D01*
X143423011Y-61026590D01*
X143430110Y-61149715D01*
X143431247Y-61154761D01*
X143431248Y-61154767D01*
X143445606Y-61218475D01*
X143479222Y-61367639D01*
X143563266Y-61574616D01*
X143614019Y-61657438D01*
X143677291Y-61760688D01*
X143679987Y-61765088D01*
X143826250Y-61933938D01*
X143998126Y-62076632D01*
X144034378Y-62097816D01*
X144071445Y-62119476D01*
X144120169Y-62171114D01*
X144133240Y-62240897D01*
X144106509Y-62306669D01*
X144066055Y-62340027D01*
X144053607Y-62346507D01*
X144049474Y-62349610D01*
X144049471Y-62349612D01*
X144025247Y-62367800D01*
X143874965Y-62480635D01*
X143720629Y-62642138D01*
X143594743Y-62826680D01*
X143567459Y-62885458D01*
X143514924Y-62998637D01*
X143500688Y-63029305D01*
X143440989Y-63244570D01*
X143417251Y-63466695D01*
X141060418Y-63466695D01*
X141044852Y-63277361D01*
X140990431Y-63060702D01*
X140901354Y-62855840D01*
X140826623Y-62740324D01*
X140782822Y-62672617D01*
X140782820Y-62672614D01*
X140780014Y-62668277D01*
X140629670Y-62503051D01*
X140625619Y-62499852D01*
X140625615Y-62499848D01*
X140458414Y-62367800D01*
X140458410Y-62367798D01*
X140454359Y-62364598D01*
X140413053Y-62341796D01*
X140363084Y-62291364D01*
X140348312Y-62221921D01*
X140373428Y-62155516D01*
X140400780Y-62128909D01*
X140445180Y-62097239D01*
X140579860Y-62001173D01*
X140738096Y-61843489D01*
X140797594Y-61760689D01*
X140865435Y-61666277D01*
X140868453Y-61662077D01*
X140889320Y-61619857D01*
X140965136Y-61466453D01*
X140965137Y-61466451D01*
X140967430Y-61461811D01*
X141032370Y-61248069D01*
X141061529Y-61026590D01*
X141063156Y-60960000D01*
X141044852Y-60737361D01*
X140990431Y-60520702D01*
X140901354Y-60315840D01*
X140861906Y-60254862D01*
X140782822Y-60132617D01*
X140782820Y-60132614D01*
X140780014Y-60128277D01*
X140629670Y-59963051D01*
X140625619Y-59959852D01*
X140625615Y-59959848D01*
X140458414Y-59827800D01*
X140458410Y-59827798D01*
X140454359Y-59824598D01*
X140413053Y-59801796D01*
X140363084Y-59751364D01*
X140348312Y-59681921D01*
X140373428Y-59615516D01*
X140400780Y-59588909D01*
X140444603Y-59557650D01*
X140579860Y-59461173D01*
X140738096Y-59303489D01*
X140797594Y-59220689D01*
X140865435Y-59126277D01*
X140868453Y-59122077D01*
X140875452Y-59107917D01*
X140965136Y-58926453D01*
X140965137Y-58926451D01*
X140967430Y-58921811D01*
X141008265Y-58787409D01*
X141030865Y-58713023D01*
X141030865Y-58713021D01*
X141032370Y-58708069D01*
X141061529Y-58486590D01*
X141063156Y-58420000D01*
X141044852Y-58197361D01*
X140990431Y-57980702D01*
X140901354Y-57775840D01*
X140780014Y-57588277D01*
X140629670Y-57423051D01*
X140625619Y-57419852D01*
X140625615Y-57419848D01*
X140458414Y-57287800D01*
X140458410Y-57287798D01*
X140454359Y-57284598D01*
X140413053Y-57261796D01*
X140363084Y-57211364D01*
X140348312Y-57141921D01*
X140373428Y-57075516D01*
X140400780Y-57048909D01*
X140469443Y-56999932D01*
X140579860Y-56921173D01*
X140601191Y-56899917D01*
X140726575Y-56774970D01*
X140738096Y-56763489D01*
X140769059Y-56720400D01*
X140865435Y-56586277D01*
X140868453Y-56582077D01*
X140874157Y-56570537D01*
X140965136Y-56386453D01*
X140965137Y-56386451D01*
X140967430Y-56381811D01*
X141032370Y-56168069D01*
X141061529Y-55946590D01*
X141061986Y-55927881D01*
X141063074Y-55883365D01*
X141063074Y-55883361D01*
X141063156Y-55880000D01*
X141044852Y-55657361D01*
X140990431Y-55440702D01*
X140901354Y-55235840D01*
X140852535Y-55160377D01*
X140782822Y-55052617D01*
X140782820Y-55052614D01*
X140780014Y-55048277D01*
X140776540Y-55044459D01*
X140776533Y-55044450D01*
X140632435Y-54886088D01*
X140601383Y-54822242D01*
X140609779Y-54751744D01*
X140654956Y-54696976D01*
X140681400Y-54683307D01*
X140788052Y-54643325D01*
X140803649Y-54634786D01*
X140905724Y-54558285D01*
X140918285Y-54545724D01*
X140994786Y-54443649D01*
X141003324Y-54428054D01*
X141048478Y-54307606D01*
X141052105Y-54292351D01*
X141057631Y-54241486D01*
X141058000Y-54234672D01*
X141058000Y-53612115D01*
X141053525Y-53596876D01*
X141052135Y-53595671D01*
X141044452Y-53594000D01*
X138360116Y-53594000D01*
X138344877Y-53598475D01*
X138343672Y-53599865D01*
X138342001Y-53607548D01*
X138342001Y-54234669D01*
X138342371Y-54241490D01*
X138347895Y-54292352D01*
X138351521Y-54307604D01*
X138396676Y-54428054D01*
X138405214Y-54443649D01*
X138481715Y-54545724D01*
X138494276Y-54558285D01*
X138596351Y-54634786D01*
X138611946Y-54643324D01*
X138720827Y-54684142D01*
X138777591Y-54726784D01*
X138802291Y-54793345D01*
X138787083Y-54862694D01*
X138767691Y-54889175D01*
X138666023Y-54995565D01*
X138640629Y-55022138D01*
X138637715Y-55026410D01*
X138637714Y-55026411D01*
X138578132Y-55113755D01*
X138514743Y-55206680D01*
X138476010Y-55290123D01*
X138422885Y-55404573D01*
X138420688Y-55409305D01*
X138360989Y-55624570D01*
X138337251Y-55846695D01*
X138337548Y-55851848D01*
X138337548Y-55851851D01*
X138349812Y-56064547D01*
X138350110Y-56069715D01*
X138351247Y-56074761D01*
X138351248Y-56074767D01*
X138365449Y-56137778D01*
X138399222Y-56287639D01*
X138439346Y-56386453D01*
X138474682Y-56473475D01*
X138483266Y-56494616D01*
X138529790Y-56570537D01*
X138597291Y-56680688D01*
X138599987Y-56685088D01*
X138746250Y-56853938D01*
X138918126Y-56996632D01*
X138955164Y-57018275D01*
X138991445Y-57039476D01*
X139040169Y-57091114D01*
X139053240Y-57160897D01*
X139026509Y-57226669D01*
X138986055Y-57260027D01*
X138973607Y-57266507D01*
X138969474Y-57269610D01*
X138969471Y-57269612D01*
X138820727Y-57381292D01*
X138794965Y-57400635D01*
X138753398Y-57444132D01*
X138681705Y-57519155D01*
X138640629Y-57562138D01*
X138637715Y-57566410D01*
X138637714Y-57566411D01*
X138635642Y-57569448D01*
X138514743Y-57746680D01*
X138420688Y-57949305D01*
X138360989Y-58164570D01*
X138337251Y-58386695D01*
X138337548Y-58391848D01*
X138337548Y-58391851D01*
X138348690Y-58585095D01*
X138350110Y-58609715D01*
X138351247Y-58614761D01*
X138351248Y-58614767D01*
X138364597Y-58674000D01*
X138399222Y-58827639D01*
X138454900Y-58964758D01*
X138476817Y-59018733D01*
X138483266Y-59034616D01*
X138519340Y-59093483D01*
X138597104Y-59220383D01*
X138599987Y-59225088D01*
X138746250Y-59393938D01*
X138918126Y-59536632D01*
X138988595Y-59577811D01*
X138991445Y-59579476D01*
X139040169Y-59631114D01*
X139053240Y-59700897D01*
X139026509Y-59766669D01*
X138986055Y-59800027D01*
X138973607Y-59806507D01*
X138969474Y-59809610D01*
X138969471Y-59809612D01*
X138827428Y-59916261D01*
X138794965Y-59940635D01*
X138791393Y-59944373D01*
X138707138Y-60032541D01*
X138640629Y-60102138D01*
X138514743Y-60286680D01*
X138495176Y-60328834D01*
X138434477Y-60459600D01*
X138420688Y-60489305D01*
X138360989Y-60704570D01*
X138337251Y-60926695D01*
X138337548Y-60931848D01*
X138337548Y-60931851D01*
X138343011Y-61026590D01*
X138350110Y-61149715D01*
X138351247Y-61154761D01*
X138351248Y-61154767D01*
X138365606Y-61218475D01*
X138399222Y-61367639D01*
X138483266Y-61574616D01*
X138534019Y-61657438D01*
X138597291Y-61760688D01*
X138599987Y-61765088D01*
X138746250Y-61933938D01*
X138918126Y-62076632D01*
X138954378Y-62097816D01*
X138991445Y-62119476D01*
X139040169Y-62171114D01*
X139053240Y-62240897D01*
X139026509Y-62306669D01*
X138986055Y-62340027D01*
X138973607Y-62346507D01*
X138969474Y-62349610D01*
X138969471Y-62349612D01*
X138945247Y-62367800D01*
X138794965Y-62480635D01*
X138640629Y-62642138D01*
X138514743Y-62826680D01*
X138487459Y-62885458D01*
X138434924Y-62998637D01*
X138420688Y-63029305D01*
X138360989Y-63244570D01*
X138337251Y-63466695D01*
X138337548Y-63471848D01*
X138337548Y-63471851D01*
X138343011Y-63566590D01*
X138350110Y-63689715D01*
X138351247Y-63694761D01*
X138351248Y-63694767D01*
X138366068Y-63760525D01*
X138399222Y-63907639D01*
X138439346Y-64006453D01*
X138473187Y-64089793D01*
X138483266Y-64114616D01*
X138524966Y-64182665D01*
X138597291Y-64300688D01*
X138599987Y-64305088D01*
X138746250Y-64473938D01*
X138918126Y-64616632D01*
X138947542Y-64633821D01*
X138991445Y-64659476D01*
X139040169Y-64711114D01*
X139053240Y-64780897D01*
X139026509Y-64846669D01*
X138986055Y-64880027D01*
X138973607Y-64886507D01*
X138969474Y-64889610D01*
X138969471Y-64889612D01*
X138799100Y-65017530D01*
X138794965Y-65020635D01*
X138640629Y-65182138D01*
X138637715Y-65186410D01*
X138637714Y-65186411D01*
X138587918Y-65259409D01*
X138514743Y-65366680D01*
X138420688Y-65569305D01*
X138360989Y-65784570D01*
X138337251Y-66006695D01*
X132588500Y-66006695D01*
X132588500Y-53067885D01*
X138342000Y-53067885D01*
X138346475Y-53083124D01*
X138347865Y-53084329D01*
X138355548Y-53086000D01*
X139427885Y-53086000D01*
X139443124Y-53081525D01*
X139444329Y-53080135D01*
X139446000Y-53072452D01*
X139446000Y-53067885D01*
X139954000Y-53067885D01*
X139958475Y-53083124D01*
X139959865Y-53084329D01*
X139967548Y-53086000D01*
X141039884Y-53086000D01*
X141055123Y-53081525D01*
X141056328Y-53080135D01*
X141057999Y-53072452D01*
X141057999Y-52445331D01*
X141057629Y-52438510D01*
X141052105Y-52387648D01*
X141048479Y-52372396D01*
X141003324Y-52251946D01*
X140994786Y-52236351D01*
X140918285Y-52134276D01*
X140905724Y-52121715D01*
X140803649Y-52045214D01*
X140788054Y-52036676D01*
X140667606Y-51991522D01*
X140652351Y-51987895D01*
X140601486Y-51982369D01*
X140594672Y-51982000D01*
X139972115Y-51982000D01*
X139956876Y-51986475D01*
X139955671Y-51987865D01*
X139954000Y-51995548D01*
X139954000Y-53067885D01*
X139446000Y-53067885D01*
X139446000Y-52000116D01*
X139441525Y-51984877D01*
X139440135Y-51983672D01*
X139432452Y-51982001D01*
X138805331Y-51982001D01*
X138798510Y-51982371D01*
X138747648Y-51987895D01*
X138732396Y-51991521D01*
X138611946Y-52036676D01*
X138596351Y-52045214D01*
X138494276Y-52121715D01*
X138481715Y-52134276D01*
X138405214Y-52236351D01*
X138396676Y-52251946D01*
X138351522Y-52372394D01*
X138347895Y-52387649D01*
X138342369Y-52438514D01*
X138342000Y-52445328D01*
X138342000Y-53067885D01*
X132588500Y-53067885D01*
X132588500Y-46354500D01*
X132608502Y-46286379D01*
X132662158Y-46239886D01*
X132714500Y-46228500D01*
X187325500Y-46228500D01*
X187393621Y-46248502D01*
G37*
%TD.AperFunction*%
%TA.AperFunction,Conductor*%
G36*
X160549367Y-71750999D02*
G01*
X160549426Y-71750535D01*
X160557294Y-71751529D01*
X160564970Y-71753500D01*
X160585224Y-71753500D01*
X160604934Y-71755051D01*
X160624943Y-71758220D01*
X160632835Y-71757474D01*
X160668961Y-71754059D01*
X160680819Y-71753500D01*
X163832899Y-71753500D01*
X163901020Y-71773502D01*
X163921994Y-71790405D01*
X164461463Y-72329874D01*
X164495489Y-72392186D01*
X164490424Y-72463001D01*
X164447877Y-72519837D01*
X164438673Y-72526112D01*
X164300652Y-72611522D01*
X164175695Y-72736697D01*
X164172898Y-72741235D01*
X164115647Y-72781824D01*
X164044724Y-72785054D01*
X163983313Y-72749428D01*
X163975938Y-72740932D01*
X163967902Y-72730793D01*
X163853171Y-72616261D01*
X163841760Y-72607249D01*
X163703757Y-72522184D01*
X163690576Y-72516037D01*
X163536290Y-72464862D01*
X163522914Y-72461995D01*
X163428562Y-72452328D01*
X163422145Y-72452000D01*
X163322115Y-72452000D01*
X163306876Y-72456475D01*
X163305671Y-72457865D01*
X163304000Y-72465548D01*
X163304000Y-73788000D01*
X163283998Y-73856121D01*
X163230342Y-73902614D01*
X163178000Y-73914000D01*
X161985116Y-73914000D01*
X161969877Y-73918475D01*
X161968672Y-73919865D01*
X161967001Y-73927548D01*
X161967001Y-74157095D01*
X161967338Y-74163614D01*
X161977257Y-74259206D01*
X161980149Y-74272600D01*
X162031588Y-74426784D01*
X162037761Y-74439962D01*
X162123063Y-74577807D01*
X162132099Y-74589208D01*
X162246829Y-74703739D01*
X162258240Y-74712751D01*
X162396243Y-74797816D01*
X162409424Y-74803963D01*
X162563710Y-74855138D01*
X162577086Y-74858005D01*
X162671438Y-74867672D01*
X162677854Y-74868000D01*
X162691905Y-74868000D01*
X162760026Y-74888002D01*
X162806519Y-74941658D01*
X162816623Y-75011932D01*
X162787129Y-75076512D01*
X162781000Y-75083095D01*
X162334500Y-75529595D01*
X162272188Y-75563621D01*
X162245405Y-75566500D01*
X158659197Y-75566500D01*
X158591076Y-75546498D01*
X158544583Y-75492842D01*
X158539674Y-75480377D01*
X158523867Y-75432998D01*
X158523866Y-75432996D01*
X158521550Y-75426054D01*
X158428478Y-75275652D01*
X158303303Y-75150695D01*
X158297072Y-75146854D01*
X158158968Y-75061725D01*
X158158966Y-75061724D01*
X158152738Y-75057885D01*
X158062224Y-75027863D01*
X157991389Y-75004368D01*
X157991387Y-75004368D01*
X157984861Y-75002203D01*
X157978025Y-75001503D01*
X157978022Y-75001502D01*
X157934969Y-74997091D01*
X157880400Y-74991500D01*
X157079600Y-74991500D01*
X157076354Y-74991837D01*
X157076350Y-74991837D01*
X156980692Y-75001762D01*
X156980688Y-75001763D01*
X156973834Y-75002474D01*
X156967298Y-75004655D01*
X156967296Y-75004655D01*
X156897734Y-75027863D01*
X156806054Y-75058450D01*
X156655652Y-75151522D01*
X156650479Y-75156704D01*
X156569216Y-75238109D01*
X156506934Y-75272188D01*
X156436114Y-75267185D01*
X156391027Y-75238265D01*
X156358837Y-75206132D01*
X156324756Y-75143850D01*
X156329758Y-75073030D01*
X156358758Y-75027863D01*
X157016592Y-74370030D01*
X157743505Y-73643117D01*
X157797446Y-73611215D01*
X157854142Y-73594743D01*
X157904846Y-73580012D01*
X157975152Y-73580012D01*
X158108925Y-73618877D01*
X158108927Y-73618877D01*
X158115111Y-73620674D01*
X158127762Y-73621670D01*
X158148562Y-73623307D01*
X158148575Y-73623308D01*
X158151021Y-73623500D01*
X158339885Y-73623500D01*
X158528978Y-73623499D01*
X158536766Y-73622886D01*
X158558474Y-73621179D01*
X158558477Y-73621178D01*
X158564889Y-73620674D01*
X158571063Y-73618880D01*
X158571070Y-73618879D01*
X158705743Y-73579752D01*
X158776049Y-73579752D01*
X158872605Y-73607804D01*
X158886705Y-73607764D01*
X158890000Y-73600494D01*
X158890000Y-73594743D01*
X159390000Y-73594743D01*
X159393973Y-73608274D01*
X159401871Y-73609409D01*
X159510780Y-73577768D01*
X159525217Y-73571520D01*
X159649227Y-73498181D01*
X159661665Y-73488532D01*
X159762312Y-73387885D01*
X161967000Y-73387885D01*
X161971475Y-73403124D01*
X161972865Y-73404329D01*
X161980548Y-73406000D01*
X162777885Y-73406000D01*
X162793124Y-73401525D01*
X162794329Y-73400135D01*
X162796000Y-73392452D01*
X162796000Y-72470116D01*
X162791525Y-72454877D01*
X162790135Y-72453672D01*
X162782452Y-72452001D01*
X162677905Y-72452001D01*
X162671386Y-72452338D01*
X162575794Y-72462257D01*
X162562400Y-72465149D01*
X162408216Y-72516588D01*
X162395038Y-72522761D01*
X162257193Y-72608063D01*
X162245792Y-72617099D01*
X162131261Y-72731829D01*
X162122249Y-72743240D01*
X162037184Y-72881243D01*
X162031037Y-72894424D01*
X161979862Y-73048710D01*
X161976995Y-73062086D01*
X161967328Y-73156438D01*
X161967000Y-73162855D01*
X161967000Y-73387885D01*
X159762312Y-73387885D01*
X159763532Y-73386665D01*
X159773181Y-73374227D01*
X159846520Y-73250217D01*
X159852768Y-73235780D01*
X159893382Y-73095987D01*
X159895680Y-73083400D01*
X159897807Y-73056384D01*
X159898000Y-73051458D01*
X159898000Y-72633115D01*
X159893525Y-72617876D01*
X159892135Y-72616671D01*
X159884452Y-72615000D01*
X159408115Y-72615000D01*
X159392876Y-72619475D01*
X159391671Y-72620865D01*
X159390000Y-72628548D01*
X159390000Y-73594743D01*
X158890000Y-73594743D01*
X158890000Y-73513095D01*
X158910002Y-73444974D01*
X158926905Y-73424000D01*
X158969542Y-73381363D01*
X158973573Y-73374547D01*
X158973576Y-73374543D01*
X159046984Y-73250414D01*
X159051018Y-73243593D01*
X159075421Y-73159600D01*
X159093878Y-73096072D01*
X159093879Y-73096067D01*
X159095674Y-73089889D01*
X159097339Y-73068735D01*
X159098307Y-73056438D01*
X159098308Y-73056425D01*
X159098500Y-73053979D01*
X159098499Y-72240999D01*
X159118501Y-72172879D01*
X159172157Y-72126386D01*
X159224499Y-72115000D01*
X159879884Y-72115000D01*
X159895123Y-72110525D01*
X159896328Y-72109135D01*
X159897999Y-72101452D01*
X159897999Y-71874500D01*
X159918001Y-71806379D01*
X159971657Y-71759886D01*
X160023999Y-71748500D01*
X160491948Y-71748499D01*
X160529575Y-71748499D01*
X160549367Y-71750999D01*
G37*
%TD.AperFunction*%
%TA.AperFunction,Conductor*%
G36*
X154549032Y-52905924D02*
G01*
X154594095Y-52934885D01*
X154684595Y-53025385D01*
X154718621Y-53087697D01*
X154721500Y-53114480D01*
X154721500Y-53244856D01*
X154721997Y-53248787D01*
X154733945Y-53343365D01*
X154736526Y-53363797D01*
X154739443Y-53371164D01*
X154739443Y-53371165D01*
X154795448Y-53512617D01*
X154792364Y-53513838D01*
X154804387Y-53568307D01*
X154779779Y-53634903D01*
X154723073Y-53677622D01*
X154652273Y-53682902D01*
X154589586Y-53648796D01*
X154234885Y-53294095D01*
X154200859Y-53231783D01*
X154205924Y-53160968D01*
X154234885Y-53115905D01*
X154415905Y-52934885D01*
X154478217Y-52900859D01*
X154549032Y-52905924D01*
G37*
%TD.AperFunction*%
%TA.AperFunction,Conductor*%
G36*
X161888141Y-52601002D02*
G01*
X161934634Y-52654658D01*
X161946020Y-52707000D01*
X161946020Y-52963000D01*
X161926018Y-53031121D01*
X161872362Y-53077614D01*
X161820020Y-53089000D01*
X160933000Y-53089000D01*
X160864879Y-53068998D01*
X160818386Y-53015342D01*
X160807000Y-52963000D01*
X160807000Y-52707000D01*
X160827002Y-52638879D01*
X160880658Y-52592386D01*
X160933000Y-52581000D01*
X161820020Y-52581000D01*
X161888141Y-52601002D01*
G37*
%TD.AperFunction*%
%TA.AperFunction,Conductor*%
G36*
X159348526Y-49488502D02*
G01*
X159369500Y-49505405D01*
X159540868Y-49676773D01*
X159548408Y-49685059D01*
X159552520Y-49691538D01*
X159558297Y-49696963D01*
X159602171Y-49738163D01*
X159605013Y-49740918D01*
X159624750Y-49760655D01*
X159627947Y-49763135D01*
X159636967Y-49770838D01*
X159669199Y-49801106D01*
X159676145Y-49804925D01*
X159676148Y-49804927D01*
X159686954Y-49810868D01*
X159703473Y-49821719D01*
X159719479Y-49834134D01*
X159726748Y-49837279D01*
X159726752Y-49837282D01*
X159760057Y-49851694D01*
X159770707Y-49856911D01*
X159809460Y-49878215D01*
X159817135Y-49880186D01*
X159817136Y-49880186D01*
X159829082Y-49883253D01*
X159847787Y-49889657D01*
X159866375Y-49897701D01*
X159874198Y-49898940D01*
X159874208Y-49898943D01*
X159910044Y-49904619D01*
X159921664Y-49907025D01*
X159956809Y-49916048D01*
X159964490Y-49918020D01*
X159984744Y-49918020D01*
X160004454Y-49919571D01*
X160024463Y-49922740D01*
X160032355Y-49921994D01*
X160068481Y-49918579D01*
X160080339Y-49918020D01*
X160729926Y-49918020D01*
X160798047Y-49938022D01*
X160819017Y-49954921D01*
X161780799Y-50916704D01*
X161814823Y-50979014D01*
X161809758Y-51049830D01*
X161767211Y-51106665D01*
X161710544Y-51130380D01*
X161571842Y-51151357D01*
X161559530Y-51154518D01*
X161388863Y-51217310D01*
X161377451Y-51222877D01*
X161222891Y-51318708D01*
X161216681Y-51323491D01*
X161209560Y-51335708D01*
X161210184Y-51350053D01*
X161222935Y-51395828D01*
X161201986Y-51463664D01*
X161186042Y-51483168D01*
X160544095Y-52125115D01*
X160481783Y-52159141D01*
X160410968Y-52154076D01*
X160365905Y-52125115D01*
X160255204Y-52014414D01*
X160221178Y-51952102D01*
X160221334Y-51897835D01*
X160240702Y-51811188D01*
X160239334Y-51767666D01*
X160257186Y-51698951D01*
X160276177Y-51674613D01*
X160843500Y-51107290D01*
X160850260Y-51094910D01*
X160846749Y-51090220D01*
X160727628Y-51037184D01*
X160715140Y-51033127D01*
X160551636Y-50998372D01*
X160538576Y-50997000D01*
X160371424Y-50997000D01*
X160358364Y-50998372D01*
X160194863Y-51033126D01*
X160182367Y-51037186D01*
X160029674Y-51105169D01*
X160018290Y-51111741D01*
X160014566Y-51114447D01*
X159947698Y-51138304D01*
X159878546Y-51122222D01*
X159851412Y-51101604D01*
X159418393Y-50668584D01*
X158765885Y-50016076D01*
X158731859Y-49953764D01*
X158728980Y-49926981D01*
X158728980Y-49594500D01*
X158748982Y-49526379D01*
X158802638Y-49479886D01*
X158854980Y-49468500D01*
X159280405Y-49468500D01*
X159348526Y-49488502D01*
G37*
%TD.AperFunction*%
%TD*%
M02*
